<svg xmlns="http://www.w3.org/2000/svg" viewBox="0 0 1916 1082.12"><defs><style>.cls-1{fill:#e7a06e;}.cls-2{fill:#3d3b3c;}.cls-3{fill:#4c4b4b;}.cls-4{fill:#343333;}.cls-5{fill:#4a4848;}.cls-6{fill:#4e4d4d;}.cls-7{fill:#8b8a8a;}.cls-8{fill:#141313;}.cls-9{fill:#5b595a;}.cls-10{fill:#a2a0a0;}.cls-11{fill:#6e7073;}.cls-12{fill:#3d3e43;}.cls-13{fill:#4e4c4d;}.cls-14{fill:#5c5a5b;}.cls-15{fill:#605e5f;}.cls-16{fill:#4c4a4a;}.cls-17{fill:#605e5e;}.cls-18{fill:#4d4b4c;}.cls-19{fill:#5a585b;}.cls-20{fill:#8e8c8d;}.cls-21{fill:#444343;}.cls-22{fill:#323131;}.cls-23{fill:#373535;}.cls-24{fill:#454343;}.cls-25{fill:#393738;}.cls-26{fill:#535152;}.cls-27{fill:#878485;}.cls-28{fill:#3f3d3e;}.cls-29{fill:#4e4d4e;}.cls-30{fill:#716f70;}.cls-31{fill:#5d5c5c;}.cls-32{fill:#494748;}.cls-33{fill:#545253;}.cls-34{fill:#626061;}.cls-35{fill:#4b4849;}.cls-36{fill:#555354;}.cls-37{fill:#363334;}.cls-38{fill:#454344;}.cls-39{fill:#525051;}.cls-40{fill:#4d4c4c;}.cls-41{fill:#3c3b3b;}.cls-42{fill:#5c5b5c;}.cls-43{fill:#565455;}.cls-44{fill:#635f5d;}.cls-45{fill:#696768;}.cls-46{fill:#4d4b4b;}.cls-47{fill:#5f5c5d;}.cls-48{fill:#3f3c3d;}.cls-49{fill:#514f50;}.cls-50{fill:#2f2b2c;}.cls-51{fill:#5a5858;}.cls-52{fill:#3a3839;}.cls-53{fill:#605f5f;}.cls-54{fill:#5b5b63;}.cls-55{fill:#777575;}.cls-56{fill:#686667;}.cls-57{fill:#413f40;}.cls-58{fill:#535252;}.cls-59{fill:#403e3f;}.cls-60{fill:#343233;}.cls-61{fill:#363434;}.cls-62{fill:#4a4949;}.cls-63{fill:#514e4f;}.cls-64{fill:#837f80;}.cls-65{fill:#4b494a;}.cls-66{fill:#2b2728;}.cls-67{fill:#3e3c3c;}.cls-68{fill:#504f4f;}.cls-69{fill:#151314;}.cls-70{fill:#2d2b2c;}.cls-71{fill:#666263;}.cls-72{fill:#4e4f4f;}.cls-73{fill:#141112;}.cls-74{fill:#1f1e1e;}.cls-75{fill:#504e4e;}.cls-76{fill:#262424;}.cls-77{fill:#171516;}.cls-78{fill:#2a2829;}.cls-79{fill:#242627;}.cls-80{fill:#555152;}.cls-81{fill:#141212;}.cls-82{fill:#646263;}.cls-83{fill:#17191e;}.cls-84{fill:#1f2022;}.cls-85{fill:#131213;}.cls-86{fill:#424142;}.cls-87{fill:#121010;}.cls-88{fill:#0a0a0a;}.cls-89{fill:#1e1c1c;}.cls-90{fill:#494f54;}.cls-91{fill:#62656a;}.cls-92{fill:#8a9196;}.cls-93{fill:#555b60;}.cls-94{fill:#2d2f37;}.cls-95{fill:#31333c;}.cls-96{fill:#202329;}.cls-97{fill:#4e575c;}.cls-98{fill:#31363a;}.cls-99{fill:#424a51;}.cls-100{fill:#090e13;}.cls-101{fill:#181f27;}.cls-102{fill:#333c42;}.cls-103{fill:#282d33;}.cls-104{fill:#475156;}.cls-105{fill:#293035;}.cls-106{fill:#0a1016;}.cls-107{fill:#495157;}.cls-108{fill:#181b21;}.cls-109{fill:#444e53;}.cls-110{fill:#313a41;}.cls-111{fill:#fff;}</style></defs><title>back3_1</title><g id="Laag_2" data-name="Laag 2"><g id="Laag_1-2" data-name="Laag 1"><rect class="cls-1" y="1.12" width="963" height="1081"/><path class="cls-2" d="M614.77,633.2c5.81,1,11.63,3.51,17.91-2.55,4.47-2.85,10.2-1.2,12.81,3.7.21.41.4.84.57,1.27,1.8,3.83,3,9,.7,11.92a8.77,8.77,0,0,1-13,0c-6.81-6.37-11.64-4.65-17.45,1.73-2.1,2.42-5.82,5.86-8.61,2.42a17.09,17.09,0,0,1-2.67-13.39C606,632.12,610.41,633.2,614.77,633.2Z"/><path class="cls-3" d="M502.17,584.81c0,3.7-.7,7-4.25,7.78-5.29,1.27-11.34,1.72-14.36-3.7-2.33-5.87-7.71-9.57-13.55-9.31-4.43.61-8.47-2.84-9-7.7a9.7,9.7,0,0,1,.35-3.9c1.92-6.82,8.26-5,12.21-2.36a41.92,41.92,0,0,0,22.45,8.8C500.83,574.61,502.87,579.65,502.17,584.81Z"/><path class="cls-4" d="M314.08,445.45c1.57,0,6.74-1.21,11.92-1.79s9.6.64,10.06,7.85-4.65,6.37-8.72,6.37a56.94,56.94,0,0,0-18.44,2.55c-4.59,1.85-9.6,2.74-12.79-3-1.75-3.12-4.31-7-2.16-10.2,2.85-4.2,7.91-2.16,12.1-2.42A69.7,69.7,0,0,1,314.08,445.45Z"/><path class="cls-5" d="M444.82,655.71c1.46,1,3.55,1.65,4.54,3.18,2.87,6.8,9.37,10.85,16.17,10.08,4.13-.51,6.57,3.82,7.09,8.48a6.09,6.09,0,0,1-3.68,7.44h0c-4,1.53-8.43,1.92-10.35-2.23-2.53-5.77-8.28-8.95-14-7.77-4.18,0-8-2.17-7.15-7.59A15.07,15.07,0,0,1,444.82,655.71Z"/><path class="cls-6" d="M547.77,629.63c7.38,12.75,10.93,1.53,16.05-2.42a6,6,0,0,1,9,0,7.3,7.3,0,0,1,1,1.44,9,9,0,0,1-2.69,11.72,7.34,7.34,0,0,1-2.43,1c-8.31-1.34-13.78,5.1-20.82,6.38-4.77.76-8.84-.77-8.9-7.21S543.35,632.5,547.77,629.63Z"/><path class="cls-7" d="M373.87,776.9a18.63,18.63,0,0,1,15.06-4.4,16,16,0,0,1,12.45,11.73c1,2.81,1.1,5.16-1.63,6.38-5.82,2.8-10.24-.77-14.54-4.15S378.46,780.85,373.87,776.9Z"/><path class="cls-8" d="M344.55,512.07c3.55.45,9.66,0,8.32,7.84-.87,5.23-3.31,9.82-10,6.76a20.16,20.16,0,0,0-16.35,2.42c-1.51.64-2.73,3.83-4.42,1.21a11.26,11.26,0,0,1-.69-5.61C329.78,522.91,333.79,511.5,344.55,512.07Z"/><path class="cls-9" d="M332.51,483.38c4.54.7,10.88-2.1,11.64,6.06s-3.9,10.14-10.18,10.33-12.16-1.85-12.16-9.95S328.44,484.53,332.51,483.38Z"/><path class="cls-10" d="M646.47,719.71c.46-6.37-.41-12.75,6.63-12.75,5.29,0,9.13,3.19,7.5,8.61-1.86,6.37,1.45,17.59-7.56,18.17C645.07,734.12,648,724.24,646.47,719.71Z"/><path class="cls-11" d="M556.61,369c18.26-1.6,23.26,4.33,17.45,19.57C559.28,391.71,559.46,378.7,556.61,369Z"/><path class="cls-12" d="M478.38,346.31a12.94,12.94,0,0,1,3.84-12.75,9.81,9.81,0,0,1,14.19,0c8,5.87,0,10.52-1,15.69A26.18,26.18,0,0,1,478.38,346.31Z"/><path class="cls-13" d="M501.3,821c7.44-1,12,1.27,11.63,6.37-.7,7.78-8.38,9.88-13.55,12.24s-7.1-4.21-7.33-8.86C491.58,822.35,497.57,821.27,501.3,821Z"/><path class="cls-14" d="M396.9,477.33c5.81.38,10.18,3,9.94,9.18s-5.81,9.37-11.22,9.81c-6.4.51-8.72-5.67-8.84-10.32C386.6,480.19,392.65,478.92,396.9,477.33Z"/><path class="cls-15" d="M543.11,756.43c-5.06-.95-10.93-1.91-10.93-9.3.28-4.92,4.14-8.67,8.63-8.36h.09c5.76-.86,11.07,3.56,11.86,9.87,0,.26,0,.51.07.77C553.23,755,547.53,755.61,543.11,756.43Z"/><path class="cls-16" d="M417,808.33c-6.16.76-9.77-.77-9.13-8.22,0-5.29,3.95-9.55,8.76-9.53.18,0,.37,0,.55,0,6.22,0,9.48,3.38,9.24,10.64S421.68,808.84,417,808.33Z"/><path class="cls-17" d="M634.89,565.75c5.18.89,9.42,3.12,9.31,8.61,0,7-5.18,9.81-10.82,9.75-4.59.23-8.53-3.53-9-8.54C624.19,568.17,630.94,568.11,634.89,565.75Z"/><path class="cls-16" d="M656.06,453.42c-3.48.37-6.58-2.42-6.92-6.24a7.23,7.23,0,0,1,.06-1.86c-.26-6,3.95-11.05,9.41-11.34h.3c4.77,0,10,3.7,9,9.82S661.3,452.33,656.06,453.42Z"/><path class="cls-18" d="M585.69,667.75c-5.12-1.33-9.71-3.06-9.6-9.81-.38-4.92,2.94-9.24,7.42-9.65a7.78,7.78,0,0,1,1.6,0c4.63-.53,8.78,3.15,9.26,8.23a9.85,9.85,0,0,1,0,1.33C594.82,664.63,590.17,666.29,585.69,667.75Z"/><path class="cls-19" d="M432,369.33a5.86,5.86,0,0,1,1.45,0c6.75,0,15.18-2.81,16.35,9.18.46,4.91-1.63,8.22-6.46,8.16-10.93,0-11.63-8.29-11.11-17.34Z"/><path class="cls-20" d="M611.8,447.74c-1.8,4.85-4.3,9.95-9.77,9.57s-7.09-5.8-7-11.54c0-6.89,4.25-7.21,8.79-7.08,4.23-.22,7.83,3.36,8,8A9.2,9.2,0,0,1,611.8,447.74Z"/><path class="cls-21" d="M391.78,515.51c5.82.45,9.13,3.32,9.42,9.5.73,4.69-2.15,9.13-6.43,9.92a6.71,6.71,0,0,1-2,.09c-5.12,0-8.55-1.72-7.68-8C385.79,522.21,384.86,516,391.78,515.51Z"/><path class="cls-22" d="M648.21,677.83c-.46,13.39-6.57,13.13-12.45,14s-6.51-2.55-6.57-7.26c0-7.85,4.31-9.76,10.35-10C644.37,674.45,648.33,675.4,648.21,677.83Z"/><path class="cls-23" d="M415.8,720.73c4.42,1.66,9.66,2.43,10.12,9.06.74,4.93-2.31,9.59-6.81,10.4a8.07,8.07,0,0,1-1.39.12c-4.89.38-9.77-.71-9.71-8C407.75,726.88,411,722,415.8,720.73Z"/><path class="cls-24" d="M339,739.92c.64,5.49-3.2,7-8,7s-9.24-2.1-9.77-8.86,4.6-7.27,8.55-8C335.6,728.83,338.74,732.21,339,739.92Z"/><path class="cls-25" d="M366.25,535c3.89-.38,8.37-1.4,7.68,5.55s-3.26,12-9.43,11.73c-4.88,0-8.83-4.36-8.82-9.71,0-.29,0-.59,0-.87C355.84,532.92,361.89,535.66,366.25,535Z"/><path class="cls-26" d="M425.92,460.05c-1.8,5.29-3.49,11.41-10.12,10.9-4.39-.38-7.66-4.58-7.32-9.39,0-.17,0-.33,0-.49-.23-5.17,3.4-9.57,8.12-9.83.32,0,.64,0,1,0,4.16-.47,7.87,2.84,8.3,7.4A9.33,9.33,0,0,1,425.92,460.05Z"/><path class="cls-27" d="M295.58,477.33c5.3.51,8.26,3.5,8.09,9.24s-2.79,9.5-7.8,9.37-9-4.57-9-10.06c0-.13,0-.26,0-.39C286.8,480.19,290.81,477.52,295.58,477.33Z"/><path class="cls-28" d="M419.58,515.58c6.69,0,8.43,5,8.78,10.32.75,4-1.61,7.91-5.26,8.73a6.14,6.14,0,0,1-2.3.07c-5.29,0-10-1.91-9.88-8.41A11.66,11.66,0,0,1,419.58,515.58Z"/><path class="cls-29" d="M609.53,576.59c-5.46-.58-9.65-2-8.9-8.48s2.91-9.82,9.43-9.12,7,4.21,7.15,9.57C617.5,575.44,613.37,575.82,609.53,576.59Z"/><path class="cls-26" d="M530.78,567.09c-1,4.91-3.37,9-8.37,9.37-6.57.38-8-5.67-8.32-10.77s3.9-7.27,8-7.08S530.73,560.65,530.78,567.09Z"/><path class="cls-30" d="M390.5,676.43c0,5.8-1.16,10.32-7.73,10-4.89,0-9-2.42-8.32-8s6.28-8.8,11.63-9.56S390.27,672.85,390.5,676.43Z"/><path class="cls-31" d="M548.64,460.49c.8,4.71-2,9.24-6.32,10.12a7,7,0,0,1-1.71.15c-6.63.95-8.72-5.29-9.19-9.95-.64-6.37,5.82-6.37,9.43-7.65C546.6,451.63,548.23,456.41,548.64,460.49Z"/><path class="cls-32" d="M502,642.7c-7.38,0-7.91-5.42-7.61-10.77s2.5-8.74,8.31-8.1,6.17,6,6.28,10.39S508.1,644.1,502,642.7Z"/><path class="cls-33" d="M624.36,600.88c-1.39,4.4-2.38,10.07-7.67,9.94-5.1-.46-9.13-4.92-9.48-10.52,0-6.37,5.81-7.58,10.64-7.84S624.77,595.52,624.36,600.88Z"/><path class="cls-34" d="M393.12,620.83c-.47,6.7-5.06,7.53-9.37,7.78s-8.27-3.45-8.53-8.34a4.51,4.51,0,0,1,0-.52c0-6.38,5.81-7.84,10.41-8.29C391.43,610.82,391.9,616.63,393.12,620.83Z"/><path class="cls-6" d="M545,493.26c4.42-.88,8.66,2.33,9.47,7.18a9.56,9.56,0,0,1,.12,2c.41,6.38-3.6,7.91-8.2,8.23-4.63.56-8.8-3.1-9.31-8.17a9.76,9.76,0,0,1,0-1.08C536.37,494.67,541.83,494.92,545,493.26Z"/><path class="cls-35" d="M274.3,478.6c-6.17-.45-9.77-2.55-9.13-8.73.29-5.45,4.56-9.61,9.53-9.29l.41,0c3.78-.61,7.3,2.26,7.85,6.41a8,8,0,0,1-.06,2.58c.18,4.79-3.21,8.82-7.58,9A8.69,8.69,0,0,1,274.3,478.6Z"/><path class="cls-36" d="M478.67,816.74c-8.66,8.23-16.57,4.85-24.77-1.21C465.47,805.91,468.61,806.1,478.67,816.74Z"/><path class="cls-37" d="M504.61,356.32c11.63,1.53,9.6,10.33,8.38,18.75-5.41,0-11.63,2.61-14.72-5.17S501.47,360.28,504.61,356.32Z"/><path class="cls-16" d="M472.1,790c-6.22.57-9.83-1.21-9.6-7.4-.45-4.65,2.62-8.83,6.87-9.33a6.83,6.83,0,0,1,2.21.09c4.07,0,7.56,1.27,7.32,7.08S477.92,791.18,472.1,790Z"/><path class="cls-38" d="M635,464.57c8.84,1,17-5.61,22.45,4.15a6.64,6.64,0,0,1-2.81,8.47,5.18,5.18,0,0,1-1.21.45C645.19,480.19,639.84,475.09,635,464.57Z"/><path class="cls-39" d="M399.23,747.57c6.16,0,10.12,1.15,9.65,7.91.16,4.89-3.33,9-7.79,9.17h-.29c-6.23.64-8.9-2.87-9-9.18S396.26,748.34,399.23,747.57Z"/><path class="cls-40" d="M527.53,807.05c5,.39,8.43,2.3,8.9,8.36s-3.32,7.2-7.22,7.65c-5.81.76-8.84-3.89-9.48-9.44S524.33,808.2,527.53,807.05Z"/><path class="cls-41" d="M468.49,706.9c4.42.94,7.67,5.08,7.86,10,.86,4.11-1.48,8.22-5.23,9.18a6.48,6.48,0,0,1-1.75.19c-3.67.74-7.19-1.92-7.86-5.93a7.34,7.34,0,0,1-.11-1.15A12.89,12.89,0,0,1,468.49,706.9Z"/><path class="cls-15" d="M465.82,490.46c-5.12,0-9.54-3.32-9.54-8,0-6.38,5.41-9.69,10.88-10.33s5.81,4.53,5.81,8.74c.77,4.35-1.82,8.57-5.8,9.41A6.14,6.14,0,0,1,465.82,490.46Z"/><path class="cls-42" d="M425.57,388.77c-.19,4.93-4,8.75-8.47,8.55H417c-3.93.46-7.45-2.66-7.87-7a8.13,8.13,0,0,1,0-1.91c-.08-4.15,2.93-7.59,6.72-7.68q.39,0,.78,0C421.5,380.74,425.11,382.72,425.57,388.77Z"/><path class="cls-43" d="M621.46,429.64c-.09-4.26,3-7.79,6.88-7.88a6,6,0,0,1,.85,0c4.55.08,8.28,3.95,8.61,8.92.39,4.35-2.51,8.22-6.47,8.64l-.33,0C625,439.78,623.67,433.78,621.46,429.64Z"/><path class="cls-44" d="M497.87,408.34c-4-.82-8-2.67-7.57-7.52S493,389.73,498,389.73c4.56-.25,8.43,3.6,8.66,8.59a10,10,0,0,1-.05,1.55C506.19,404.78,502.36,408.5,497.87,408.34Z"/><path class="cls-32" d="M546.14,422.82c4,0,8.08.63,8,6.37s-1,9.76-6.63,10.07c-4.8.93-9.39-2.59-10.23-7.86l-.06-.42C537,426.26,541.08,422.82,546.14,422.82Z"/><path class="cls-45" d="M502,551.09c-4.47,0-7.91-1.85-7.85-7.08-.42-4.77,2.76-9,7.1-9.47a7.13,7.13,0,0,1,2.21.1c3.65-.31,6.84,2.68,7.12,6.69a8.3,8.3,0,0,1,0,1.41C510.49,548.47,507.17,551.15,502,551.09Z"/><path class="cls-46" d="M367.35,475.8c1.34-6.38,6.75-6.76,11.11-7.34s6.52,3.06,6.34,8-3.37,8.16-8.43,7.77A9.91,9.91,0,0,1,367.35,475.8Z"/><path class="cls-47" d="M641.12,751.65c-.65,4.74-4.42,8.22-8.79,8.1-4.48.64-7-3.12-7.15-7.91s3.59-8.72,8-8.71,7.93,3.91,8,8.71Z"/><path class="cls-18" d="M397.25,452.46c0,5.48-2.33,9-7.68,9.12-3.95.59-7.58-2.44-8.12-6.77a8.62,8.62,0,0,1,0-1.9c-.5-3.84,1.93-7.39,5.43-7.93a5.71,5.71,0,0,1,1.49,0C393.29,444.88,396.84,446.28,397.25,452.46Z"/><path class="cls-48" d="M711.08,527.12c1.22-7.65-4.77-16.39,5.29-20.6,4.83-2,7.62,2.11,8.09,6.38C725.27,522.4,718.82,524.82,711.08,527.12Z"/><path class="cls-49" d="M520.37,789.9c-6.22-.31-7.62-4.39-7.44-9.62-.18-4.08,2.69-7.55,6.42-7.74a6.31,6.31,0,0,1,1,0c3.78-.55,7.26,2.37,7.77,6.52a8.29,8.29,0,0,1,0,2.28c.26,4.43-2.8,8.25-6.84,8.54A5.89,5.89,0,0,1,520.37,789.9Z"/><path class="cls-50" d="M261.09,667.12c-.35,5.19-4.48,9.09-9.22,8.71a7,7,0,0,1-.78-.11c-4.59-.44-7.33-2.67-6.69-7.71s3.61-10.07,9.6-8C256.91,661.06,262.32,660.61,261.09,667.12Z"/><path class="cls-51" d="M354.91,691.47c-3.61-.89-7.51-2.61-7.16-6.37.64-6.38,5.82-9.12,11-10.27a4.91,4.91,0,0,1,6.31,3.5,6,6,0,0,1,.2,2.49C365.2,688.16,359.44,689.24,354.91,691.47Z"/><path class="cls-52" d="M441,593.87c-1,5.92-1.92,11-7.62,10.77-4.08-.07-7.33-3.75-7.27-8.22v-.07c-.35-5.93,4.31-8.35,8.26-9.31C439.53,585.77,439.94,591.06,441,593.87Z"/><path class="cls-53" d="M685.67,588.13c4.18,1.72,8.55,3.44,8.08,9.31.08,4.11-2.91,7.52-6.67,7.6a6,6,0,0,1-2.17-.34c-4-.63-8.14-1.91-7.27-7.33C677.87,592.54,681.28,588.62,685.67,588.13Z"/><path class="cls-54" d="M455.29,355.94c-1.22-4.46-7.79-8-2.62-13.45a12.26,12.26,0,0,1,9-3.64c5.47.77,5.23,6.38,5.47,11.16Z"/><path class="cls-55" d="M588.71,446c.64,6.37-2.38,8.86-7.44,8.86-3.62.36-6.81-2.56-7.14-6.52a8.53,8.53,0,0,1,0-1.13c-.4-6.37,2.56-8.22,7.74-8.29S588.83,441.11,588.71,446Z"/><path class="cls-56" d="M329.2,632.69c-.41,5.29-2.15,9-7,8.67s-7.15-4.4-7-10c0-4.4,1.57-7.14,5.82-7,3.95-.57,7.57,2.47,8.09,6.8A8.9,8.9,0,0,1,329.2,632.69Z"/><path class="cls-57" d="M442.9,646.59a12.57,12.57,0,0,1-9.24,9.18c-5.18.89-6.81-3.64-7.1-7.84a6.39,6.39,0,0,1,4.48-7.56,5.29,5.29,0,0,1,2.79.1C437.38,640.85,441.51,641.74,442.9,646.59Z"/><path class="cls-58" d="M636.23,511.05c-3.72,0-6.4-1.91-6.4-7.14s2.1-8.22,6.81-8,9.24,0,9.36,6.89S641.29,509.78,636.23,511.05Z"/><path class="cls-59" d="M422.31,578.69c-4.42-1.66-7.85-4.33-8.25-9.62-.81-4,1.48-7.94,5.11-8.83a6.35,6.35,0,0,1,1.05-.16c3.55-.81,7,1.69,7.77,5.58a7.45,7.45,0,0,1,.14,1.49A11.34,11.34,0,0,1,422.31,578.69Z"/><path class="cls-60" d="M335.6,602.41c0,4.84-2,8.29-6.52,8.54-3.88.59-7.46-2.38-8-6.63a8.19,8.19,0,0,1,0-2,6.38,6.38,0,0,1,4.52-7.53,5.33,5.33,0,0,1,2.63.08C332.63,595,335.6,597.12,335.6,602.41Z"/><path class="cls-61" d="M609,506.21c-1.39,4.2-1.63,9.49-7.27,10-4.3.39-7.62-.7-7.68-6.37s.47-9.63,6.52-9.69C604.65,500,608.49,500.34,609,506.21Z"/><path class="cls-62" d="M380.26,501.68c0,6.37-4.07,7.39-8.66,7.59s-6.34-4-6.69-8.16c-.52-7.08,5.35-6.38,9-7.08C378.93,492.94,380.21,497,380.26,501.68Z"/><path class="cls-63" d="M284.82,555c-4.42-.83-7.79-2.17-7.38-7.84s3.49-7.72,8.66-6.89c3.55.64,6.4,1,6.23,6.38S289.53,555,284.82,555Z"/><path class="cls-64" d="M278.31,678.46c-.93,2.87,1.92,9.95-5.82,8.74-4.59-.7-6.1-4.85-5.35-9.5s3.14-9.37,8.44-8.8S279,674.07,278.31,678.46Z"/><path class="cls-65" d="M350.6,458c5.24-.83,6.63,2.29,6.34,7.27.27,3.93-2.41,7.36-6,7.66a6.61,6.61,0,0,1-1.09,0c-4.31,0-7.8-1.79-7.45-7S345,457,350.6,458Z"/><path class="cls-66" d="M292.38,713.59c1.11,6.38-2.21,8.48-7.15,8.74-3.53.57-6.81-2.1-7.33-6a7.41,7.41,0,0,1-.06-1.49c0-4.78,3.2-7.21,7.51-7.72S292.91,707.6,292.38,713.59Z"/><path class="cls-67" d="M687.24,436.46c-6.4,0-7-6-8.32-10.65s2.56-5.73,5.82-6.37c5.81-.83,8.84,2.8,9.3,8.92S692,436.33,687.24,436.46Z"/><path class="cls-4" d="M520.66,443.47c4.72.45,7.74,2.62,7.62,7.78s-2.79,7.46-7.5,7.08-7.21-2.55-7.5-7.72C512.93,444.43,517.64,444.88,520.66,443.47Z"/><path class="cls-68" d="M361.3,591.63c-.33,4.35-3.82,7.59-7.79,7.22h-.12c-4.59,0-7.44-2.81-7.15-7.91s4.6-6.37,8.55-5.86S361.6,586.34,361.3,591.63Z"/><path class="cls-69" d="M308.15,666.67c-.43,5-4.31,8.67-8.84,8.48-4.95,0-4.31-4.53-4.95-7.91-1.16-5.86,2.27-7.52,6.4-8.16C305.82,658.32,307.33,662.21,308.15,666.67Z"/><path class="cls-70" d="M640.53,535.4c-.75,5.36-4.59,5.87-8.49,5.81-3.72.56-7.16-2.29-7.68-6.37a8.25,8.25,0,0,1,.06-2.43c.58-5.55,5.82-4.59,9.19-5.1C638.56,526.61,639.89,530.81,640.53,535.4Z"/><path class="cls-71" d="M251.56,524.82c5.29-.45,6.8,3.57,6.8,8s-.93,8.73-6.22,8.8-6.81-3-6.87-8S246.55,525.46,251.56,524.82Z"/><path class="cls-72" d="M579.87,391.26c2.5-4.21,4.19-10.33,10.3-8.35,5.06,1.66,5.23,6.37,4.36,11.54C589.24,397.32,582.84,404.2,579.87,391.26Z"/><path class="cls-73" d="M305.64,420.65c-3.95-.32-7.56-.57-7.67-6.69s3.2-6.76,7.33-6.95,7.67.63,7.73,6.37S310.12,420.78,305.64,420.65Z"/><path class="cls-7" d="M602.5,762.81c4.18.51,8,1.91,8.49,6.82a6.32,6.32,0,0,1-4.88,7.26,4.9,4.9,0,0,1-.94.07c-4.47-.09-8.3-3.55-9.25-8.35S599.47,763.45,602.5,762.81Z"/><path class="cls-60" d="M593.6,624c-4.42-.64-8-2.49-7.91-7.65s4.59-6.38,8.37-6.38,6.92.83,6.63,6C600.58,620.21,597.5,623.69,593.6,624Z"/><path class="cls-74" d="M604,589.72c-.53,3.95-2.1,8.54-5.41,8s-9.36-1.84-9.65-7.58c0-3.76,3.31-6.38,6.8-6.89,3.74-.84,7.4,1.8,8.18,5.9C604,589.36,604,589.54,604,589.72Z"/><path class="cls-75" d="M469.37,601.64a10.66,10.66,0,0,1-7.56,9.18c-4.89,1-6.58-3.12-6.87-7.58a6.32,6.32,0,0,1,4.88-7.26,4.9,4.9,0,0,1,.94-.07A8.33,8.33,0,0,1,469.37,601.64Z"/><path class="cls-14" d="M305.24,592c-5.29,0-7.39-3.82-7.5-9.18s1.16-8.16,6.51-7.39,6.86,4.59,6.57,9.82C310.59,589.08,309.89,592.53,305.24,592Z"/><path class="cls-76" d="M711.49,607.32c0,5.16-3,7.46-7.45,7.65s-4.65-4.21-4.53-7.84-.76-8.36,4.48-7.78C707.82,599.79,711.55,601.77,711.49,607.32Z"/><path class="cls-77" d="M452.56,784.1c0,5.68-3,7.14-6.63,6.76a9.05,9.05,0,0,1-7.56-8.35c-.82-5,2.91-6.38,6.28-6.76C450.12,775.37,451.92,779.83,452.56,784.1Z"/><path class="cls-78" d="M484.55,483.83c5.81-.64,6.39,3.44,6.69,6.95s-.47,8.73-5.82,8.73c-3.45.57-6.68-2-7.21-5.8C477.92,488.1,481.64,485.68,484.55,483.83Z"/><path class="cls-79" d="M599.94,397.76c-.7-6.37,1-12.75,7.44-11.92,9,1,4.36,9.18,4.42,14.73C607.79,399.93,603.14,402.29,599.94,397.76Z"/><path class="cls-35" d="M307.56,515.32a6.24,6.24,0,0,1-5.2,7,3.12,3.12,0,0,1-.61,0c-4,0-8.73-.76-9.13-5.48s3.54-7.2,7.85-7.71a5.82,5.82,0,0,1,6.95,4.81A7,7,0,0,1,307.56,515.32Z"/><path class="cls-80" d="M245.8,569.83c-3.78-.36-6.57-4-6.25-8.15,0-.21,0-.43.08-.65.35-5.42,3.78-6.88,7.91-7.07s4.83,4.33,5,7.77c.66,3.7-1.53,7.29-4.91,8A5.63,5.63,0,0,1,245.8,569.83Z"/><path class="cls-81" d="M496.3,462.41c0,5.61-3.26,7.2-7.27,7.77-4.95.77-5.3-3.12-5.36-6.94-.36-4.6,2.75-8.65,6.94-9a7.93,7.93,0,0,1,1.09,0C496.24,454.06,495.83,458.9,496.3,462.41Z"/><path class="cls-82" d="M531,698.1c-.41,4.65-2.21,8.16-6.92,7.78a6.1,6.1,0,0,1-5.88-6.31,7.73,7.73,0,0,1,.06-1c.29-4.35,3.53-7.75,7.5-7.9C530.14,690.58,530.9,694.15,531,698.1Z"/><path class="cls-83" d="M434.88,363.08a18.06,18.06,0,0,1-13.09-5.74c2.79-4.71,6.22-9.5,11.63-7.65s4.31,7.59,3.84,12.75A4.57,4.57,0,0,0,434.88,363.08Z"/><path class="cls-84" d="M374.22,397.32c-1.4-6.38,1.45-10.08,7.21-10.2,2.5,0,6.57,0,6.69,3.76,0,6.05-4,8.92-8.73,10.58Z"/><path class="cls-85" d="M405,420.08l.7-6.06c4.36,0,9.71-3.64,12.39,3.06a7,7,0,0,1-3.65,8.68l-.13.05C409.4,428.24,406.32,425.56,405,420.08Z"/><path class="cls-86" d="M350.72,403.69c-.93-5.55-2.68-12,4.88-13.13s6.64,5.16,6.75,10.26A12.12,12.12,0,0,1,350.72,403.69Z"/><path class="cls-13" d="M362.82,612c3.78,1.6,6.51,4.08,5.41,9.31-.7,3.06-1.69,7.84-4.42,6.76a11,11,0,0,1-7.22-10.58,5.6,5.6,0,0,1,5.74-5.54Z"/><path class="cls-87" d="M696.83,686.56c-.46,5.1-2.79,7.4-6.63,7.4a6,6,0,0,1-6.38-5.69,7.13,7.13,0,0,1,0-1.13,5.83,5.83,0,0,1,4.46-6.71,4.91,4.91,0,0,1,1.71,0A8.54,8.54,0,0,1,696.83,686.56Z"/><path class="cls-77" d="M542.24,717.35a5.76,5.76,0,0,1,4.41-6.63l.59-.06c4.6-.51,7,2.87,7.22,7.52a6.27,6.27,0,0,1-5,6.76C545,725.51,543.58,720.92,542.24,717.35Z"/><path class="cls-69" d="M417.49,599.54c-.76,4.33-2.1,8.35-6.75,8.22a5.19,5.19,0,0,1-5.24-5.2,4.46,4.46,0,0,1,0-.73c.35-4.27,2.38-8.22,6.69-8.28A6.14,6.14,0,0,1,417.49,599.54Z"/><path class="cls-88" d="M676.36,454c3.43,1.91,7.62,4,8.14,8.86,0,1.41-3.78,4.34-6.22,5-5.82,1.53-5.35-4-6.34-7.59S672.46,454.69,676.36,454Z"/><path class="cls-89" d="M658.33,484.21c3.49.77,7.56,2.93,8.32,6.89s-3.55,5.1-6.81,5.41a5.94,5.94,0,0,1-6.52-5.49,6.49,6.49,0,0,1-.05-.88C652.92,486.57,653.85,484,658.33,484.21Z"/><path class="cls-90" d="M402.54,311.82c.47-7.65,1.16-14-3.26-19.12-2.85-3.51-3.78-7.4.76-10.59a9.16,9.16,0,0,1,13.61,2.05c.14.2.28.42.41.63,2.85,3.76,6.22,8.48.81,11.92s-7.33,5.74-2,11.16c3.43,3.51,10.47,6.38,5.3,13.71a10.12,10.12,0,0,1-11.64,4.27C399.17,323,404.17,315.52,402.54,311.82Z"/><path class="cls-91" d="M522.93,349.69c-3.54,0-7.27-.83-7.79-3.95-1.51-9.88,5.12-19.7.35-30.28-.76-1.79,6.16-3.64,7.73,0a130.09,130.09,0,0,1,7.27,25.5C531.37,346.31,527.53,349.37,522.93,349.69Z"/><path class="cls-92" d="M417.37,250.68a42.37,42.37,0,0,0,11.28,6.38c8.15,1.66,10.82,7.27,8.38,14.6s-9.19,5-14.48,3a13.39,13.39,0,0,1-8.2-8.16C410.57,260.18,413.18,255.4,417.37,250.68Z"/><path class="cls-93" d="M641.46,370.86c-.4,7.14-3.43,10.52-9.07,11-4.65.39-8.78-.38-8.49-7.26,0-5.55,1-11.42,7.15-11.54C635.82,362.43,640.25,365.77,641.46,370.86Z"/><path class="cls-94" d="M439.36,319.6c4.88,2,8.84,5.36,9,11.09s-3.9,8.29-8.66,8-9.49-2.8-8.61-9.75A10.74,10.74,0,0,1,439.36,319.6Z"/><path class="cls-95" d="M476.93,312c-1.17,5.48-3.43,9.05-8.44,9.5s-9.07-.7-8.89-7c0-4.4.46-10.2,6.28-10.39A12.34,12.34,0,0,1,476.93,312Z"/><path class="cls-96" d="M492.63,319.79c-4.54-.51-8.32-2.23-9-8-.75-7.2,4.25-6.88,8.38-7.52s8.67,1.53,9.13,7.14S497.23,318.64,492.63,319.79Z"/><path class="cls-97" d="M309.89,343.32c-3.31,0-6.63.51-9.94.38s-5.82-3.12-5.47-7.4,1.45-9.18,5.35-10.07a7.74,7.74,0,0,1,9.42,5,51.71,51.71,0,0,1,.41,12.37Z"/><path class="cls-98" d="M455.18,288.49c-1.31,5.34-5.61,9.15-10.65,9.44-5.81,1.27-6.51-4.91-7-9.5-.35-3.19-1.68-8.67,4.25-6.89C446.51,282.94,452.73,281.8,455.18,288.49Z"/><path class="cls-99" d="M471.87,240.36c-.39,4.8-4.26,8.35-8.64,7.92a6,6,0,0,1-.61-.08c-4.54-.45-7.62-3-6.57-8.1.63-5,4.62-8.57,9.19-8.29S471.64,235.83,471.87,240.36Z"/><path class="cls-100" d="M357,304.68a6.35,6.35,0,0,1-4.75,7.36,5.37,5.37,0,0,1-2.58-.15c-4.24,0-9.3,0-9.89-6.38-.46-5.23,3.26-7,7.51-7S356.19,297.93,357,304.68Z"/><path class="cls-101" d="M309.66,343.64l2.73-.83c4.77-1.79,10.35-6.38,13.32,1.53a7.75,7.75,0,0,1-4,9.67,6.13,6.13,0,0,1-2.23.46c-7.21,1-10.82-2.8-9.54-11.15Z"/><path class="cls-102" d="M432.84,236.28c7.8,1.72,15.3,2.42,16.11,11.79.41,5.29-4.71,7.14-8.26,6.38C432.61,251.51,434.47,243.35,432.84,236.28Z"/><path class="cls-103" d="M308,365.76c4.25,1.21,7.5,3.44,7.62,8.29.44,3.7-1.94,7.09-5.32,7.57a5.71,5.71,0,0,1-1.89-.05c-3.72.32-7-2.72-7.26-6.79a8.18,8.18,0,0,1,0-1c-.19-4.22,2.77-7.81,6.62-8Z"/><path class="cls-104" d="M359.68,324.26c4.77,0,8.08,2.1,8.55,7,.8,3.81-1.36,7.61-4.84,8.49a6.08,6.08,0,0,1-1.27.18c-3.79.57-7.28-2.34-7.8-6.49,0-.22,0-.43-.05-.65C353.86,328.53,355.2,324.57,359.68,324.26Z"/><path class="cls-105" d="M392.83,279.56c.39,3.92-2.18,7.45-5.76,7.89a6.22,6.22,0,0,1-1.22,0c-5.41,0-5.53-4.85-5.82-8.48,0-5.1,3.49-7.27,7.62-7.14S392.94,275.68,392.83,279.56Z"/><path class="cls-106" d="M417.37,250.68c1.69,5.81-2.79,10.21-3,15.56C407,268,404.17,263.05,405,256.8,406,249.47,410.68,246.67,417.37,250.68Z"/><path class="cls-107" d="M391.26,333.56c-.05,3.7-2.82,6.65-6.19,6.6a5.32,5.32,0,0,1-1.49-.22c-5.47-.58-4.3-5.68-4.42-9.56s1.28-7.14,5.82-6C388.94,325.16,391.69,329.17,391.26,333.56Z"/><path class="cls-108" d="M369.16,270.64c4.59.45,5.29,3.95,5,7.78s-.82,7.84-5.82,7c-4-.53-6.89-4.46-6.51-8.86C362.18,271.66,366.19,271.72,369.16,270.64Z"/><path class="cls-109" d="M330.65,279c3.67.32,6.58,1.85,6.11,6.38a6.13,6.13,0,0,1-5.77,6.42,7.28,7.28,0,0,1-7-5.87,6.25,6.25,0,0,1,0-1.06C324,280.71,326.93,279.18,330.65,279Z"/><path class="cls-110" d="M349,258.33a8.11,8.11,0,0,1,6.17,7.46c.2,3.75-2.4,7-5.82,7.21-4.53.83-5.35-3.44-5.81-6.95S345.48,259.55,349,258.33Z"/><path class="cls-111" d="M359,417.7c-.38,0-.56-.23-.56-.7l.14-95.84a.61.61,0,0,1,.69-.7h15.51a.62.62,0,0,1,.7.7l-.14,79.35h28.78a.62.62,0,0,1,.7.7V417a.62.62,0,0,1-.7.7Z"/><path class="cls-111" d="M414.45,417.7c-.37,0-.56-.23-.56-.7l.14-96a.5.5,0,0,1,.56-.56h44.85c.37,0,.56.23.56.7v15.65a.49.49,0,0,1-.56.55H430.79v21.8h28.65a.5.5,0,0,1,.56.56l.13,15.79a.48.48,0,0,1-.55.55H430.79v24.45h28.79c.37,0,.55.24.55.7v15.93a.49.49,0,0,1-.55.56Z"/><path class="cls-111" d="M486.54,417.7c-.37,0-.56-.23-.56-.7V337.36H467.82a.61.61,0,0,1-.7-.69l.14-15.65a.49.49,0,0,1,.56-.56h53.09c.46,0,.7.19.7.56v15.65c0,.46-.19.69-.56.69h-18.3l.13,79.64c0,.47-.18.7-.55.7Z"/><path class="cls-111" d="M528.45,353.29v-8.66a7.77,7.77,0,0,0,5.94-2.65,9,9,0,0,0,2.44-6.29H529a.5.5,0,0,1-.56-.56V319.48a.5.5,0,0,1,.56-.56H544.8a.5.5,0,0,1,.56.56v16.21a17.39,17.39,0,0,1-2.38,8.94,17.65,17.65,0,0,1-6.22,6.36A15.92,15.92,0,0,1,528.45,353.29Z"/><path class="cls-111" d="M580.56,419.1a25.66,25.66,0,0,1-13.76-3.85,28.94,28.94,0,0,1-9.92-10.2,27.33,27.33,0,0,1-3.7-14v-6.42a.62.62,0,0,1,.7-.7h15.64c.38,0,.56.23.56.7V391a11.15,11.15,0,0,0,3.08,7.9,9.93,9.93,0,0,0,14.81-.07A11.26,11.26,0,0,0,591,391q0-5.16-6.71-8.94l-7-3.91q-4.76-2.66-8.94-5A29.33,29.33,0,0,1,557,361.88a31.31,31.31,0,0,1-3.7-15.29,26.61,26.61,0,0,1,3.77-14,28.22,28.22,0,0,1,10-9.85,26.88,26.88,0,0,1,27.1.07,28.14,28.14,0,0,1,9.92,9.92,26.67,26.67,0,0,1,3.71,13.91V358a.49.49,0,0,1-.56.56H591.6A.49.49,0,0,1,591,358l-.14-11.45a10.82,10.82,0,0,0-3.07-8,9.93,9.93,0,0,0-7.27-3.07,9.76,9.76,0,0,0-7.4,3.28,11,11,0,0,0-3.08,7.76,14,14,0,0,0,2,7.68q2,3.08,7.13,5.87c.46.28,1.37.77,2.72,1.46s2.82,1.5,4.4,2.38,3,1.65,4.26,2.3,2,1.08,2.31,1.26a33.36,33.36,0,0,1,11,9.57A23.27,23.27,0,0,1,608,391a27.87,27.87,0,0,1-13.63,24.38A26.36,26.36,0,0,1,580.56,419.1Z"/><path class="cls-111" d="M375.68,585.35c-.37,0-.56-.23-.56-.7V505H357a.62.62,0,0,1-.7-.7l.14-15.65a.49.49,0,0,1,.56-.56h53.09c.46,0,.7.19.7.56v15.65c0,.47-.19.7-.56.7h-18.3l.14,79.63c0,.47-.19.7-.56.7Z"/><path class="cls-111" d="M414,584.65l17.33-96a.65.65,0,0,1,.69-.56h20.26a.66.66,0,0,1,.7.56l16.63,96c.09.47-.1.7-.56.7H453.5c-.37,0-.61-.23-.7-.7l-1.54-10.2h-19l-1.53,10.2c-.1.47-.33.7-.7.7H414.52C414.15,585.35,414,585.12,414,584.65Zm21.1-25.15h13.41l-5.73-39.25-.84-5.17-.56,5.17Z"/><path class="cls-111" d="M486.47,585.35c-.37,0-.56-.23-.56-.7l.14-95.84a.62.62,0,0,1,.7-.7h15.51a.62.62,0,0,1,.69.7l-.14,79.36h28.78a.62.62,0,0,1,.7.7v15.78a.62.62,0,0,1-.7.7Z"/><path class="cls-111" d="M549.48,585.35c-.38,0-.56-.23-.56-.7l.28-95.84c0-.46.18-.7.56-.7H565.4c.37,0,.56.24.56.7v33.11l21.94-33.25a1.21,1.21,0,0,1,1-.56h16.07c.37,0,.47.19.28.56l-24.17,38.56,27.11,57.56c.18.38,0,.56-.7.56H590.41a.75.75,0,0,1-.84-.56l-18.86-41.07-4.89,7.68v33.25c0,.47-.19.7-.56.7Z"/><path class="cls-111" d="M375.26,753c-.37,0-.56-.23-.56-.69V672.67H356.54a.62.62,0,0,1-.7-.7l.14-15.65a.49.49,0,0,1,.56-.55h53.09c.46,0,.7.18.7.55V672c0,.47-.19.7-.56.7h-18.3l.14,79.64c0,.46-.19.69-.56.69Z"/><path class="cls-111" d="M436.17,753c-.28,0-.42-.18-.42-.56l.14-39.67-18.72-56.45c-.09-.37.05-.55.42-.55H433.1a.76.76,0,0,1,.84.55l10.34,37.59,10.47-37.59a.66.66,0,0,1,.7-.55H471.1c.37,0,.51.18.42.55l-18.86,55.89.14,40.23a.49.49,0,0,1-.56.56Z"/><path class="cls-111" d="M485.91,753a.61.61,0,0,1-.7-.69l.28-96a.49.49,0,0,1,.56-.55h26.82q12.86,0,20.33,7.82t7.47,21.24A35.69,35.69,0,0,1,536.76,702a29.07,29.07,0,0,1-10.2,11.18,25.48,25.48,0,0,1-13.69,3.91H502.25v35.21a.61.61,0,0,1-.69.69Zm16.34-52.81h10.62q4.47,0,7.76-4.26t3.28-11.1a13.47,13.47,0,0,0-2.93-9,10.05,10.05,0,0,0-8.11-3.49l-10.62.14Z"/><path class="cls-111" d="M556.74,753c-.37,0-.56-.23-.56-.69l.14-96a.49.49,0,0,1,.56-.55h44.85c.37,0,.56.23.56.69v15.65a.5.5,0,0,1-.56.56H573.09v21.8h28.64a.49.49,0,0,1,.56.55l.14,15.79a.5.5,0,0,1-.56.56H573.09v24.45h28.78c.37,0,.56.23.56.7v15.92a.49.49,0,0,1-.56.56Z"/><rect class="cls-111" x="953" width="963" height="1081"/></g></g></svg>