<svg xmlns="http://www.w3.org/2000/svg" viewBox="0 0 1926 1083.88"><defs><style>.cls-1{fill:#fff;}.cls-2{fill:#f1d9c0;}.cls-3{fill:#3d3b3c;}.cls-4{fill:#4c4b4b;}.cls-5{fill:#343333;}.cls-6{fill:#4a4848;}.cls-7{fill:#4e4d4d;}.cls-8{fill:#8b8a8a;}.cls-9{fill:#141313;}.cls-10{fill:#5b595a;}.cls-11{fill:#a2a0a0;}.cls-12{fill:#6e7073;}.cls-13{fill:#3d3e43;}.cls-14{fill:#4e4c4d;}.cls-15{fill:#5c5a5b;}.cls-16{fill:#605e5f;}.cls-17{fill:#4c4a4a;}.cls-18{fill:#605e5e;}.cls-19{fill:#4d4b4c;}.cls-20{fill:#5a585b;}.cls-21{fill:#8e8c8d;}.cls-22{fill:#444343;}.cls-23{fill:#323131;}.cls-24{fill:#373535;}.cls-25{fill:#454343;}.cls-26{fill:#393738;}.cls-27{fill:#535152;}.cls-28{fill:#878485;}.cls-29{fill:#3f3d3e;}.cls-30{fill:#4e4d4e;}.cls-31{fill:#716f70;}.cls-32{fill:#5d5c5c;}.cls-33{fill:#494748;}.cls-34{fill:#545253;}.cls-35{fill:#626061;}.cls-36{fill:#4b4849;}.cls-37{fill:#555354;}.cls-38{fill:#363334;}.cls-39{fill:#454344;}.cls-40{fill:#525051;}.cls-41{fill:#4d4c4c;}.cls-42{fill:#3c3b3b;}.cls-43{fill:#5c5b5c;}.cls-44{fill:#565455;}.cls-45{fill:#635f5d;}.cls-46{fill:#696768;}.cls-47{fill:#4d4b4b;}.cls-48{fill:#5f5c5d;}.cls-49{fill:#3f3c3d;}.cls-50{fill:#514f50;}.cls-51{fill:#2f2b2c;}.cls-52{fill:#5a5858;}.cls-53{fill:#3a3839;}.cls-54{fill:#605f5f;}.cls-55{fill:#5b5b63;}.cls-56{fill:#777575;}.cls-57{fill:#686667;}.cls-58{fill:#413f40;}.cls-59{fill:#535252;}.cls-60{fill:#403e3f;}.cls-61{fill:#343233;}.cls-62{fill:#363434;}.cls-63{fill:#4a4949;}.cls-64{fill:#514e4f;}.cls-65{fill:#837f80;}.cls-66{fill:#4b494a;}.cls-67{fill:#2b2728;}.cls-68{fill:#3e3c3c;}.cls-69{fill:#504f4f;}.cls-70{fill:#151314;}.cls-71{fill:#2d2b2c;}.cls-72{fill:#666263;}.cls-73{fill:#4e4f4f;}.cls-74{fill:#141112;}.cls-75{fill:#1f1e1e;}.cls-76{fill:#504e4e;}.cls-77{fill:#262424;}.cls-78{fill:#171516;}.cls-79{fill:#2a2829;}.cls-80{fill:#242627;}.cls-81{fill:#555152;}.cls-82{fill:#141212;}.cls-83{fill:#646263;}.cls-84{fill:#17191e;}.cls-85{fill:#1f2022;}.cls-86{fill:#131213;}.cls-87{fill:#424142;}.cls-88{fill:#121010;}.cls-89{fill:#0a0a0a;}.cls-90{fill:#1e1c1c;}.cls-91{fill:#494f54;}.cls-92{fill:#62656a;}.cls-93{fill:#8a9196;}.cls-94{fill:#555b60;}.cls-95{fill:#2d2f37;}.cls-96{fill:#31333c;}.cls-97{fill:#202329;}.cls-98{fill:#4e575c;}.cls-99{fill:#31363a;}.cls-100{fill:#424a51;}.cls-101{fill:#090e13;}.cls-102{fill:#181f27;}.cls-103{fill:#333c42;}.cls-104{fill:#282d33;}.cls-105{fill:#475156;}.cls-106{fill:#293035;}.cls-107{fill:#0a1016;}.cls-108{fill:#495157;}.cls-109{fill:#181b21;}.cls-110{fill:#444e53;}.cls-111{fill:#313a41;}</style></defs><title>back5</title><g id="Laag_2" data-name="Laag 2"><g id="Laag_1-2" data-name="Laag 1"><rect class="cls-1" x="963" y="2.88" width="963" height="1081"/><rect class="cls-2" width="963" height="1081"/><path class="cls-3" d="M620.77,636.08c5.81,1,11.63,3.51,17.91-2.55,4.47-2.85,10.2-1.19,12.81,3.7a13.43,13.43,0,0,1,.57,1.28c1.8,3.82,3,9,.7,11.92a8.79,8.79,0,0,1-13,0c-6.81-6.38-11.64-4.66-17.45,1.72-2.1,2.42-5.82,5.86-8.61,2.42a17.09,17.09,0,0,1-2.67-13.39C612,635,616.41,636.08,620.77,636.08Z"/><path class="cls-4" d="M508.17,587.69c0,3.7-.7,6.95-4.25,7.78-5.29,1.28-11.34,1.72-14.36-3.7-2.33-5.87-7.71-9.57-13.55-9.3-4.43.6-8.47-2.85-9-7.7a9.73,9.73,0,0,1,.35-3.91c1.92-6.82,8.26-5,12.21-2.36A41.84,41.84,0,0,0,502,577.3C506.83,577.49,508.87,582.53,508.17,587.69Z"/><path class="cls-5" d="M320.08,448.33c1.57,0,6.74-1.21,11.92-1.78s9.6.63,10.06,7.84-4.65,6.37-8.72,6.37a56.94,56.94,0,0,0-18.44,2.55c-4.59,1.85-9.6,2.74-12.79-3-1.75-3.13-4.31-7-2.16-10.2,2.85-4.21,7.91-2.17,12.1-2.43A69.7,69.7,0,0,1,320.08,448.33Z"/><path class="cls-6" d="M450.82,658.59c1.46,1,3.55,1.66,4.54,3.19,2.87,6.8,9.37,10.84,16.17,10.07,4.13-.51,6.57,3.82,7.09,8.48a6.1,6.1,0,0,1-3.68,7.45h0c-4,1.53-8.43,1.91-10.35-2.23-2.53-5.77-8.28-9-14-7.78-4.18,0-8-2.17-7.15-7.59A15.07,15.07,0,0,1,450.82,658.59Z"/><path class="cls-7" d="M553.77,632.51c7.38,12.75,10.93,1.53,16.05-2.42a6,6,0,0,1,9,0,7.23,7.23,0,0,1,1,1.43,9,9,0,0,1-2.69,11.72,7.34,7.34,0,0,1-2.43,1c-8.31-1.34-13.78,5.1-20.82,6.38-4.77.76-8.84-.77-8.9-7.21S549.35,635.38,553.77,632.51Z"/><path class="cls-8" d="M379.87,779.78a18.63,18.63,0,0,1,15.06-4.4,16,16,0,0,1,12.45,11.73c1,2.81,1.1,5.17-1.63,6.38-5.82,2.8-10.24-.77-14.54-4.15S384.46,783.73,379.87,779.78Z"/><path class="cls-9" d="M350.55,515c3.55.45,9.66,0,8.32,7.84-.87,5.23-3.31,9.82-10,6.76A20.16,20.16,0,0,0,332.52,532c-1.51.64-2.73,3.83-4.42,1.22a11.29,11.29,0,0,1-.69-5.61C335.78,525.79,339.79,514.38,350.55,515Z"/><path class="cls-10" d="M338.51,486.26c4.54.71,10.88-2.1,11.64,6.06s-3.9,10.14-10.18,10.33-12.16-1.85-12.16-9.95S334.44,487.41,338.51,486.26Z"/><path class="cls-11" d="M652.47,722.6c.46-6.38-.41-12.76,6.63-12.76,5.29,0,9.13,3.19,7.5,8.61-1.86,6.38,1.45,17.6-7.56,18.17C651.07,737,654,727.12,652.47,722.6Z"/><path class="cls-12" d="M562.61,371.83c18.26-1.6,23.26,4.33,17.45,19.57C565.28,394.59,565.46,381.58,562.61,371.83Z"/><path class="cls-13" d="M484.38,349.2a12.94,12.94,0,0,1,3.84-12.75,9.79,9.79,0,0,1,14.19,0c8,5.86,0,10.51-1,15.68A26.17,26.17,0,0,1,484.38,349.2Z"/><path class="cls-14" d="M507.3,823.9c7.44-1,12,1.27,11.63,6.37-.7,7.78-8.38,9.89-13.55,12.24s-7.1-4.2-7.33-8.86C497.58,825.24,503.57,824.15,507.3,823.9Z"/><path class="cls-15" d="M402.9,480.21c5.81.38,10.18,3,9.94,9.18s-5.81,9.37-11.22,9.82c-6.4.51-8.72-5.68-8.84-10.33C392.6,483.08,398.65,481.8,402.9,480.21Z"/><path class="cls-16" d="M549.11,759.32c-5.06-1-10.93-1.92-10.93-9.31.28-4.92,4.14-8.66,8.63-8.36h.09c5.76-.86,11.07,3.56,11.86,9.87,0,.26,0,.52.07.77C559.23,757.91,553.53,758.49,549.11,759.32Z"/><path class="cls-17" d="M423,811.21c-6.16.77-9.77-.76-9.13-8.22,0-5.28,3.95-9.55,8.76-9.52a5.06,5.06,0,0,1,.55,0c6.22,0,9.48,3.38,9.24,10.64S427.68,811.72,423,811.21Z"/><path class="cls-18" d="M640.89,568.63c5.18.89,9.42,3.13,9.31,8.61,0,7-5.18,9.82-10.82,9.75-4.59.23-8.53-3.53-9-8.54C630.19,571.05,636.94,571,640.89,568.63Z"/><path class="cls-17" d="M662.06,456.3c-3.48.37-6.58-2.42-6.92-6.24a7.25,7.25,0,0,1,.06-1.86c-.26-6,3.95-11.05,9.41-11.33h.3c4.77,0,10,3.69,9,9.81S667.3,455.22,662.06,456.3Z"/><path class="cls-19" d="M591.69,670.64c-5.12-1.34-9.71-3.06-9.6-9.82-.38-4.91,2.94-9.23,7.42-9.65a7.78,7.78,0,0,1,1.6,0c4.63-.53,8.78,3.15,9.26,8.23a10,10,0,0,1,0,1.34C600.82,667.51,596.17,669.17,591.69,670.64Z"/><path class="cls-20" d="M438,372.21a5.86,5.86,0,0,1,1.45,0c6.75,0,15.18-2.8,16.35,9.18.46,4.91-1.63,8.22-6.46,8.16-10.93,0-11.63-8.29-11.11-17.34Z"/><path class="cls-21" d="M617.8,450.63c-1.8,4.84-4.3,9.94-9.77,9.56s-7.09-5.8-7-11.54c0-6.89,4.25-7.2,8.79-7.08,4.23-.22,7.83,3.36,8,8A9.38,9.38,0,0,1,617.8,450.63Z"/><path class="cls-22" d="M397.78,518.4c5.82.44,9.13,3.31,9.42,9.49.73,4.69-2.15,9.13-6.43,9.93a7.06,7.06,0,0,1-2,.08c-5.12,0-8.55-1.72-7.68-8C391.79,525.09,390.86,518.84,397.78,518.4Z"/><path class="cls-23" d="M654.21,680.71c-.46,13.39-6.57,13.13-12.45,14s-6.51-2.55-6.57-7.27c0-7.84,4.31-9.76,10.35-10C650.37,677.33,654.33,678.29,654.21,680.71Z"/><path class="cls-24" d="M421.8,723.62c4.42,1.65,9.66,2.42,10.12,9,.74,4.93-2.31,9.59-6.81,10.4a8.07,8.07,0,0,1-1.39.12c-4.89.38-9.77-.7-9.71-8C413.75,729.76,417,724.92,421.8,723.62Z"/><path class="cls-25" d="M345,742.8c.64,5.49-3.2,7-8,7s-9.24-2.1-9.77-8.86,4.6-7.27,8.55-8C341.6,731.71,344.74,735.09,345,742.8Z"/><path class="cls-26" d="M372.25,537.9c3.89-.38,8.37-1.4,7.68,5.55s-3.26,12-9.43,11.73c-4.88,0-8.83-4.36-8.82-9.71,0-.29,0-.58,0-.87C361.84,535.8,367.89,538.54,372.25,537.9Z"/><path class="cls-27" d="M431.92,462.93c-1.8,5.29-3.49,11.41-10.12,10.9-4.39-.38-7.66-4.58-7.32-9.39,0-.16,0-.33,0-.49-.23-5.17,3.4-9.57,8.12-9.82a7.53,7.53,0,0,1,1,0c4.16-.47,7.87,2.85,8.3,7.4A9.35,9.35,0,0,1,431.92,462.93Z"/><path class="cls-28" d="M301.58,480.21c5.3.51,8.26,3.5,8.09,9.24s-2.79,9.5-7.8,9.37-9-4.56-9-10.06c0-.13,0-.26,0-.39C292.8,483.08,296.81,480.4,301.58,480.21Z"/><path class="cls-29" d="M425.58,518.46c6.69,0,8.43,5,8.78,10.33.75,4-1.61,7.9-5.26,8.72a6.14,6.14,0,0,1-2.3.07c-5.29,0-10-1.91-9.88-8.41A11.66,11.66,0,0,1,425.58,518.46Z"/><path class="cls-30" d="M615.53,579.47c-5.46-.57-9.65-2-8.9-8.48s2.91-9.82,9.43-9.12,7,4.21,7.15,9.57C623.5,578.32,619.37,578.71,615.53,579.47Z"/><path class="cls-27" d="M536.78,570c-1,4.91-3.37,9-8.37,9.37-6.57.39-8-5.67-8.32-10.77s3.9-7.27,8-7.08S536.73,563.53,536.78,570Z"/><path class="cls-31" d="M396.5,679.31c0,5.8-1.16,10.33-7.73,10-4.89,0-9-2.43-8.32-8s6.28-8.79,11.63-9.56S396.27,675.74,396.5,679.31Z"/><path class="cls-32" d="M554.64,463.38c.8,4.7-2,9.23-6.32,10.12a7.5,7.5,0,0,1-1.71.14c-6.63,1-8.72-5.29-9.19-9.94-.64-6.38,5.82-6.38,9.43-7.65C552.6,454.52,554.23,459.3,554.64,463.38Z"/><path class="cls-33" d="M508,645.58c-7.38,0-7.91-5.42-7.61-10.77s2.5-8.74,8.31-8.1,6.17,6,6.28,10.39S514.1,647,508,645.58Z"/><path class="cls-34" d="M630.36,603.76c-1.39,4.4-2.38,10.07-7.67,10-5.1-.46-9.13-4.93-9.48-10.52,0-6.38,5.81-7.59,10.64-7.85S630.77,598.41,630.36,603.76Z"/><path class="cls-35" d="M399.12,623.71c-.47,6.7-5.06,7.53-9.37,7.78s-8.27-3.45-8.53-8.33a4.69,4.69,0,0,1,0-.53c0-6.37,5.81-7.84,10.41-8.29C397.43,613.71,397.9,619.51,399.12,623.71Z"/><path class="cls-7" d="M551,496.15c4.42-.89,8.66,2.32,9.47,7.17a9.66,9.66,0,0,1,.12,2c.41,6.37-3.6,7.9-8.2,8.22-4.63.56-8.8-3.09-9.31-8.17a9.58,9.58,0,0,1,0-1.07C542.37,497.55,547.83,497.8,551,496.15Z"/><path class="cls-36" d="M280.3,481.48c-6.17-.44-9.77-2.55-9.13-8.73.29-5.45,4.56-9.61,9.53-9.28l.41,0c3.78-.6,7.3,2.26,7.85,6.41a8,8,0,0,1-.06,2.58c.18,4.79-3.21,8.82-7.58,9A5.8,5.8,0,0,1,280.3,481.48Z"/><path class="cls-37" d="M484.67,819.63c-8.66,8.22-16.57,4.84-24.77-1.21C471.47,808.79,474.61,809,484.67,819.63Z"/><path class="cls-38" d="M510.61,359.2c11.63,1.53,9.6,10.33,8.38,18.75-5.41,0-11.63,2.61-14.72-5.17S507.47,363.16,510.61,359.2Z"/><path class="cls-17" d="M478.1,792.85c-6.22.57-9.83-1.21-9.6-7.39-.45-4.66,2.62-8.84,6.87-9.34a7.45,7.45,0,0,1,2.21.09c4.07,0,7.56,1.28,7.32,7.08S483.92,794.06,478.1,792.85Z"/><path class="cls-39" d="M641,467.46c8.84,1,17-5.61,22.45,4.14a6.66,6.66,0,0,1-2.81,8.48,5.67,5.67,0,0,1-1.21.45C651.19,483.08,645.84,478,641,467.46Z"/><path class="cls-40" d="M405.23,750.46c6.16,0,10.12,1.14,9.65,7.9.16,4.89-3.33,9-7.79,9.17h-.29c-6.23.64-8.9-2.87-9-9.18S402.26,751.22,405.23,750.46Z"/><path class="cls-41" d="M533.53,809.94c5,.38,8.43,2.29,8.9,8.35s-3.32,7.2-7.22,7.65c-5.81.76-8.84-3.89-9.48-9.44S530.33,811.08,533.53,809.94Z"/><path class="cls-42" d="M474.49,709.78c4.42.94,7.67,5.08,7.86,10,.86,4.12-1.48,8.23-5.23,9.18a6.48,6.48,0,0,1-1.75.19c-3.67.74-7.19-1.91-7.86-5.93a7.33,7.33,0,0,1-.11-1.14A12.9,12.9,0,0,1,474.49,709.78Z"/><path class="cls-16" d="M471.82,493.34c-5.12,0-9.54-3.31-9.54-8,0-6.37,5.41-9.69,10.88-10.33s5.81,4.53,5.81,8.74c.77,4.35-1.82,8.57-5.8,9.41A6.14,6.14,0,0,1,471.82,493.34Z"/><path class="cls-43" d="M431.57,391.66c-.19,4.92-4,8.75-8.47,8.54H423c-3.93.46-7.45-2.66-7.87-7a8.05,8.05,0,0,1,0-1.9c-.08-4.16,2.93-7.6,6.72-7.69a6.79,6.79,0,0,1,.78,0C427.5,383.62,431.11,385.6,431.57,391.66Z"/><path class="cls-44" d="M627.46,432.52c-.09-4.26,3-7.79,6.88-7.88a7.94,7.94,0,0,1,.85,0c4.55.08,8.28,4,8.61,8.92.39,4.35-2.51,8.22-6.47,8.65l-.33,0C631,442.66,629.67,436.66,627.46,432.52Z"/><path class="cls-45" d="M503.87,411.23c-4-.83-8-2.68-7.57-7.53S499,392.61,504,392.61c4.56-.25,8.43,3.6,8.66,8.59a10,10,0,0,1,0,1.55C512.19,407.66,508.36,411.38,503.87,411.23Z"/><path class="cls-33" d="M552.14,425.7c4,0,8.08.64,8,6.37s-1,9.76-6.63,10.08c-4.8.92-9.39-2.6-10.23-7.87l-.06-.42C543,429.14,547.08,425.7,552.14,425.7Z"/><path class="cls-46" d="M508,554c-4.47,0-7.91-1.85-7.85-7.08-.42-4.76,2.76-9,7.1-9.47a7.13,7.13,0,0,1,2.21.1c3.65-.31,6.84,2.69,7.12,6.69a8.3,8.3,0,0,1,0,1.41C516.49,551.36,513.17,554,508,554Z"/><path class="cls-47" d="M373.35,478.68c1.34-6.38,6.75-6.76,11.11-7.33s6.52,3.06,6.34,8-3.37,8.16-8.43,7.78A9.93,9.93,0,0,1,373.35,478.68Z"/><path class="cls-48" d="M647.12,754.54c-.65,4.74-4.42,8.21-8.79,8.09-4.48.64-7-3.12-7.15-7.9s3.59-8.73,8-8.71,7.93,3.9,8,8.71Z"/><path class="cls-19" d="M403.25,455.34c0,5.49-2.33,9-7.68,9.12-3.95.59-7.58-2.44-8.12-6.77a8.62,8.62,0,0,1,0-1.9c-.5-3.83,1.93-7.38,5.43-7.93a5.71,5.71,0,0,1,1.49,0C399.29,447.76,402.84,449.16,403.25,455.34Z"/><path class="cls-49" d="M717.08,530c1.22-7.65-4.77-16.39,5.29-20.59,4.83-2,7.62,2.1,8.09,6.37C731.27,525.28,724.82,527.7,717.08,530Z"/><path class="cls-50" d="M526.37,792.79c-6.22-.32-7.62-4.4-7.44-9.63-.18-4.08,2.69-7.54,6.42-7.74a5.27,5.27,0,0,1,1,0c3.78-.56,7.26,2.36,7.77,6.52a8.22,8.22,0,0,1,0,2.27c.26,4.43-2.8,8.25-6.84,8.54A7.85,7.85,0,0,1,526.37,792.79Z"/><path class="cls-51" d="M267.09,670c-.35,5.2-4.48,9.1-9.22,8.71-.26,0-.52-.06-.78-.1-4.59-.45-7.33-2.68-6.69-7.72s3.61-10.07,9.6-8C262.91,663.94,268.32,663.5,267.09,670Z"/><path class="cls-52" d="M360.91,694.35c-3.61-.89-7.51-2.61-7.16-6.37.64-6.38,5.82-9.12,11-10.27a4.92,4.92,0,0,1,6.31,3.5,6,6,0,0,1,.2,2.5C371.2,691,365.44,692.12,360.91,694.35Z"/><path class="cls-53" d="M447,596.75c-1,5.93-1.92,11-7.62,10.77-4.08-.07-7.33-3.75-7.27-8.22v-.07c-.35-5.92,4.31-8.35,8.26-9.3C445.53,588.65,445.94,593.94,447,596.75Z"/><path class="cls-54" d="M691.67,591c4.18,1.72,8.55,3.44,8.08,9.31.08,4.12-2.91,7.52-6.67,7.61a6.44,6.44,0,0,1-2.17-.34c-4-.64-8.14-1.92-7.27-7.34C683.87,595.43,687.28,591.5,691.67,591Z"/><path class="cls-55" d="M461.29,358.82c-1.22-4.46-7.79-8-2.62-13.45a12.25,12.25,0,0,1,9-3.63c5.47.76,5.23,6.37,5.47,11.15Z"/><path class="cls-56" d="M594.71,448.84c.64,6.38-2.38,8.86-7.44,8.86-3.62.36-6.81-2.56-7.14-6.52a8.5,8.5,0,0,1,0-1.13c-.4-6.37,2.56-8.22,7.74-8.29S594.83,444,594.71,448.84Z"/><path class="cls-57" d="M335.2,635.57c-.41,5.29-2.15,9.06-7,8.67s-7.15-4.4-7-10c0-4.4,1.57-7.14,5.82-7,3.95-.57,7.57,2.47,8.09,6.8A9,9,0,0,1,335.2,635.57Z"/><path class="cls-58" d="M448.9,649.47a12.57,12.57,0,0,1-9.24,9.18c-5.18.89-6.81-3.63-7.1-7.84a6.39,6.39,0,0,1,4.48-7.56,5.29,5.29,0,0,1,2.79.1C443.38,643.73,447.51,644.63,448.9,649.47Z"/><path class="cls-59" d="M642.23,513.93c-3.72,0-6.4-1.91-6.4-7.14s2.1-8.22,6.81-8,9.24,0,9.36,6.89S647.29,512.66,642.23,513.93Z"/><path class="cls-60" d="M428.31,581.57c-4.42-1.65-7.85-4.33-8.25-9.62-.81-4,1.48-7.94,5.11-8.83a6.35,6.35,0,0,1,1.05-.16c3.55-.81,7,1.69,7.77,5.59a7.38,7.38,0,0,1,.14,1.49A11.34,11.34,0,0,1,428.31,581.57Z"/><path class="cls-61" d="M341.6,605.29c0,4.85-2,8.29-6.52,8.54-3.88.6-7.46-2.37-8-6.63a8.12,8.12,0,0,1,0-2,6.38,6.38,0,0,1,4.52-7.53,5.21,5.21,0,0,1,2.63.07C338.63,597.83,341.6,600,341.6,605.29Z"/><path class="cls-62" d="M615,509.09c-1.39,4.21-1.63,9.5-7.27,10-4.3.38-7.62-.7-7.68-6.38s.47-9.63,6.52-9.69C610.65,502.9,614.49,503.22,615,509.09Z"/><path class="cls-63" d="M386.26,504.56c0,6.38-4.07,7.4-8.66,7.59s-6.34-4-6.69-8.16c-.52-7.08,5.35-6.38,9-7.08C384.93,495.83,386.21,499.91,386.26,504.56Z"/><path class="cls-64" d="M290.82,557.92c-4.42-.83-7.79-2.17-7.38-7.84s3.49-7.71,8.66-6.88c3.55.63,6.4,1,6.23,6.37S295.53,557.86,290.82,557.92Z"/><path class="cls-65" d="M284.31,681.35c-.93,2.87,1.92,9.94-5.82,8.73-4.59-.7-6.1-4.84-5.35-9.5s3.14-9.37,8.44-8.8S285,677,284.31,681.35Z"/><path class="cls-66" d="M356.6,460.89c5.24-.83,6.63,2.3,6.34,7.27.27,3.93-2.41,7.36-6,7.66a5.67,5.67,0,0,1-1.09,0c-4.31,0-7.8-1.79-7.45-7S351,459.87,356.6,460.89Z"/><path class="cls-67" d="M298.38,716.47c1.11,6.38-2.21,8.48-7.15,8.74-3.53.57-6.81-2.1-7.33-6a7.41,7.41,0,0,1-.06-1.49c0-4.78,3.2-7.2,7.51-7.71S298.91,710.48,298.38,716.47Z"/><path class="cls-68" d="M693.24,439.34c-6.4,0-7-6-8.32-10.64s2.56-5.74,5.82-6.38c5.81-.83,8.84,2.81,9.3,8.93S698,439.21,693.24,439.34Z"/><path class="cls-5" d="M526.66,446.35c4.72.45,7.74,2.62,7.62,7.78s-2.79,7.46-7.5,7.08-7.21-2.55-7.5-7.71C518.93,447.31,523.64,447.76,526.66,446.35Z"/><path class="cls-69" d="M367.3,594.52c-.33,4.35-3.82,7.58-7.79,7.21h-.12c-4.59,0-7.44-2.81-7.15-7.91s4.6-6.37,8.55-5.86S367.6,589.22,367.3,594.52Z"/><path class="cls-70" d="M314.15,669.55c-.43,5-4.31,8.67-8.84,8.48-4.95,0-4.31-4.52-4.95-7.9-1.16-5.87,2.27-7.53,6.4-8.16C311.82,661.2,313.33,665.09,314.15,669.55Z"/><path class="cls-71" d="M646.53,538.29c-.75,5.35-4.59,5.86-8.49,5.8-3.72.56-7.16-2.28-7.68-6.36a8.31,8.31,0,0,1,.06-2.44c.58-5.55,5.82-4.59,9.19-5.1C644.56,529.49,645.89,533.7,646.53,538.29Z"/><path class="cls-72" d="M257.56,527.7c5.29-.44,6.8,3.57,6.8,8s-.93,8.74-6.22,8.8-6.81-3-6.87-8S252.55,528.34,257.56,527.7Z"/><path class="cls-73" d="M585.87,394.14c2.5-4.21,4.19-10.33,10.3-8.35,5.06,1.66,5.23,6.38,4.36,11.54C595.24,400.2,588.84,407.08,585.87,394.14Z"/><path class="cls-74" d="M311.64,423.53c-3.95-.32-7.56-.57-7.67-6.69s3.2-6.76,7.33-6.95,7.67.64,7.73,6.37S316.12,423.66,311.64,423.53Z"/><path class="cls-8" d="M608.5,765.69c4.18.51,8,1.91,8.49,6.82a6.32,6.32,0,0,1-4.88,7.26,4.9,4.9,0,0,1-.94.08c-4.47-.1-8.3-3.56-9.25-8.36S605.47,766.33,608.5,765.69Z"/><path class="cls-61" d="M599.6,626.84c-4.42-.64-8-2.49-7.91-7.65s4.59-6.38,8.37-6.38,6.92.83,6.63,6C606.58,623.09,603.5,626.58,599.6,626.84Z"/><path class="cls-75" d="M610,592.6c-.53,4-2.1,8.55-5.41,8s-9.36-1.85-9.65-7.59c0-3.76,3.31-6.38,6.8-6.89,3.74-.84,7.4,1.8,8.18,5.9C610,592.24,610,592.42,610,592.6Z"/><path class="cls-76" d="M475.37,604.53a10.68,10.68,0,0,1-7.56,9.18c-4.89,1-6.58-3.13-6.87-7.59a6.32,6.32,0,0,1,4.88-7.26,4.9,4.9,0,0,1,.94-.07A8.33,8.33,0,0,1,475.37,604.53Z"/><path class="cls-15" d="M311.24,594.84c-5.29,0-7.39-3.83-7.5-9.19s1.16-8.16,6.51-7.39,6.86,4.59,6.57,9.82C316.59,592,315.89,595.41,311.24,594.84Z"/><path class="cls-77" d="M717.49,610.2c0,5.16-3,7.46-7.45,7.65s-4.65-4.21-4.53-7.84-.76-8.35,4.48-7.78C713.82,602.68,717.55,604.65,717.49,610.2Z"/><path class="cls-78" d="M458.56,787c0,5.67-3,7.14-6.63,6.75a9.05,9.05,0,0,1-7.56-8.35c-.82-5,2.91-6.37,6.28-6.76C456.12,778.25,457.92,782.71,458.56,787Z"/><path class="cls-79" d="M490.55,486.71c5.81-.64,6.39,3.44,6.69,7s-.47,8.73-5.82,8.73c-3.45.58-6.68-2-7.21-5.8C483.92,491,487.64,488.56,490.55,486.71Z"/><path class="cls-80" d="M605.94,400.64c-.7-6.37,1-12.75,7.44-11.92,9,1,4.36,9.18,4.42,14.73C613.79,402.81,609.14,405.17,605.94,400.64Z"/><path class="cls-36" d="M313.56,518.2a6.24,6.24,0,0,1-5.2,7,4.17,4.17,0,0,1-.61,0c-4,0-8.73-.77-9.13-5.49s3.54-7.2,7.85-7.71a5.83,5.83,0,0,1,6.95,4.82A6.9,6.9,0,0,1,313.56,518.2Z"/><path class="cls-81" d="M251.8,572.71c-3.78-.36-6.57-4-6.25-8.14,0-.22,0-.44.08-.66.35-5.41,3.78-6.88,7.91-7.07s4.83,4.33,5,7.78c.66,3.69-1.53,7.28-4.91,8A5.63,5.63,0,0,1,251.8,572.71Z"/><path class="cls-82" d="M502.3,465.29c0,5.61-3.26,7.2-7.27,7.78-4.95.76-5.3-3.13-5.36-6.95-.36-4.6,2.75-8.64,6.94-9a6.61,6.61,0,0,1,1.09,0C502.24,456.94,501.83,461.78,502.3,465.29Z"/><path class="cls-83" d="M537,701c-.41,4.66-2.21,8.16-6.92,7.78a6.1,6.1,0,0,1-5.88-6.31,7.73,7.73,0,0,1,.06-1c.29-4.34,3.53-7.75,7.5-7.9C536.14,693.46,536.9,697,537,701Z"/><path class="cls-84" d="M440.88,366a18,18,0,0,1-13.09-5.73c2.79-4.72,6.22-9.5,11.63-7.66s4.31,7.59,3.84,12.76A4.47,4.47,0,0,0,440.88,366Z"/><path class="cls-85" d="M380.22,400.2c-1.4-6.38,1.45-10.07,7.21-10.2,2.5,0,6.57,0,6.69,3.76,0,6.06-4,8.92-8.73,10.58Z"/><path class="cls-86" d="M411,423l.7-6.06c4.36,0,9.71-3.63,12.39,3.06a7,7,0,0,1-3.65,8.68l-.13.06C415.4,431.12,412.32,428.44,411,423Z"/><path class="cls-87" d="M356.72,406.57c-.93-5.54-2.68-12,4.88-13.13s6.64,5.16,6.75,10.26A12.12,12.12,0,0,1,356.72,406.57Z"/><path class="cls-14" d="M368.82,614.92c3.78,1.59,6.51,4.08,5.41,9.3-.7,3.06-1.69,7.85-4.42,6.76a11,11,0,0,1-7.22-10.58,5.6,5.6,0,0,1,5.74-5.54A3.86,3.86,0,0,1,368.82,614.92Z"/><path class="cls-88" d="M702.83,689.44c-.46,5.1-2.79,7.4-6.63,7.4a6,6,0,0,1-6.38-5.69,7.09,7.09,0,0,1,0-1.13,5.84,5.84,0,0,1,4.46-6.71,5.17,5.17,0,0,1,1.71,0A8.54,8.54,0,0,1,702.83,689.44Z"/><path class="cls-78" d="M548.24,720.24a5.75,5.75,0,0,1,4.41-6.63,4.12,4.12,0,0,1,.59-.07c4.6-.51,7,2.87,7.22,7.53a6.27,6.27,0,0,1-5,6.75C551,728.4,549.58,723.81,548.24,720.24Z"/><path class="cls-70" d="M423.49,602.42c-.76,4.34-2.1,8.35-6.75,8.23a5.19,5.19,0,0,1-5.24-5.21,4.33,4.33,0,0,1,0-.72c.35-4.28,2.38-8.23,6.69-8.29A6.14,6.14,0,0,1,423.49,602.42Z"/><path class="cls-89" d="M682.36,456.87c3.43,1.92,7.62,4,8.14,8.87,0,1.4-3.78,4.33-6.22,5-5.82,1.53-5.35-3.95-6.34-7.59S678.46,457.58,682.36,456.87Z"/><path class="cls-90" d="M664.33,487.09c3.49.77,7.56,2.94,8.32,6.89s-3.55,5.1-6.81,5.42a6,6,0,0,1-6.52-5.5,6.4,6.4,0,0,1-.05-.88C658.92,489.45,659.85,486.84,664.33,487.09Z"/><path class="cls-91" d="M408.54,314.71c.47-7.65,1.16-14-3.26-19.13-2.85-3.51-3.78-7.4.76-10.58a9.16,9.16,0,0,1,13.61,2c.14.21.28.42.41.63,2.85,3.77,6.22,8.48.81,11.93s-7.33,5.73-2,11.15c3.43,3.51,10.47,6.38,5.3,13.71a10.1,10.1,0,0,1-11.64,4.27C405.17,325.86,410.17,318.4,408.54,314.71Z"/><path class="cls-92" d="M528.93,352.57c-3.54,0-7.27-.82-7.79-3.95-1.51-9.88,5.12-19.7.35-30.28-.76-1.79,6.16-3.63,7.73,0a130.09,130.09,0,0,1,7.27,25.5C537.37,349.2,533.53,352.26,528.93,352.57Z"/><path class="cls-93" d="M423.37,253.57a42.34,42.34,0,0,0,11.28,6.37c8.15,1.66,10.82,7.27,8.38,14.6s-9.19,5-14.48,3a13.37,13.37,0,0,1-8.2-8.16C416.57,263.07,419.18,258.28,423.37,253.57Z"/><path class="cls-94" d="M647.46,373.74c-.4,7.14-3.43,10.52-9.07,11-4.65.38-8.78-.39-8.49-7.27,0-5.55,1-11.41,7.15-11.54C641.82,365.32,646.25,368.66,647.46,373.74Z"/><path class="cls-95" d="M445.36,322.48c4.88,2,8.84,5.36,9,11.1s-3.9,8.28-8.66,8-9.49-2.81-8.61-9.76A10.74,10.74,0,0,1,445.36,322.48Z"/><path class="cls-96" d="M482.93,314.83c-1.17,5.49-3.43,9.06-8.44,9.5s-9.07-.7-8.89-7c0-4.4.46-10.2,6.28-10.39A12.34,12.34,0,0,1,482.93,314.83Z"/><path class="cls-97" d="M498.63,322.67c-4.54-.51-8.32-2.23-9-8-.75-7.21,4.25-6.89,8.38-7.53s8.67,1.53,9.13,7.14S503.23,321.53,498.63,322.67Z"/><path class="cls-98" d="M315.89,346.2c-3.31,0-6.63.51-9.94.38s-5.82-3.12-5.47-7.39,1.45-9.18,5.35-10.08a7.74,7.74,0,0,1,9.42,5,51.71,51.71,0,0,1,.41,12.37Z"/><path class="cls-99" d="M461.18,291.37c-1.31,5.34-5.61,9.16-10.65,9.44-5.81,1.27-6.51-4.91-7-9.5-.35-3.19-1.68-8.67,4.25-6.89C452.51,285.83,458.73,284.68,461.18,291.37Z"/><path class="cls-100" d="M477.87,243.24c-.39,4.8-4.26,8.35-8.64,7.93a6,6,0,0,1-.61-.09c-4.54-.45-7.62-3-6.57-8.1.63-5,4.62-8.56,9.19-8.28S477.64,238.71,477.87,243.24Z"/><path class="cls-101" d="M363,307.57a6.34,6.34,0,0,1-4.75,7.35,5.37,5.37,0,0,1-2.58-.15c-4.24,0-9.3,0-9.89-6.38-.46-5.22,3.26-7,7.51-7S362.19,300.81,363,307.57Z"/><path class="cls-102" d="M315.66,346.52l2.73-.83c4.77-1.79,10.35-6.38,13.32,1.53a7.75,7.75,0,0,1-4,9.67,6.36,6.36,0,0,1-2.23.47c-7.21,1-10.82-2.81-9.54-11.16Z"/><path class="cls-103" d="M438.84,239.16c7.8,1.72,15.3,2.42,16.11,11.79.41,5.29-4.71,7.14-8.26,6.38C438.61,254.4,440.47,246.24,438.84,239.16Z"/><path class="cls-104" d="M314,368.64c4.25,1.21,7.5,3.44,7.62,8.29.44,3.7-1.94,7.09-5.32,7.57a5.71,5.71,0,0,1-1.89-.05c-3.72.32-7-2.71-7.26-6.79a8.18,8.18,0,0,1,0-1c-.19-4.22,2.77-7.81,6.62-8Z"/><path class="cls-105" d="M365.68,327.14c4.77,0,8.08,2.1,8.55,7,.8,3.81-1.36,7.61-4.84,8.49a5.48,5.48,0,0,1-1.27.18c-3.79.57-7.28-2.34-7.8-6.49,0-.21,0-.43-.05-.65C359.86,331.41,361.2,327.46,365.68,327.14Z"/><path class="cls-106" d="M398.83,282.45c.39,3.92-2.18,7.45-5.76,7.88a5.53,5.53,0,0,1-1.22,0c-5.41,0-5.53-4.84-5.82-8.48,0-5.1,3.49-7.26,7.62-7.14S398.94,278.56,398.83,282.45Z"/><path class="cls-107" d="M423.37,253.57c1.69,5.8-2.79,10.2-3,15.55-7.33,1.79-10.18-3.19-9.37-9.43C412,252.36,416.68,249.55,423.37,253.57Z"/><path class="cls-108" d="M397.26,336.45c-.05,3.69-2.82,6.65-6.19,6.6a5.72,5.72,0,0,1-1.49-.23c-5.47-.57-4.3-5.67-4.42-9.56s1.28-7.14,5.82-6C394.94,328,397.69,332.05,397.26,336.45Z"/><path class="cls-109" d="M375.16,273.52c4.59.45,5.29,4,5,7.78s-.82,7.84-5.82,7c-4-.53-6.89-4.46-6.51-8.86C368.18,274.54,372.19,274.61,375.16,273.52Z"/><path class="cls-110" d="M336.65,281.87c3.67.32,6.58,1.85,6.11,6.38a6.13,6.13,0,0,1-5.77,6.42,4.53,4.53,0,0,1-.74-.05A6,6,0,0,1,330,288.8a6.25,6.25,0,0,1,0-1.06C330,283.59,332.93,282.06,336.65,281.87Z"/><path class="cls-111" d="M355,261.22a8.09,8.09,0,0,1,6.17,7.46c.2,3.74-2.4,7-5.82,7.2-4.53.83-5.35-3.44-5.81-6.95S351.48,262.43,355,261.22Z"/><path class="cls-1" d="M365,420.58c-.38,0-.56-.23-.56-.7l.14-95.84a.62.62,0,0,1,.69-.7h15.51a.62.62,0,0,1,.7.7l-.14,79.36h28.78a.61.61,0,0,1,.7.69v15.79a.62.62,0,0,1-.7.7Z"/><path class="cls-1" d="M420.45,420.58c-.37,0-.56-.23-.56-.7l.14-96a.5.5,0,0,1,.56-.56h44.85c.37,0,.56.24.56.7v15.65a.5.5,0,0,1-.56.56H436.79V362h28.65a.5.5,0,0,1,.56.56l.13,15.79a.49.49,0,0,1-.55.56H436.79V403.4h28.79c.37,0,.55.23.55.69V420a.49.49,0,0,1-.55.56Z"/><path class="cls-1" d="M492.54,420.58c-.37,0-.56-.23-.56-.7V340.25H473.82a.62.62,0,0,1-.7-.7l.14-15.65a.49.49,0,0,1,.56-.56h53.09c.46,0,.7.19.7.56v15.65c0,.47-.19.7-.56.7h-18.3l.13,79.63c0,.47-.18.7-.55.7Z"/><path class="cls-1" d="M534.45,356.17v-8.66a7.77,7.77,0,0,0,5.94-2.65,9,9,0,0,0,2.44-6.29H535a.5.5,0,0,1-.56-.56V322.36a.49.49,0,0,1,.56-.55H550.8a.49.49,0,0,1,.56.55v16.21a17.39,17.39,0,0,1-2.38,8.94,17.65,17.65,0,0,1-6.22,6.36A15.82,15.82,0,0,1,534.45,356.17Z"/><path class="cls-1" d="M586.56,422a25.65,25.65,0,0,1-13.76-3.84,28.94,28.94,0,0,1-9.92-10.2,27.38,27.38,0,0,1-3.7-14v-6.43a.62.62,0,0,1,.7-.7h15.64c.38,0,.56.23.56.7v6.43a11.14,11.14,0,0,0,3.08,7.89,9.93,9.93,0,0,0,14.81-.07A11.25,11.25,0,0,0,597,393.9q0-5.17-6.71-8.95l-7-3.91q-4.76-2.66-8.94-5A29.38,29.38,0,0,1,563,364.77a31.37,31.37,0,0,1-3.7-15.3,26.55,26.55,0,0,1,3.77-14,28.05,28.05,0,0,1,10-9.85,26.82,26.82,0,0,1,27.1.07,28.06,28.06,0,0,1,9.92,9.92,26.63,26.63,0,0,1,3.71,13.9v11.45a.49.49,0,0,1-.56.56H597.6a.49.49,0,0,1-.56-.56l-.14-11.45a10.82,10.82,0,0,0-3.07-8,10,10,0,0,0-7.27-3.07,9.8,9.8,0,0,0-7.4,3.28,11,11,0,0,0-3.08,7.76,14,14,0,0,0,2,7.68q2,3.08,7.13,5.87c.46.28,1.37.77,2.72,1.47s2.82,1.49,4.4,2.37,3,1.66,4.26,2.31,2,1.07,2.31,1.25a33.36,33.36,0,0,1,11,9.57A23.3,23.3,0,0,1,614,393.9a27.87,27.87,0,0,1-13.63,24.38A26.45,26.45,0,0,1,586.56,422Z"/><path class="cls-1" d="M381.68,588.23c-.37,0-.56-.23-.56-.7V507.9H363a.62.62,0,0,1-.7-.7l.14-15.65A.49.49,0,0,1,363,491h53.09c.46,0,.7.19.7.56V507.2c0,.47-.19.7-.56.7h-18.3l.14,79.63c0,.47-.19.7-.56.7Z"/><path class="cls-1" d="M420,587.53l17.33-96A.65.65,0,0,1,438,491h20.26a.66.66,0,0,1,.7.56l16.63,96c.09.47-.1.7-.56.7H459.5c-.37,0-.61-.23-.7-.7l-1.54-10.19h-19l-1.53,10.19c-.1.47-.33.7-.7.7H420.52C420.15,588.23,420,588,420,587.53Zm21.1-25.14h13.41l-5.73-39.26L447.9,518l-.56,5.17Z"/><path class="cls-1" d="M492.47,588.23c-.37,0-.56-.23-.56-.7l.14-95.84a.62.62,0,0,1,.7-.7h15.51a.62.62,0,0,1,.69.7l-.14,79.36h28.78a.62.62,0,0,1,.7.7v15.78a.62.62,0,0,1-.7.7Z"/><path class="cls-1" d="M555.48,588.23c-.38,0-.56-.23-.56-.7l.28-95.84c0-.46.18-.7.56-.7H571.4c.37,0,.56.24.56.7V524.8l21.94-33.25a1.21,1.21,0,0,1,1-.56h16.07c.37,0,.47.19.28.56l-24.17,38.56,27.11,57.56c.18.38,0,.56-.7.56H596.41a.75.75,0,0,1-.84-.56L576.71,546.6l-4.89,7.68v33.25c0,.47-.19.7-.56.7Z"/><path class="cls-1" d="M381.26,755.89c-.37,0-.56-.24-.56-.7V675.55H362.54a.62.62,0,0,1-.7-.7l.14-15.64a.5.5,0,0,1,.56-.56h53.09c.46,0,.7.19.7.56v15.64c0,.47-.19.7-.56.7h-18.3l.14,79.64c0,.46-.19.7-.56.7Z"/><path class="cls-1" d="M442.17,755.89c-.28,0-.42-.19-.42-.56l.14-39.68-18.72-56.44c-.09-.37.05-.56.42-.56H439.1a.76.76,0,0,1,.84.56l10.34,37.58,10.47-37.58a.67.67,0,0,1,.7-.56H477.1c.37,0,.51.19.42.56l-18.86,55.88.14,40.24a.5.5,0,0,1-.56.56Z"/><path class="cls-1" d="M491.91,755.89a.62.62,0,0,1-.7-.7l.28-96a.49.49,0,0,1,.56-.56h26.82q12.86,0,20.33,7.82t7.47,21.24a35.69,35.69,0,0,1-3.91,17.18,29,29,0,0,1-10.2,11.18A25.39,25.39,0,0,1,518.87,720H508.25v35.21a.62.62,0,0,1-.69.7Zm16.34-52.81h10.62q4.47,0,7.76-4.27t3.28-11.1a13.44,13.44,0,0,0-2.93-8.94,10,10,0,0,0-8.11-3.5l-10.62.14Z"/><path class="cls-1" d="M562.74,755.89c-.37,0-.56-.24-.56-.7l.14-96a.5.5,0,0,1,.56-.56h44.85c.37,0,.56.23.56.7V675a.49.49,0,0,1-.56.56H579.09v21.8h28.64a.5.5,0,0,1,.56.56l.14,15.78a.49.49,0,0,1-.56.56H579.09V738.7h28.78c.37,0,.56.24.56.7v15.93a.5.5,0,0,1-.56.56Z"/></g></g></svg>