<svg xmlns="http://www.w3.org/2000/svg" viewBox="0 0 1464.96 473.65"><defs><style>.cls-1{fill:#f2eeef;}.cls-2{fill:#f1c9bb;}.cls-3{fill:#e6dfcc;}.cls-4{fill:#e6e1cd;}.cls-5{fill:#e6e0cf;}.cls-6{fill:#e5e0d1;}.cls-7{fill:#f1d9c0;}.cls-8{fill:#324d79;}.cls-9{fill:#1c3b6c;}.cls-10{fill:#cad2d6;}.cls-11{fill:#5a6e92;}</style></defs><title>nav</title><g id="Laag_2" data-name="Laag 2"><g id="Laag_1-2" data-name="Laag 1"><path class="cls-1" d="M3.38,471c-2.14,0-3.38.12-3.38-1.67Q.12,235.52,0,1.71C0,.28.42,0,2.91,0Q732.48.06,1462,0c2.5,0,3,.28,2.91,1.71V471Z"/><path class="cls-2" d="M1,189.24c0-3.16,1-5.93,4.43-4.88,2.31.71,3.66.92,5.38-.73,1.07-1,3.15-1.59,4-.82,4.71,4.28,9.34-.84,14.24-.42,5.73.48,12.56-1.61,18.74-3.35,5.55-1.57,10.43-4.61,16.15-6,7-1.7,12.67.56,17.82,5,5.57,4.86,11.29,9.78,18.92,11.19,2.66.43,3.34,1.86,3.34,4.25a74.74,74.74,0,0,0,.94,17.1c.88,3.74-.36,6.93-1.78,10.39-3.6,8.9-5.09,18.23-.61,27.23a134.49,134.49,0,0,0,20.07,28.25c6.54,7.43,11.43,15.42,11,26-.56,14.85-13.64,24.89-27.66,20.59-8.59-2.62-17-5.74-25.47-8.8-2.19-.81-4.9-1.69-6.12-3.43a8.59,8.59,0,0,0-6.39-3.5,21,21,0,0,1-14.35-8c-4.39-5.52-10.62-9.25-14.31-15.76-1.73-3.14-5.24-7-9.71-7-8.14.17-16-2.61-24.07-2.05-3.53.25-4.65-.9-4.65-4.53.11-13.4,0-26.79,0-40.18Q1,209.53,1,189.24Z"/><path class="cls-3" d="M500.74,346.28c0,11-.25,11.27-10.53,14.5-.61.2-1.19.44-1.8.64-10.53,3.5-20.87-1.32-27-9.67-4.86-6.58-9.32-13.39-16-18.65s-6.33-6.73.71-12.05a16.23,16.23,0,0,1,2.15-1.91c4.24-2.19,8.05-5.88,12.8-6.22,8.38-.58,16.83-.25,25.24-.14,4.79.08,11.41,5.3,12.42,9.44,1.43,5.85,2.92,11.68,2.08,16.62Z"/><path class="cls-4" d="M160.14,246.82c8.7,4.76,16.9,10.45,26.21,14.08,2.74,1.07,7,2.68,7,4.76-.16,3.35-4.68,2.72-7.44,3.58l-1.36.44c-16,4.56-31.61,4.06-46.47-4.32-3.49-1.95-6.29-4.61-6.81-8.67-1.5-12.87-2.42-14.08,11.85-14.79A36.44,36.44,0,0,1,160.14,246.82Z"/><path class="cls-5" d="M882.73,156a8.46,8.46,0,0,1,8,6.42,14,14,0,0,1,.3,2.74A13.6,13.6,0,0,1,877.54,179a89.48,89.48,0,0,1-14.15-1.2A14.85,14.85,0,0,1,853,170.81c-.78-1.18-1.91-2.87-.15-3.82,7.8-4.21,14.17-11.63,24.13-11.1A54.55,54.55,0,0,1,882.73,156Z"/><path class="cls-6" d="M729,356.59c.48,1.11.25,1.8-.92,2.17-5.32,1.68-8.91,6-13.35,8.95-5.93,4-8.16,3.75-12-2.14-2.75-4.15-4-8.69-1.28-13.49a14.32,14.32,0,0,1,12.44-7.84C718.24,343.2,726.6,351,729,356.59Z"/><path class="cls-4" d="M164.73,227.67c3.86-.15,7.9,4.15,7.9,8.53,0,4.9-3.36,7.66-9.84,7.66-3.66,0-5.42-2.2-5.42-7.31C157.29,232.13,160.88,227.82,164.73,227.67Z"/><path class="cls-7" d="M1304.68,403.16c-1-2.19-4.67-1.32-4.85-3.24-.55-5.72-5.11-9-7.36-13.68-6.77-14-13.52-27.95-16.12-43.5a9.55,9.55,0,0,0-1.68-2.83c-.76-1.9.69-2.83,1.91-3.22,5.27-1.62,9.25-5.1,13.56-8.34a29,29,0,0,0,9.54-11c2.29-3.63,3.24-7.84,5.32-11.67,5.06-9.29,11.22-18,14.6-28.23a49.71,49.71,0,0,1,6.22-12.82,138.19,138.19,0,0,0,18.23-37.35c.52-1.68.52-3.92,3.09-4.13.33,1.38-.68,3.25,1.45,4,1.7-4.67,2.65-5,6.74-2.39a11.6,11.6,0,0,1,4.76,5.14c.69,1.54,1.55,2.78,3.46,2.78,3.13-.12,4.25,2,4.48,4.51a10.34,10.34,0,0,0,5.72,8.8c4.54,1.88,7,5.69,10.09,8.65s6.87,5.11,9.54,8.51A174.32,174.32,0,0,0,1427.72,297a3.67,3.67,0,0,1,1.6,3.23c0,1.28-.19,2.78.94,3.58,7.24,5.15,10.83,13.39,16.42,19.67,9.33,10.46,12.76,23.16,16.41,35.46,2.59,8.75,1.2,18.89.13,28.45a48.06,48.06,0,0,1-5.82,17.83c-2.44,4.56-3,10.2-6.87,14.26a38.56,38.56,0,0,0-5.87,9.18,160.15,160.15,0,0,1-11.45,19.13c-2.8,3.83-5.32,7.88-7.84,11.9-.68,1.11-1.7,2.7.69,3.33,1.07.27,2.77-1.53,3,.74a4.5,4.5,0,0,1-2.25,4c-2.19,1.55-4.56,3-5.13,5.93-1.64-.88-3.2-2-3.55-3.69-1.18-6.12-6-9.76-9.9-13.58a138.81,138.81,0,0,0-30.52-21.72c-6-3.21-12.11-6.81-19.21-6.81-3.81,0-7-.51-9.74-3.57a15.46,15.46,0,0,0-8.42-4.17c-10-2.07-20-4.63-30.33-3.83C1309.16,411.46,1306.76,407.38,1304.68,403.16Z"/><path class="cls-8" d="M1318.7,352.75c-2.54-2.68-5-5.34-7.63-7.9a5.7,5.7,0,0,0-3.61-2.16c-7.07-.25-14.15-2-21.25,0a56,56,0,0,1-8.91,1.57c-5.49.63-11,1.87-16.57,1.24-8.45-1-11.64-6-8.93-14a16.17,16.17,0,0,1,4.24-7.39c6.5-5.41,10.22-12.93,15.41-19.34,5.63-6.94,5.53-7-2.1-11.33-4-2.29-4.58-4.4-1.91-8.47a9.14,9.14,0,0,0,2-5.74c-.86-9.58,5.28-16.57,9.8-23.63,3.78-5.89,3.93-10.84-.3-16.39-2-2.66-4.7-4.77-6.89-7.27-4-4.69-8.13-9.59-15.49-7.14-.08,0-.25-.28-.36-.28,2.69-7.66,9.9-10.56,15.43-15.31,4.42-3.81,9.54-6.56,14-10.22a17.07,17.07,0,0,1,8.72-4.24,207,207,0,0,1,50.36-.61c3.45.45,6.87,1.22,10.26,1.91,2.92.57,3.65,4,6.07,5,15.89,6.49,18.48,19.25,16.08,33.71-1.47,8.74-2.77,17.52-4.14,26.3a13.55,13.55,0,0,0-1.91,5.28c-2.82,11.39-8.89,21.39-14.4,31.46-3.7,6.73-8.09,13-10.76,20.35a85,85,0,0,1-6.58,13.7c-4.06,6.94-8.83,13.49-10.85,21.44a4.3,4.3,0,0,1-1.91,2.51C1323.07,357.36,1320.82,355,1318.7,352.75Z"/><path class="cls-9" d="M1320.87,364.29c-5.74,3.5-9.25,10.27-16.88,11a4.77,4.77,0,0,0-3.26,2.54c-19.4-.5-38.84,1-58.12-3a19.34,19.34,0,0,1-13.26-8.71,9.65,9.65,0,0,1-5.27-5.83c-.89-2.57-1.73-5.17-2.8-7.65a33.84,33.84,0,0,1-1.45-21.93c6.62-22.9,14-45.53,22.55-67.8a65,65,0,0,0,4.5-12.93,10.21,10.21,0,0,1,3.17-6.2,51.32,51.32,0,0,1,1.79-6.06c1.83-4.29-.42-10,4.5-13.2,3.64-2.07,7.8-3.29,10.87,0,4.31,4.63,8.76,9.12,13,13.79,3.8,4.17,5.73,11.48,2.71,14.35-4.6,4.45-4.94,10.92-9.06,15.3a11.5,11.5,0,0,0-2.88,9.26,11.2,11.2,0,0,1-1.45,7.81c-3.64,5.12-3.32,6.08,2.57,8.22,6.61,2.41,7.08,4.14,2.68,9.66-.4.5-.63,1.13-1,1.57-5.19,5.19-7.63,12.59-13.36,17.22a27,27,0,0,0-6.41,8.06c-4.19,7.38-1.39,13.67,6.49,14.44A64.66,64.66,0,0,0,1270,344c11-.56,21.52-4.76,33.09-3.08a21,21,0,0,1,12.48,6.45c3.32,3.15,5.55,7.94,11,8.49A14,14,0,0,1,1320.87,364.29Z"/><path class="cls-10" d="M1184.33,367.2a159.66,159.66,0,0,1-47.39-20.07c-8.48-5.21-18.75-9-22.72-19.73a3,3,0,0,0-1.66-1.62c-5.34-1.76-6.31-6.66-8.22-11a31.21,31.21,0,0,0-3.2-6.91c-7-9.09-8.28-19.76-8.28-30.61a193.4,193.4,0,0,1,1.41-28,106.94,106.94,0,0,1,10.44-32.84c2.21-4.39,4.61-8.65,6.52-13.22a56.86,56.86,0,0,1,18.39-23.86,15.52,15.52,0,0,0,5.17-5.51c3.11-6.43,8.94-9.09,15.26-10.25,14.46-2.66,27.81.78,40.48,8,7.84,4.52,13,12.59,21.82,15.76a7.89,7.89,0,0,1,3.47,3.83c2.37,4.63,6,8.15,8.93,12.28,8.15,11.6,18.35,22.1,20.41,37,.48,3.5,2.62,3.27,5.06,3.27-2.12,6.45-2.77,13.39-6.58,19.27a190.61,190.61,0,0,1-8.11-17.68,71.86,71.86,0,0,0-10.61-19.67c-5.15-6.27-10.38-12.49-15.26-18.92-6.81-9-15.47-15.8-24.26-22.52-3.68-2.79-8.43-3.61-12.5-5.83-6.85-3.75-14.25-1.91-21.48-1.66-1.08,0-1.91,1.11-2.69,1.91-6.18,6.41-12.91,12.32-18.18,19.53-3.7,5-8.29,9.49-9.53,15.8a18.22,18.22,0,0,1-3.29,7.79,57.67,57.67,0,0,0-8.85,19.49c-4,13.87-3.6,28.07-3,42.21.13,4.51-.4,9.1,2,13.58s4.54,9.13,6.81,13.68a27.06,27.06,0,0,0,11,12.24c10.11,5.47,18.8,13.11,28.88,18.52,21.38,11.5,43.62,18.23,68.06,11.14,2,4.64,3,9.7,6.71,13.52A96.41,96.41,0,0,1,1184.33,367.2Z"/><path class="cls-11" d="M1296.34,243c7-4.86,14-8.36,22.49-8.69a13.32,13.32,0,0,0,5.38-1.28c8.32-3.85,14.65.42,14.63,9.18s-.66,8.55,8.63,8.4c4.71-.06,8,4.36,6.06,8.19a16.52,16.52,0,0,0-1.37,7.34c-.06,1.53.53,3.31-1,4.44a5.36,5.36,0,0,0-1.57,6.51c2.62,7.44-1.56,13.22-4.59,19.13-2,3.9-3.7,3.63-6.62.25-1.66-1.82-2.31-4.44-5.48-4.82-7.3-.88-13.1,1-17.43,7.38a27.68,27.68,0,0,1-9.08,8.28,3.65,3.65,0,0,1-4.47,0c-1.64-1.58.52-2.62,1.32-3.36,5.11-4.84,5.11-13,11.14-17.22.74-.54,1-2,1.2-3.06,2.39-10.28-2.12-18.31-8.72-25.41-5.7-6.12-12.59-5.55-20.6-1.59A25.21,25.21,0,0,1,1296.34,243Z"/></g></g></svg>