<svg xmlns="http://www.w3.org/2000/svg" viewBox="0 0 1007.1 145.09"><defs><style>.cls-1{fill:#f2eeef;}.cls-2{fill:#f1d9c0;}.cls-3{fill:#304b79;}.cls-4{fill:#c8d1d6;}.cls-5{fill:#e6dfcb;}.cls-6{fill:#e6dfcd;}.cls-7{fill:#e9e8e8;}.cls-8{fill:#1a396b;}.cls-9{fill:#586e94;}.cls-10{fill:#eae8e9;}.cls-11{fill:#496083;}.cls-12{fill:#2f2e2e;}.cls-13{fill:#434142;}.cls-14{fill:#535152;}.cls-15{fill:#6a6969;}.cls-16{fill:#f1c9bb;}.cls-17{fill:#e6e0cd;}.cls-18{fill:#e6e0d0;}.cls-19{fill:#e5e0d1;}.cls-20{fill:#e6e0d1;}.cls-21{fill:#e6e1cd;}.cls-22{fill:#e4e2e3;}.cls-23{fill:#e3e1d2;}.cls-24{fill:#e0dfdd;}.cls-25{fill:#e2e0d3;}.cls-26{fill:#e6e2d8;}.cls-27{fill:#e6e1d6;}.cls-28{fill:#e1e0e0;}.cls-29{fill:#e5e0d2;}.cls-30{fill:#e1dfe0;}.cls-31{fill:#e5e2d6;}.cls-32{fill:#dfddde;}.cls-33{fill:#c5c3c3;}.cls-34{fill:#4e4c4d;}.cls-35{fill:#4b4a4a;}.cls-36{fill:#504e4f;}.cls-37{fill:#353333;}.cls-38{fill:#c8c6c7;}.cls-39{fill:#514f50;}.cls-40{fill:#686666;}.cls-41{fill:#4d4d47;}.cls-42{fill:#6e6c6d;}.cls-43{fill:#3f3d3e;}.cls-44{fill:#767474;}.cls-45{fill:#525151;}.cls-46{fill:#595758;}.cls-47{fill:#4d4b4c;}.cls-48{fill:#4a4949;}.cls-49{fill:#817f7f;}.cls-50{fill:#4f4d4d;}.cls-51{fill:#605c5e;}.cls-52{fill:#5a5959;}.cls-53{fill:#5e5c5c;}.cls-54{fill:#3e3c3c;}.cls-55{fill:#4f4e4e;}.cls-56{fill:#888687;}.cls-57{fill:#454344;}.cls-58{fill:#474545;}.cls-59{fill:#4d494a;}.cls-60{fill:#464445;}.cls-61{fill:#484748;}.cls-62{fill:#5b595a;}.cls-63{fill:#545152;}.cls-64{fill:#4a4848;}.cls-65{fill:#565454;}.cls-66{fill:#494747;}.cls-67{fill:#3d3a3b;}.cls-68{fill:#c5c3c4;}.cls-69{fill:#494749;}.cls-70{fill:#666465;}.cls-71{fill:#555454;}.cls-72{fill:#615f60;}.cls-73{fill:#4c4849;}.cls-74{fill:#484647;}.cls-75{fill:#383637;}.cls-76{fill:#4e4b4b;}.cls-77{fill:#515050;}.cls-78{fill:#656363;}.cls-79{fill:#585757;}.cls-80{fill:#777374;}.cls-81{fill:#605c5d;}.cls-82{fill:#494748;}.cls-83{fill:#5a5758;}.cls-84{fill:#333031;}.cls-85{fill:#575455;}.cls-86{fill:#4f4d4e;}.cls-87{fill:#4d4c4c;}.cls-88{fill:#191818;}.cls-89{fill:#504f4f;}.cls-90{fill:#383635;}.cls-91{fill:#4a4849;}.cls-92{fill:#3a3839;}.cls-93{fill:#272525;}.cls-94{fill:#413f40;}.cls-95{fill:#5b5959;}.cls-96{fill:#8a8889;}.cls-97{fill:#19171a;}.cls-98{fill:#414040;}.cls-99{fill:#1d1c1c;}.cls-100{fill:#59575a;}.cls-101{fill:#5a5859;}.cls-102{fill:#cbc9ca;}.cls-103{fill:#838182;}.cls-104{fill:#3c3b3b;}.cls-105{fill:#4c4b4c;}.cls-106{fill:#383636;}.cls-107{fill:#323131;}.cls-108{fill:#585657;}.cls-109{fill:#555354;}.cls-110{fill:#3b3a38;}.cls-111{fill:#797677;}.cls-112{fill:#4c4a4a;}.cls-113{fill:#3b393a;}.cls-114{fill:#777576;}.cls-115{fill:#585556;}.cls-116{fill:#464243;}.cls-117{fill:#3a3939;}.cls-118{fill:#5b5a5a;}.cls-119{fill:#545253;}.cls-120{fill:#555353;}.cls-121{fill:#3f3c3d;}.cls-122{fill:#646263;}.cls-123{fill:#3c3a3b;}.cls-124{fill:#686566;}.cls-125{fill:#636161;}.cls-126{fill:#4b494a;}.cls-127{fill:#474646;}.cls-128{fill:#090808;}.cls-129{fill:#5b5759;}.cls-130{fill:#585659;}.cls-131{fill:#1b191a;}.cls-132{fill:#444242;}.cls-133{fill:#545252;}.cls-134{fill:#2e2c2c;}.cls-135{fill:#383435;}.cls-136{fill:#615d5f;}.cls-137{fill:#393738;}.cls-138{fill:#6a6869;}.cls-139{fill:#535051;}.cls-140{fill:#5d5c5c;}.cls-141{fill:#6d6a6b;}.cls-142{fill:#817e7f;}.cls-143{fill:#4d4a4b;}.cls-144{fill:#3a3838;}.cls-145{fill:#525051;}.cls-146{fill:#464345;}.cls-147{fill:#424141;}.cls-148{fill:#3d3c3d;}.cls-149{fill:#2b292a;}.cls-150{fill:#343031;}.cls-151{fill:#353334;}.cls-152{fill:#626061;}.cls-153{fill:#565455;}.cls-154{fill:#535050;}.cls-155{fill:#343233;}.cls-156{fill:#272526;}.cls-157{fill:#1a1819;}.cls-158{fill:#4e4d4d;}.cls-159{fill:#2a2728;}.cls-160{fill:#504d4d;}.cls-161{fill:#2f2d2d;}.cls-162{fill:#464545;}.cls-163{fill:#3a3737;}.cls-164{fill:#828081;}.cls-165{fill:#161515;}.cls-166{fill:#504e4e;}.cls-167{fill:#292727;}.cls-168{fill:#4e4b4c;}.cls-169{fill:#363435;}.cls-170{fill:#2c2a2b;}.cls-171{fill:#1c1a1b;}.cls-172{fill:#2e2d2e;}.cls-173{fill:#121010;}.cls-174{fill:#2c2b2b;}.cls-175{fill:#2f2d2e;}.cls-176{fill:#0e0d0d;}.cls-177{fill:#4b494e;}.cls-178{fill:#302e30;}.cls-179{fill:#161415;}.cls-180{fill:#262324;}.cls-181{fill:#2a2828;}.cls-182{fill:#363434;}.cls-183{fill:#4d4b4b;}.cls-184{fill:#1e1c1d;}.cls-185{fill:#4b4949;}.cls-186{fill:#191718;}.cls-187{fill:#242222;}.cls-188{fill:#2b2a2a;}.cls-189{fill:#222021;}.cls-190{fill:#1d1b1c;}.cls-191{fill:#171616;}.cls-192{fill:#201d1d;}.cls-193{fill:#1c1b1b;}.cls-194{fill:#2a2829;}.cls-195{fill:#282727;}.cls-196{fill:#1c1a1a;}.cls-197{fill:#5e5c5d;}.cls-198{fill:#181616;}.cls-199{fill:#151415;}.cls-200{fill:#4c4a4b;}.cls-201{fill:#484646;}.cls-202{fill:#252324;}.cls-203{fill:#878585;}.cls-204{fill:#514f4f;}.cls-205{fill:#393838;}.cls-206{fill:#7d7b7c;}.cls-207{fill:#242324;}</style></defs><title>nav</title><g id="Laag_2" data-name="Laag 2"><g id="Laag_1-2" data-name="Laag 1"><path class="cls-1" d="M251.56,145.05H55.06a24.89,24.89,0,0,1,.57-6.44,5.85,5.85,0,0,1,1-1.06c.21-.22.52-.53.07-.76-.3-.14-.6.15-.86.34a2.39,2.39,0,0,1-2.29.84,2.21,2.21,0,0,1-1.41-1.7,2.37,2.37,0,0,1,.06-1.12,5.32,5.32,0,0,1,2.24-2.31,2.37,2.37,0,0,1,.7-.1c.73,0,1.72.77,2.12-.36.27-.77-.65-1-1.16-1.35-1.43-.93-2.93-1.8-3-3.81.3-1.54,2.23-2.74,1-4.62a4,4,0,0,1-.07-1c.08-1.54-.44-2-1.84-1.1-.67.41-1.33.56-1.93-.12a11.29,11.29,0,0,1-1.16-2.55,6.69,6.69,0,0,0-.56-1.55c-.64-1.4-1.7-1.13-2.8-.69a4.06,4.06,0,0,1-2,0c-1.21-.33-1.85.24-2.35,1.25a11.93,11.93,0,0,1-1.9,2.87c-.77.84-1.73,2-2.9,1.25s-.66-2,.06-3.06a3.37,3.37,0,0,0,1.17-3,3.49,3.49,0,0,0-1.21-2.59,3.22,3.22,0,0,1-.45-3.7c.54-1.26,1.65-.69,2.6-.58.63.07,1.53.33,1.58-.6,0-.77-.83-.59-1.36-.62-1.24-.08-2.55,0-3-1.57a3.19,3.19,0,0,1,0-1.11,2.6,2.6,0,0,1,2.64-2.13A3.93,3.93,0,0,0,42,99.5a16.58,16.58,0,0,0,1.62-2.8,4.15,4.15,0,0,1,.76-.86c2.13-1.1,3.7-.74,5,1.19A7.16,7.16,0,0,1,50.59,101a5.78,5.78,0,0,1-.82,2.86c-.35.45-.9.69-1.27,1.15.63,0,.66-.71,1.08-1,1.26-.81,2.41-1.7,2.48-3.39,1-1.53,2-1.42,3.14-.16.61.87-.65,2,.46,3,.8-.74.09-1.39.05-2a3,3,0,0,1,1.74-2.65c2.5-.56,4.08-1.94,4.12-4.68a2.86,2.86,0,0,1,.51-.92,2,2,0,0,0,.09-3.05c-.94-1.09-1.74-.25-2.51.37a3.21,3.21,0,0,1-1.31.64,3.43,3.43,0,0,1-2.21-.21c-.94-.59-.89-1.53-.84-2.45a5.05,5.05,0,0,0-.89-3.54c-.46-1.14-1.08-2.09-2.52-2a2.9,2.9,0,0,1-1.8-1.57c-.45-1.14-1.07-1.8-2.27-.8a11.84,11.84,0,0,1-4.65,2.08c-1.39.41-2.12,1.08-1.64,2.6a4.76,4.76,0,0,1-.85,2.47c-2.61.58-3.32,0-3-2.59,0-.48.25-1.14-.36-1.27s-.68.6-.93,1c-1.09,2.1.06,3.82,1,5.57.6,1.15,1.51,2.21,1,3.67a3.77,3.77,0,0,1-2.79,1.84,4,4,0,0,1-3.45-2.06,3.44,3.44,0,0,1-.4-1.75c0-1.2,1.82-1.21,1.62-2.52-.57-1-1.41-.75-2.25-.49-2.68.52-3.49-1.52-4.5-3.29-.3-1.17-.89-2-2.28-1.66A5.17,5.17,0,0,1,22.25,84c-1.12-.47-2.25-1.09-3.2.3a10.28,10.28,0,0,1-1.55,1.61c-1.7,1.54-2.49,3.2-1.12,5.45a11,11,0,0,1,1.2,4.53,12.31,12.31,0,0,0,3.7,7.65c1.48,1.48,2.4,3.18,1.67,5.37a19.46,19.46,0,0,0-1,2.22,31.34,31.34,0,0,0-2.23,5.07,5,5,0,0,0,0,2.46,2.24,2.24,0,0,1-.2,1.45c-.32.58-1.76.31-1.23,1.46s1.6.59,2.46.67a1.91,1.91,0,0,1,1.37,1.91c.1.6-.3,1.43.44,1.74s.84-.54,1.17-1a9.39,9.39,0,0,1,1.78-2.09,1.44,1.44,0,0,1,1.06-.06,1.48,1.48,0,0,1,.71.77,6.44,6.44,0,0,1,.15,1c.1.65.42,1.11,1.15,1s.76-.74.67-1.34a2.34,2.34,0,0,1,.09-1.23c.59-.95,1.59-1,2.54-1.23a2,2,0,0,1,.74.08,2.65,2.65,0,0,1,1.32,1.3,3.42,3.42,0,0,1,.16,1.82,7.61,7.61,0,0,1-.45,1.32c.1,2.53,1.58.36,2.32.68,4.37-.08,5.87,1,7,5a10.55,10.55,0,0,0,.45,1.67,5.94,5.94,0,0,1-1.47,7.4,4.7,4.7,0,0,1-3.3,1.37,2,2,0,0,1-1.51-1.14c-.37-1-.75-2.05-1.08-3.09-.16-1.15-.31-2.3-1.76-2.58a1.36,1.36,0,0,1-1-1.27c-.35-.63,1.62-1.93-.59-2-2.18,2.4-1.7,4.9-.33,7.45a2.55,2.55,0,0,1,.18.67,3,3,0,0,1-.72,1.88,2.81,2.81,0,0,0,0,2.13.78.78,0,0,1-.24.58h-3.5c-.44-.28-.84-.58-.81-1.18a4.63,4.63,0,0,1,.47-1.4c1.13-2.83.79-4.24-1.83-5.91-2-1.25-2.91-2.68-1.81-4.95.19-.6.85-1.33.16-1.8-1-.65-1.09.64-1.65,1-1.45,1.18-3.29.18-4.7.74s-.4,3.18-2.53,3.49a2,2,0,0,1-1.7-.55,2.1,2.1,0,0,1-.28-.65c-.13-.52.18-1.13-.34-1.63-.64.75.46,1.21.29,1.85.4,1.93-1.8,2.53-2.09,4.1-.2,1-.29,2,1.17,2,1.54-.62,1.09-2.78,2.64-3.38a1.65,1.65,0,0,1,.7,0c1,.44.82,1.62,1.38,2.34.59,1.13,2,1.13,2.77,2,.77,1.38,1.05,2.72-.34,3.91h-3c-.58-.45-.61-1.29-1.18-1.74-.79.39-.71,1.32-1.32,1.74h-8c-.24-.33-.22-1.07-.35-1.06-.57,0-.31.76-.65,1.06h-5Q.06,73.5,0,2C0,.08.6,0,2.14,0q36.21.08,72.42,0c1.24,2.46,1,5.18,1.17,7.78A53.51,53.51,0,0,0,82,29.5a17.51,17.51,0,0,0,8.6,8,8.24,8.24,0,0,1,2.08,1.37c5.43,4.47,11.56,5,18.11,3.21a6.52,6.52,0,0,0,2.06-.88c3.4-2.48,7.26-4.4,9.91-7.81,2.07-2.65,4.83-4.52,7.26-6.77a12.18,12.18,0,0,0,3.23-4.36c2-4.75,3.72-9.61,6.36-14.08A21.58,21.58,0,0,1,148.06.05h561.5c.37,1-.33,1.76-.81,2.49-2.55,3.88-3.23,8.34-4,12.76a1.49,1.49,0,0,0,1,1.79c2.92,1.36,5.78,2.81,9.22,2.27,1.54-.25,3.16,0,4.74-.08,4.57-.35,6.74-3.85,4.92-8-1.75-4-3.57-7.95-8.07-9.69-.6-.24-1.18-.69-.93-1.54q144.62,0,289.25,0c1.87,0,2.3.42,2.29,2.3q-.09,70.37,0,140.75c0,1.71-.33,2-2,2q-119.25-.08-238.5,0c-.72-1.14.16-1.9.71-2.66a33.52,33.52,0,0,1,5.91-6.4c2.44-2,2.37-2.91-.14-4.86-3.53-2.75-7.29-4.89-12.06-4.36a36.66,36.66,0,0,1-5.74,0c-7.21-.33-9.2,3.29-9.88,9.45-.22,2.06,0,4.16-.06,6.24a3.41,3.41,0,0,1-.74,2.57h-346a16.26,16.26,0,0,1-1.63-6.19c-.47-6.21-2.76-11.77-5.52-17.2-1-2-2.17-3.94-3-6A30.15,30.15,0,0,0,378.93,103a11.24,11.24,0,0,1-2.77-2.86c-3-5.13-8-5.89-13.22-5.7a31.46,31.46,0,0,0-22,9.94,1.7,1.7,0,0,1-.38.33c-7.66,4-10.93,11.8-15.91,18.11a23.16,23.16,0,0,0-5.25,11.45c-.25,2-1.54,2.87-3.6,2.14-1.7-1.54-1.57-3.73-1.89-5.7a8.92,8.92,0,0,0-1.84-4.48c-1.32-3.56-4.72-5-7.34-7.25s-5.63-4.09-8.38-6.22A8.58,8.58,0,0,0,292,111a110,110,0,0,0-29.34.4c-2.14.34-3.34,2.12-5.09,3-7.68,3.94-8.48,9.41-7.47,16.49.54,3.77.84,7.61,1.93,11.3A2.76,2.76,0,0,1,251.56,145.05Z"/><path class="cls-1" d="M392.56,145.05h-73c-.76-.88-.29-1.74.08-2.56,1.5-3.24,3-6.49,4.3-9.8,2.12-5.28,6.15-9.25,9.47-13.69a70.89,70.89,0,0,1,10.86-11.52,50.28,50.28,0,0,1,8.5-5.59c4.45-2.47,9.1-2.86,14-2.57a4.21,4.21,0,0,1,3,1c5.28,5.31,10.65,10.53,14.51,17,.22.36.58.69.61,1.08.23,3.42,2.55,5.85,4,8.7,2.54,4.94,3.65,10.32,4.32,15.8A2.42,2.42,0,0,1,392.56,145.05Z"/><path class="cls-2" d="M148.06.05c-1.66,1.58-3.28,3.21-5,4.75-2.77,2.51-4.22,5.91-5.59,9.18a77.35,77.35,0,0,0-3.5,8.47c-.63,2.24-2.49,3.58-4,5.24-1.89,2.11-4.42,3.36-6.22,5.64A27.39,27.39,0,0,1,110.13,43c-6.6,1.93-12.95.95-18.3-3.9-1.57-1.43-3.7-1.7-5.4-3.21C82.14,32.05,79.83,27.25,78,22c-2.54-7.12-3.24-14.51-3.42-22Z"/><path class="cls-3" d="M251.56,145.05c-.72-4.59-1.39-9.18-2.16-13.75-1.26-7.58.13-14.23,8.42-17.61,1.28-.52,1.66-2.33,3.18-2.64,1.79-.36,3.58-.76,5.39-1a108.37,108.37,0,0,1,26.63.34,8.54,8.54,0,0,1,4.32,2.19c2.33,1.89,5,3.34,7.32,5.33,2.88,2.49,6.69,4,8.09,8-.15.21-.4.45-.59.37-3-1.41-4.86.59-6.66,2.41a48.82,48.82,0,0,0-4.7,5.15c-2.18,3-2.15,5.46.12,8.33.66.83,1.55,1.63.64,2.83h-16.5c.64-2.82,4.14-4.92,7.54-4.55a15.43,15.43,0,0,0,2.88.48,4.56,4.56,0,0,0-1.58-3c-4.13-3.29-8.42-6.35-14.06-6.21-1.72,0-3.15-1-4.86-1-3.72-.07-4.65.74-4.69,4.38,0,.5,0,1,0,1.5-.44,3.11-1.13,3.71-3.7,3.26-3.45-.6-4.12-.06-4.22,3.46a3.3,3.3,0,0,1-.3,1.7Z"/><path class="cls-4" d="M392.56,145.05c-.65-7.87-2.16-15.46-7.15-21.91-.3-.38-.76-.82-.76-1.24,0-4.78-3.63-7.6-6.06-11-2.6-3.69-6.19-6.5-9.21-9.83-.38-.42-.67-1-1.35-1-4.27.48-8.4-.23-12.86,1.51-6.78,2.65-11.48,7.61-16.58,12.06a32.13,32.13,0,0,0-5.79,7.28,61.25,61.25,0,0,1-3.83,4.84,39.79,39.79,0,0,0-6,11.39c-.92,2.72-2.92,5-3.39,7.89h-1a12.81,12.81,0,0,1-2.5-9c1.28.05,2.41.13,2.66-1.71,1.08-7.81,6.44-13.31,10.71-19.37,1.52-2.16,3.44-4,4.68-6.43a4.11,4.11,0,0,1,1.82-2c4.27-1.47,6.78-5.26,10.4-7.58a30.8,30.8,0,0,1,22.3-4.84c3.31.56,6.36,2,7.94,5.39a8.24,8.24,0,0,0,2.73,2.87,29.69,29.69,0,0,1,9.61,12.5c1,2.32,2.22,4.47,3.3,6.7,2.65,5.44,5.17,10.94,5.39,17.18.07,2.11,1.44,4.06,1,6.28Z"/><path class="cls-5" d="M744.56,145.05c0-2.58.12-5.16,0-7.73a15.32,15.32,0,0,1,1.65-7.42,6.88,6.88,0,0,1,5.94-3.81c4.4-.16,8.82-.24,13.21,0,2.52.16,4.47,2.15,6.73,3.21.36.17.58.61.92.83,4.5,3,3.79,3.89-.26,7.28a25.19,25.19,0,0,0-6.16,7.61Z"/><path class="cls-6" d="M715.56.05c1.73,1.63,4.28,2,5.83,4a34.94,34.94,0,0,1,5,10c.7,2-3,5.79-5.75,6A52.91,52.91,0,0,1,710,19.89c-2-.28-3.78-1.95-5.82-2.66-.48-.17-.57-.78-.45-1.32,1.24-5.55,2-11.27,5.88-15.86Z"/><path class="cls-7" d="M53.57,127.12c.16,1.94,1.77,2.59,3.1,3.5A3.24,3.24,0,0,1,55.28,133l-.84.05c-1.5-.2-2.17.41-1.88,1.94v1c-1.09,1.29-.57,1.69.87,1.59a2,2,0,0,0,2-1.05c1.11.47.7,1.37.61,2.18-.12,2.14.19,4.35-1,6.33h-6.5c-.84-1.05-1.67-2.46-2.5,0h-2.5c-.36-1-.4-2.26-1.65-2.76-.33-.36-.63-.72-.36-1.25.05-.41,0-1,.19-1.2,3.83-3.75.35-7.18-.73-10.48-.68-2.09-3.45-1.79-5.51-1.83-.94-.34-2-.49-2.45-1.61l.53-.92c1.38-.56,2.18-1.47,1.84-3.06,2.61-.77,4.11-3,6.08-4.61.8-.13,1.32,1,2.25.53-.44-.89-1.87-.13-2.06-1.31a1.2,1.2,0,0,1,1.51-1.39,15.81,15.81,0,0,0,2.17.14c1.2.14,2.29.87,3.56.72.7.42.61,1.08.55,1.74-1.41,1.55,0,1.76,1,2.19.47.83,1,.28,1.55.1a5,5,0,0,1,2.46,1.4v1.21a4.72,4.72,0,0,1-1.06,1.89A1.7,1.7,0,0,0,53.57,127.12Z"/><path class="cls-8" d="M316.06,136l2.5,9h-17a2.68,2.68,0,0,0-.59-1.84c-3.34-4.32-3.5-6.29-.23-10.37a78.89,78.89,0,0,1,6.57-6.75c1.72-1.69,3.6-1.06,5.44-.13,2.6,1.67,1.43,4.65,2.38,6.91A26.23,26.23,0,0,1,316.06,136Z"/><path class="cls-9" d="M269.57,136.54c0-.41,0-.83,0-1.24,0-4.8,3.33-7,7.76-4.9a4.8,4.8,0,0,0,2.06.63c4.8,0,8.74,1.87,12.68,4.71,2.51,1.81,3.82,3.81,5.12,7-5-2.45-9-2-12.12,2.34h-12.5c-1.67-1.9-2-4.29-2.49-6.63A4,4,0,0,0,269.57,136.54Z"/><path class="cls-10" d="M19.56,145.05c.69-1.4.13-2.78-.07-4.16-.72-1.13-1.3-2.57-3.06-1.34-.75-.68,0-1.91-.91-2.52a2.22,2.22,0,0,1-.52-2.46c1.66-.17,1.56-1.39,1.56-2.57,0-1.49.58-2.32,2.09-1.38,1.35.84,2.55-.11,3.82-.08a2.41,2.41,0,0,1,2.09,1c-.79,2.24-.06,3.52,2.13,4.65,3.07,1.59,3.22,4.35.87,7.81-.76.52-1.92.05-2.5,1Z"/><path class="cls-11" d="M269.57,136.54c1.81,2.55,2,5.66,3,8.51h-10.5a5,5,0,0,1-.49-3.12c.16-2.64,1.8-3.75,4.35-3C269.06,139.87,269.31,139.71,269.57,136.54Z"/><path class="cls-10" d="M41.55,141l.5.9a4.8,4.8,0,0,1,0,3.11H31.56v-.57c.68-1,.69-1.79-.49-2.38.29-.57,1.06-.84,1-1.61.87-.72,1.68-1.51,2.48-2.31.65-.36,1.3-.76,2-.09.46,1,1.13,1.86,1,3-.21.4-.66.86-.27,1.26s.83-.12,1.23-.3Z"/><path class="cls-12" d="M14.06,145.05c0-.41-.05-.82,0-1.23.05-.87.24-1.74,1.33-1.74s1.31.82,1.28,1.73c0,.41-.05.83-.08,1.24Z"/><path class="cls-13" d="M46.06,145.05c-.33-.73-.84-1.45-.08-2.21a1.41,1.41,0,0,1,1.58-.25c1.18.45,1,1.49,1,2.46Z"/><path class="cls-14" d="M42.06,145.05c-.5-1-.82-2.08,0-3.11,2.62,0,2.08,1.55,1.51,3.11Z"/><path class="cls-15" d="M5.06,145.05c-.1-.76-1-1.41-.34-2.26a1,1,0,0,1,1.35-.18c1.36.78.44,1.62,0,2.44Z"/><path class="cls-14" d="M25.06,145.05c.25-1.78,1.4-1.33,2.5-1l.5,1Z"/><path class="cls-16" d="M1006.54,82.88c0,6.75-.08,13.49,0,20.24,0,2.19-.41,3.15-2.85,3-4.15-.28-8.19,1.08-12.37,1.08-2.27,0-4.11,2.09-5,3.73-1.86,3.37-5.11,5.22-7.35,8a10.76,10.76,0,0,1-7.49,4.23,4.54,4.54,0,0,0-3.53,2c-.47.73-1.66,1.07-2.58,1.41a145.14,145.14,0,0,1-14.78,5c-6.67,1.66-13.15-3.42-13.59-10.33-.37-5.8,2.24-10.2,5.86-14.31,4.12-4.68,8-9.54,10.66-15.25,2.06-4.51,1.28-9.15-.51-13.53-.78-1.9-1.5-3.63-1-5.67a31,31,0,0,0,.47-8.44c0-1.59.44-2.39,2.15-2.68,3.58-.59,6.35-2.86,8.88-5.2,3.6-3.35,7.6-4.57,12-2.5,5.21,2.44,10.87,3,16.27,4.58,2.34-2,4.82,2,7.22-.16a1.81,1.81,0,0,1,1.68,0,4.58,4.58,0,0,0,4.13.76c1.3-.37,1.69,1.36,1.68,2.75C1006.52,68.72,1006.54,75.8,1006.54,82.88Z"/><path class="cls-10" d="M41.65,117.39c-1.79,1.93-3.35,4.17-6.21,4.71-.45.65-.91,1.27-1.86,1a1.8,1.8,0,0,1-1.06-1.1,2.69,2.69,0,0,0-1.86-.71c.67.33,1.23.41,1.4.92l-2.6.92a2,2,0,0,1-2.34.48l-.65-.73c-.43-.39-.24-1.13-.86-1.5-.53.59.08,1.21-.05,1.78A2.42,2.42,0,0,1,24,125.05a4.69,4.69,0,0,1-2.45-.45,1.94,1.94,0,0,0-.94-2c-1.09-.86-.94-2-.65-3.11a3.35,3.35,0,0,0-.94-3.52c1.05-1.54.67-3.82,2.57-4.91.7-.52,1.93-.8.93-2.08a5.59,5.59,0,0,0-2.11-5.29c-2.82-2.4-3.32-5.8-3.89-9.17a6.93,6.93,0,0,0-.89-3.07c-1.95-2.45-.55-4.07,1-5.8.65-.71,1.8-1,1.92-2.17,1.1.65,2.21,1.09,3.37.1h2.62c.61.85,1.17,1.76,2.37,1.84,1.18,1.2,1.32,3.71,3.93,3.14a6,6,0,0,0,3,1c1,2-1.5,1.46-1.87,2.49a12.85,12.85,0,0,1-2,1.19c-1.05,0-1.14-1.25-2-1.57-.43-.17-1-.61-1.29-.1-.39.76.64.94.9,1.48.13,1.37-.46,2.66-.43,4-.16.36-.51.62-.59,1.09.62.09.5-.62.86-.79a1.83,1.83,0,0,1,2-.28,3.15,3.15,0,0,1,1.09,2.89c-.24.62-.79,1.13-.79,2,.87-.59.35-1.37.71-1.9,1.44-1.55.16-2.25-.95-3,0-1.24,1.4-1.89,1.36-3.16a1.29,1.29,0,0,1,1.6-.38,4.28,4.28,0,0,0,3.19,1.92c1-.21,2.12,0,3.34-.35-.12-.59-.91-.65-1-1.16-.07-2.43-2.29-3.92-2.7-6.23-.22-1.25-.7-2.42.77-3.2a2.13,2.13,0,0,1,2.43.49c-1.62,2.57.36,2.39,1.93,2.53.71-.28,1.77-.15,1.86-1.19.08-.74-.84-.86-1.27-1.29-.87-1.53-.39-2.38,1.25-2.9S46,81.33,47.46,80a22.66,22.66,0,0,0,3.11,1A3.28,3.28,0,0,0,52,82.53a2.54,2.54,0,0,0,2.42,2c1.49.27,1.5,1.44,1.64,2.6s-.52,2.4,0,3.59c.38,1.54,1.66,1.48,2.86,1.6,1.59,1.83,1.38,2.79-1,4.53-.6.33-1.61-.33-1.87.57s.71.9,1.18,1.27a.74.74,0,0,1,.32.56c-.53.7-1.45,1.13-1.54,2.15-.43.56-.68.14-1-.18-.91-1.35-1.8-1.86-2.65,0a1.77,1.77,0,0,1-2.41-.2c-.36-1.42-.48-3-1.57-4.08s-2.43-2.07-3.92-.41c-.57-.3-.68-1.49-1.71-.88-1.21,1.23-.07,2.63-.29,3.92-.55,2-1.58,3.29-4,3a1.81,1.81,0,0,0-2.12,1.58c-.73.24-1.39-.38-2.25-.15.7.55,1.64.26,2.22.83.46,1.86,2,1,3.07,1.16.66.1,1.53-.59,1.9.49a2.12,2.12,0,0,1-.16,1.91c-.5.72-1.28.66-2,.57-.24,0-.46-.17-.7-.22-.63-.11-1.45-1.15-1.84,0-.33,1-.64,2.63.32,3,2,.71,1.48,2.07,1.5,3.4a2.51,2.51,0,0,0-1.46,2.94,2.64,2.64,0,0,0-.26,2.61c2-.28,2.9-2,3.53-3.41.94-2.19,2.09-3.18,4.46-2.25A3.54,3.54,0,0,0,46,115a.29.29,0,0,1-.13.5c-1.26.5-3.35-1.23-3.83,1.41A.47.47,0,0,1,41.65,117.39Z"/><path class="cls-17" d="M905.37,101.33c2.3-1.7,5-2.49,7.45-3.84,3.24-1.82,6.51-3.62,9.71-5.54,4.22-2.53,8.83-3.69,13.84-2.48,1.56.38,2.2,1,2.22,2.66.12,7-4,11.45-11,11.94-2.38.17-4.75.61-7.12.9a23.6,23.6,0,0,1-10.26-1.5C908.54,102.93,906.41,103.38,905.37,101.33Z"/><path class="cls-18" d="M547.36,44.05c5.19-.17,8.58,3.6,12.63,5.87,1.09.61,0,1.64-.44,2.34-2.29,3.24-5.89,3.35-9.34,3.76a22.93,22.93,0,0,1-3,0c-4.71-.06-8-3.82-7.1-8.43.4-2.16,2.07-3.32,4.25-3.54A29.82,29.82,0,0,1,547.36,44.05Z"/><path class="cls-19" d="M596.56,77.19a3.27,3.27,0,0,1-1.1,3.19c-1.35,1-2.64,1.15-3.49-.56a38,38,0,0,1-4.4-18.39c0-1.55,1.13-2.72,1.64-4.1a1,1,0,0,1,1.21-.69,2.73,2.73,0,0,1,2.05,2c1.08,4.07,2.13,8.16,3.07,12.27A23.45,23.45,0,0,1,596.56,77.19Z"/><path class="cls-20" d="M621.8,35.05c-1.5,0-3-.06-4.48,0-1.67.09-3.28,0-4-1.75a5.07,5.07,0,0,1,.33-5.39c1.9-2.58,8-4.28,10-2s4.5,3.89,6.13,6.35c.93,1.4,0,2.73-1.78,2.79C626,35.1,623.87,35.05,621.8,35.05Z"/><path class="cls-21" d="M223.57,125.18a11.53,11.53,0,0,1-2.54,7.1c-1.64,2-3.77,2.34-5.71,1.13a4.61,4.61,0,0,1-1.94-5.86,61.57,61.57,0,0,0,2.45-6.51c.53-1.52,1.45-2.59,3.28-2.5a3.86,3.86,0,0,1,3.67,2.51A8.24,8.24,0,0,1,223.57,125.18Z"/><path class="cls-22" d="M495.07,103.05c-.95-2.39-3.34-3.06-5.68-1.65a1.23,1.23,0,0,0-.59,1.65c1.08,4,1.06,4-3.25,4a3.24,3.24,0,0,1-2.91-1,1.75,1.75,0,0,1-1.09-1.07,3.61,3.61,0,0,1,.9-2.9l1-.06c2.07.83,1.22-.59,1.11-1.43l0-.65c-.14-.51.09-.79.57-.92,1.5-.08,3.05.3,4.48-.48a3.39,3.39,0,0,0,2.64.44c-.49-.57-1.44-.31-1.68-1.07,2.7.34,4.12-2.53,6.72-2.64,1.06,0,.46-1.65,1.19-2.25.8.5,1.23,1.38,2,2,1.5.83,2.45,2.43,4.16,3a23.53,23.53,0,0,0-1.49,2.45,3.19,3.19,0,0,1-1,2.12,2,2,0,0,0-2.54,1,2.52,2.52,0,0,0-1.84.51A4.24,4.24,0,0,0,495.07,103.05Z"/><path class="cls-23" d="M548.56,15.66c0,3.17-2.07,4.94-5.61,4.89-2.49,0-4.54-3.33-4.36-7,.06-1.33,2.5-3.49,3.85-3.41C545.19,10.28,548.58,13.34,548.56,15.66Z"/><path class="cls-24" d="M499.56,58c-.24,1.27.48,2.22,1.08,3.2a10.44,10.44,0,0,0,1.93,2.36l1.09.5c.83.81.41,2,.88,2.91l.53.91a1.17,1.17,0,0,1-1.3,1.18c-1-.42-2.61.75-3.21-1,.71-2-1-1.62-1.95-2a8.45,8.45,0,0,0-3.45-.48,2.94,2.94,0,0,1-.66-2.51l1.19-.07c.44-.68,1.54-.57,1.83-1.47-.64-.87-1.81-.08-2.41-.87a4.38,4.38,0,0,0-.4-.62c-.57-.63-1.83-.78-1.54-2s1.26-1.45,2.25-1.69c.55-.13,1.12-.21,1.69-.31A9.23,9.23,0,0,1,499.56,58Z"/><path class="cls-25" d="M924.56,86.29c-.07,2.64-1,3.79-2.89,3.74-3.55-.09-5.23-1.47-5.11-4.18.1-2.14,2.12-4.31,4-4.3C922.7,81.55,924.62,83.84,924.56,86.29Z"/><path class="cls-26" d="M922.56,17c-1.61,0-3.25.34-3.83-1.4a4,4,0,0,1,1.64-4.59,3.84,3.84,0,0,1,2-.92c1.85-.07,3.91-.66,5.38,1,.78.9.09,1.89-.36,2.77C926.32,16,925,17.52,922.56,17Z"/><path class="cls-27" d="M592.55,7.69c-.07,2.18-2.8,5.65-4.67,6.18-1.27.37-1.86-.53-2.44-1.28-.85-1.1-1.4-2.39-.43-3.66C586.46,7,588.12,5.55,590.88,6,592.15,6.2,592.7,6.58,592.55,7.69Z"/><path class="cls-28" d="M476.56,92.56c-.45.64-1.44.83-1.49,1.82,0,.78-.27,1.52-1.2,1.56s-1-.76-1.27-1.31c-.53-1-.91-2.12-2.11-2.57a10.88,10.88,0,0,1-3.34.65c-.47-.57-.91-1.16-1.42-1.69s-1.44-.75-1-1.73a2.07,2.07,0,0,1,2-1.24,7.46,7.46,0,0,0,3.4-.46,36.92,36.92,0,0,0,4.26,1.91c.59,0,1.21,0,1.65.49C475.27,91,475.86,91.81,476.56,92.56Z"/><path class="cls-29" d="M696.14,38.05c-1.14-.3-3.08.78-3.71-.73s1.22-2.5,2.2-3.56a9,9,0,0,1,2-1.52c2.29-1.44,3.51-.91,4,1.69.07.4.16.81.27,1.21.59,2,0,3.06-2.26,2.92C697.83,38,697.08,38.05,696.14,38.05Z"/><path class="cls-30" d="M68.53,108c-3,0-4.65,2-6.35,4a8,8,0,0,0-3.09-2l-.53-1.57a3.06,3.06,0,0,0,1-2.94l1.57-1.7a1.76,1.76,0,0,1,2.38.13c1.71,1.62,4.25,1.54,6.05,3C69.49,107.62,69.46,108.27,68.53,108Z"/><path class="cls-31" d="M229.55,83.53c.12,1.87-.54,3.23-2.62,3-1.43-.19-3.73.19-3.32-2.44.26-1.66-.3-4.12,2.75-4C228.52,80.11,229.55,81.19,229.55,83.53Z"/><path class="cls-32" d="M57.54,96.55c1.18-1.12,3.21-2,1-4a1.93,1.93,0,0,1,0-2,3.86,3.86,0,0,0,.79-.56c.92-1.22,1.88-2.21,3.3-.63,1.25,1.39,1.58,2.81-.1,4.15-.27-.11-.49-.61-.75-.37s.13.57.28.85c0,3.63-.71,4.5-4.44,5.21l0-.15A2.15,2.15,0,0,1,57.54,96.55Z"/><path class="cls-33" d="M520.17,98.17c-1-1.27-1.65-2.47.25-3.57s3.72-.71,4.59,1a14.34,14.34,0,0,1,.57,1.35c-.39.74-.5,1.42.35,1.93-1,1.85-2.81,1.51-4.45,1.61A1.92,1.92,0,0,0,520.17,98.17Z"/><path class="cls-34" d="M19.05,115.94c1.87-.18,2.79.69,1.92,2.39-.75,1.47-.33,2.82-.33,4.24A2.5,2.5,0,0,1,17,121c-.08-.4.12-.81.33-.82,3.31,0,1.5-2.09,1.35-3.46A.74.74,0,0,1,19.05,115.94Z"/><path class="cls-10" d="M32,140.05a5.91,5.91,0,0,1,.44-8.51,2.6,2.6,0,0,1,1.1,2.54.91.91,0,0,0,1,1c.31.5,0,.9-.2,1.32C33.16,137.33,33.05,139,32,140.05Z"/><path class="cls-35" d="M473.58,30.39c-.42,1.05-.85,2-1.86,2.33a20.79,20.79,0,0,1-2.79.83c-.79.16-1.55-.08-1.65-1s.17-1.64,1.34-1.53a3.28,3.28,0,0,0,2.9-.92A1.37,1.37,0,0,1,473.58,30.39Z"/><path class="cls-36" d="M459,53.43c-.1.81-.5,1.42-1.18,1.5a16,16,0,0,0-3.61.65c-.58.21-1.11-.2-1.17-.92s.06-1.54,1.07-1.6a5.27,5.27,0,0,0,3.19-.88C458.35,51.4,458.79,52.59,459,53.43Z"/><path class="cls-37" d="M475.39,50.64c1,.92,2.26.72,3.65.49,1-.16,1.06,1.06.89,1.89s-.71,1.44-1.38.89c-1.09-.9-2.31-.65-3.49-.88a1.38,1.38,0,0,1-1.23-1.59C474,50.88,474.62,50.65,475.39,50.64Z"/><path class="cls-38" d="M10.57,138.07c.1-1.83,2.44-2.26,2.53-4.09.19-.17.35-.13.49.08l0,0a20,20,0,0,1,1.53,3.12c-1.19,1.07-.52,3.36-2.54,3.9A4.44,4.44,0,0,0,10.57,138.07Z"/><path class="cls-39" d="M27.12,123.56a3.54,3.54,0,0,1,2.34-.48c-.41,1,2,1.88.16,3A2.09,2.09,0,0,1,27,126C26,125.15,26.87,124.36,27.12,123.56Z"/><path class="cls-40" d="M53.57,127.12c-1.63-.28-3-.64-1-2.46.68-.64.89-1.76,2-2C57,124.74,54.24,125.7,53.57,127.12Z"/><path class="cls-41" d="M495.11,60.66a8.15,8.15,0,0,1,1.46-.27c.72,0,1.86-1.18,2,.57.15,1.36-.33,2.29-1.93,2.13-.33,0-.66-.06-1-.09C495.33,62.26,494.09,61.74,495.11,60.66Z"/><path class="cls-42" d="M509.17,75c1.8-.63,3.23-1.35,4.37.23.36.5.4,1.51-.3,1.77C511.49,77.61,510.56,76.24,509.17,75Z"/><path class="cls-43" d="M474.41,89.5c-2,.64-3.24-.38-4.26-1.91a9.18,9.18,0,0,1,2.59-.42C474.49,87.24,474.85,88,474.41,89.5Z"/><path class="cls-44" d="M59.09,110.11c2-.86,2.95-.12,3.09,2a1.58,1.58,0,0,1-2.27.79C58.62,112.25,58.78,111.2,59.09,110.11Z"/><path class="cls-45" d="M467.76,43.12c-.09,1-.33,1.85-1.5,1.91-.91,0-1.71-.29-1.66-1.34a2.52,2.52,0,0,1,2.14-2.12C467.81,41.28,467.42,42.58,467.76,43.12Z"/><path class="cls-46" d="M467.15,92.71a2.81,2.81,0,0,1,3.34-.65c0,1.36-.18,2.53-1.92,2.54C467.28,94.6,466.72,94,467.15,92.71Z"/><path class="cls-47" d="M453.88,80.35c-.62-1.11-2.3-1.95-.71-3.45a1.31,1.31,0,0,1,2.14.23C456.13,78.63,455.05,79.53,453.88,80.35Z"/><path class="cls-48" d="M460.61,68.63c-.12,1.62-.5,2.46-1.8,2.47-1,0-1.28-.63-1.37-1.44-.14-1.24.68-1.56,1.67-1.63C459.9,68,460.68,68,460.61,68.63Z"/><path class="cls-49" d="M489.92,66.35c-1.2,0-1.47-.68-1.38-1.65.08-.79.28-1.58,1.26-1.45s1.76.52,1.73,1.72S490.64,66.2,489.92,66.35Z"/><path class="cls-47" d="M490.49,37.52c.21,1-.08,1.49-1.21,1.54s-1.75-.33-1.72-1.48a1.47,1.47,0,0,1,1.65-1.65C490.38,35.92,490.57,36.57,490.49,37.52Z"/><path class="cls-50" d="M27,82c-.34-.12-1.55.14-1.21-1.18a2.08,2.08,0,0,1,2.11-1.7c.87.09,1.19,1,1.16,1.92C29,82.22,28.29,82.28,27,82Z"/><path class="cls-51" d="M499.09,30.34a1.41,1.41,0,0,1-1.33-1.67c.12-.78.43-1.65,1.6-1.51s1.37.91,1.44,1.74C500.9,30,500.08,30.27,499.09,30.34Z"/><path class="cls-52" d="M506.47,94.18c-.46.82-.9,1.85-2,1.85A1.38,1.38,0,0,1,503,94.39c.18-1.18,1-1.6,2.18-1.37C505.82,93.14,506.57,93.16,506.47,94.18Z"/><path class="cls-45" d="M469.44,37.44a2.73,2.73,0,0,1-.88,2.43c-.42.53-.9,1.52-1.67,1a2.53,2.53,0,0,1-1.33-2.24c.14-1.09,1.16-.62,1.81-.68a4,4,0,0,0,2.12-.47Z"/><path class="cls-53" d="M54.5,111.49c.16-.58-.19-1.42.8-1.26,1.14.18,2.07.73,2.14,2,.05.93-.66,1.34-1.46,1.31C54.59,113.51,54.64,112.37,54.5,111.49Z"/><path class="cls-54" d="M55.28,133c.16-1,.19-2,1.39-2.41.87.52,2.47.58,1.47,2.31C57.23,134.49,56.26,133.73,55.28,133Z"/><path class="cls-55" d="M465.2,81.12c1,0,1.6.52,1.56,1.52s-.72,1.42-1.67,1.41-1.57-.4-1.54-1.47S464.39,81.3,465.2,81.12Z"/><path class="cls-56" d="M475.17,81.33c.05.47-.61.8-1.58.77-.65,0-1.47.12-1.46-.87s.45-2,1.68-2.1C474.69,79.1,475,79.83,475.17,81.33Z"/><path class="cls-57" d="M480.36,75.71c.75.25,1.39.71,1.15,1.57A2.08,2.08,0,0,1,479.37,79c-.84,0-.78-.68-.76-1.25A1.9,1.9,0,0,1,480.36,75.71Z"/><path class="cls-58" d="M50.05,101l2.41.2c.55,2.54-1.06,2.83-3,2.81l0,0A7.08,7.08,0,0,1,50.05,101Z"/><path class="cls-59" d="M442.14,41.61c.84.15,1.4.6,1.4,1.46a1.61,1.61,0,0,1-1.68,1.73,1.28,1.28,0,0,1-1.28-1.51A1.87,1.87,0,0,1,442.14,41.61Z"/><path class="cls-60" d="M24.56,131.57c-.78-.18-1.69-.08-2.09-1,.31-.64-.38-1.74.83-2a2.07,2.07,0,0,1,2.12.85C25.93,130.25,25.52,131.11,24.56,131.57Z"/><path class="cls-47" d="M479.8,66.8a2.64,2.64,0,0,1-2,2c-.75.1-1.17-.87-1.14-1.63s.23-1.76,1.29-1.75A1.8,1.8,0,0,1,479.8,66.8Z"/><path class="cls-61" d="M41.07,85.07a1.76,1.76,0,0,1,2.35.58,1.24,1.24,0,0,1-.17,1.58c-.83.75-1.74,1.15-2.77.32Z"/><path class="cls-62" d="M16.43,139.55c-.11-1.29.47-1.81,1.73-1.57,1.79.35,1.45,1.69,1.33,2.91C18.19,141.1,17.05,140.91,16.43,139.55Z"/><path class="cls-63" d="M7.76,81.54c0,1-.77,1.28-1.47,1.35-1.14.13-1.52-.69-1.66-1.67S5.09,80,5.93,80A1.8,1.8,0,0,1,7.76,81.54Z"/><path class="cls-64" d="M55.11,101.2l1,.18c1,.7,1.48,1.62.68,2.69a1.26,1.26,0,0,1-2,0C53.7,103,54,102.05,55.11,101.2Z"/><path class="cls-65" d="M462.65,85c.11,1.3,0,2-1,2-1.17,0-1.46-.93-1.6-1.86-.16-1.13.58-1.48,1.49-1.49C462.71,83.65,462.62,84.62,462.65,85Z"/><path class="cls-66" d="M38.05,94l1.7,0c.61,0,.82.37.81,1a.92.92,0,0,1-.83,1c-1.36.18-2.74.4-4-.5C36.39,94.78,37.53,94.84,38.05,94Z"/><path class="cls-67" d="M512.51,91c-1.16.1-1.29-.66-1.38-1.4-.12-1.12.5-1.63,1.54-1.78s1.27.55,1.28,1.33A1.69,1.69,0,0,1,512.51,91Z"/><path class="cls-68" d="M32,140.05a4.19,4.19,0,0,1,2-4,2,2,0,0,1,.54,2.47,2.06,2.06,0,0,1-2.47,2A2.24,2.24,0,0,0,32,140.05Z"/><path class="cls-69" d="M514.55,61a13,13,0,0,1-.38,1.39c-.26.7-.15,1.82-1.41,1.54a1.48,1.48,0,0,1-1.14-1.43,1.63,1.63,0,0,1,1.56-1.83c.43-.08.92.22,1.39.35Z"/><path class="cls-34" d="M503.77,69.1l1.3-1.18a1.74,1.74,0,0,1,1.69,2,1,1,0,0,1-1.16,1C504.49,70.87,503.74,70.35,503.77,69.1Z"/><path class="cls-70" d="M490.14,26.09c.58.08,1.48-.22,1.32.87-.13.85-.22,2-1.43,1.92-.79,0-1.57-.36-1.55-1.5S489.31,26.16,490.14,26.09Z"/><path class="cls-69" d="M514.57,61.06a16.27,16.27,0,0,1,0-1.71c.08-.83.5-1.41,1.41-1.34a1.53,1.53,0,0,1,1.53,1,1.35,1.35,0,0,1-1,1.69c-.62.17-1.27.23-1.91.34Z"/><path class="cls-71" d="M450.41,79.26c-1.12,0-1.53-.66-1.6-1.58s.37-1.53,1.24-1.55c1.23,0,1.36,1,1.49,1.9S451.09,79.18,450.41,79.26Z"/><path class="cls-72" d="M34.56,138.5,34,136l.52-1c2.19,0,2.21,1.46,2,3.05Z"/><path class="cls-73" d="M68.53,108l1-1c1.22,0,2.13.4,2.08,1.85,0,.65-.26,1.17-1,1.17C69.34,110,68.73,109.25,68.53,108Z"/><path class="cls-74" d="M33.58,123.05c.76,0,.94-1.23,1.86-1,.51.7,1.41,1.31.8,2.33s-1.71.66-2.66.57Z"/><path class="cls-75" d="M499.56,58c-1.59.28-2.12-.73-2.45-2,.73-.76,1.49-1.69,2.6-.7S500.35,57.18,499.56,58Z"/><path class="cls-76" d="M60.78,84.15c1.1.18,2.12.46,2.17,1.5,0,.83-.93,1.12-1.65,1.12a1.52,1.52,0,0,1-1.65-1.48C59.59,84.41,60.32,84.32,60.78,84.15Z"/><path class="cls-77" d="M489.8,72.16c-.14,1-.53,1.8-1.61,1.85s-1.08-.83-1.12-1.57c-.05-1.08.71-1.35,1.59-1.45S489.83,71.38,489.8,72.16Z"/><path class="cls-78" d="M480.57,95.64c0,1.13-.52,1.46-1.3,1.28s-1.77-.6-1.6-1.79c.1-.69.43-1.32,1.29-1.11S480.55,94.83,480.57,95.64Z"/><path class="cls-79" d="M22,83.55c-.38.79-.67,1.71-1.76,1.75-1.25,0-1-1.31-1.61-1.85C19.78,82.44,20.93,81.46,22,83.55Z"/><path class="cls-80" d="M13.73,79.67c.08.82-.76,1-1.46,1.09-1.17.19-1.34-.73-1.46-1.57S11.17,78,12,78C13,78,13.54,78.45,13.73,79.67Z"/><path class="cls-81" d="M54.43,84.51a1.57,1.57,0,0,1-2.22.25c-.94-.65-.43-1.46-.2-2.23C53.88,81.9,54.79,82.43,54.43,84.51Z"/><path class="cls-82" d="M493.31,33.06a1.76,1.76,0,0,1,1.25,1.66,1.25,1.25,0,0,1-1.41,1.38,1.33,1.33,0,0,1-1.48-1.35A2,2,0,0,1,493.31,33.06Z"/><path class="cls-83" d="M482.45,102.1c.43,1.19-.34,2-.9,2.9-1.11-.26-2.18-.68-1.79-2.09S481.47,102.1,482.45,102.1Z"/><path class="cls-84" d="M465.51,33.41c-.18.78-.05,1.78-1.34,1.63a1.39,1.39,0,0,1-1.33-1.71c.15-1.08.93-1.45,2-1.37S465.41,32.87,465.51,33.41Z"/><path class="cls-53" d="M504,87c1,0,1.5.48,1.46,1.35s.11,1.73-1.15,1.76c-.94,0-1.36-.42-1.33-1.32S502.9,87.06,504,87Z"/><path class="cls-85" d="M449.34,71.9a1.27,1.27,0,0,1,1.25,1.48c-.1,1-1.08,1.32-1.8,1.45s-1.08-.72-1.1-1.38C447.67,72.45,448.32,72,449.34,71.9Z"/><path class="cls-86" d="M512.45,94.83c-.29.78-.72,1.35-1.64,1.28s-1.44-.69-1.35-1.69a1.08,1.08,0,0,1,1.33-1.11A1.62,1.62,0,0,1,512.45,94.83Z"/><path class="cls-87" d="M458.91,74.61c-.21,1-.69,1.61-1.65,1.63a1.27,1.27,0,0,1-1.39-1.4c0-.7.21-1.35,1.08-1.36A2,2,0,0,1,458.91,74.61Z"/><path class="cls-88" d="M498.61,66.06c1-.2,2-1.48,2.92,0,.64,1-.12,1.6-1,2C499.09,68.18,498.44,67.52,498.61,66.06Z"/><path class="cls-89" d="M522.37,87.84c0,1.62.35,2.93-1.33,3.21-.67.11-1.41,0-1.48-.87C519.42,88.27,521.22,88.82,522.37,87.84Z"/><path class="cls-90" d="M494.5,63.07c.3.82,1.3,1.45.66,2.51-.85.6-1.87,1.27-2.49,0C491.86,63.85,493.26,63.44,494.5,63.07Z"/><path class="cls-91" d="M476.51,73.74c-.91,0-1.48-.29-1.51-1.23a1.36,1.36,0,0,1,1.4-1.61c1-.05,1.6.37,1.63,1.38S477.34,73.65,476.51,73.74Z"/><path class="cls-64" d="M464.15,38.61c-.3.88-.78,1.6-1.74,1.53s-1.18-.91-1.12-1.67c0-.58,0-1.53,1.07-1.27C463.11,37.4,464.05,37.54,464.15,38.61Z"/><path class="cls-92" d="M490.55,97.93H494c-1.56,2.72-3.05,2.86-4.45.63Z"/><path class="cls-93" d="M469.49,37.49c.41-.71-.53-2,.92-2.23a1.81,1.81,0,0,1,2,.78.77.77,0,0,1-.18,1.11c-.85.53-1.7,1.49-2.76.29Z"/><path class="cls-94" d="M10.57,138.07c2.4-.17,2.8,1,2,3C10.14,141.21,10,139.86,10.57,138.07Z"/><path class="cls-91" d="M481.65,28.61c1,0,1.58.44,1.59,1.48s-.65,1.49-1.59,1.52-1.15-.75-1.2-1.54S480.61,28.57,481.65,28.61Z"/><path class="cls-95" d="M58.52,90.57a1.84,1.84,0,0,1,0,2c-.8.28-1.62,1.06-2.43.09-.5-.6-.8-1.29,0-1.93Z"/><path class="cls-96" d="M463.44,51.63c-.23.84-.7,1.4-1.55,1.38s-1.28-.66-1.26-1.5.4-1.39,1.13-1.38A1.83,1.83,0,0,1,463.44,51.63Z"/><path class="cls-97" d="M482.74,56.5c-.32.84-.62,1.72-1.81,1.58-.67-.08-1.45-.17-1.37-1a1.58,1.58,0,0,1,1.8-1.57C482,55.52,482.7,55.57,482.74,56.5Z"/><path class="cls-98" d="M509.07,97.77a1.35,1.35,0,0,1-1.2,1.6c-1.05.13-1.46-.61-1.47-1.53s.37-1.5,1.29-1.48A1.3,1.3,0,0,1,509.07,97.77Z"/><path class="cls-99" d="M474.56,46.19c2-.75,2.68.59,3.31,1.83a.88.88,0,0,1-.85,1.21C475.41,48.94,475.4,47.27,474.56,46.19Z"/><path class="cls-75" d="M63.51,104a4.92,4.92,0,0,1-2.38-.13c-.16-1.54-.17-3,2-2.84l-.07-.06A5.36,5.36,0,0,1,63.51,104Z"/><path class="cls-100" d="M508,57.21c.9.09,1.12.87,1.21,1.55.13.93-.56,1.31-1.39,1.34s-1.29-.61-1.33-1.43C506.45,57.67,507.32,57.57,508,57.21Z"/><path class="cls-101" d="M513.18,85.39c-1.28.73-2,2-3.24.82-.51-.5-.68-1.6-.09-2C511.33,83.16,511.77,85,513.18,85.39Z"/><path class="cls-102" d="M42.56,99.59c-1.24-1.49-1.63-3-.08-4.56.89.35,1.11,1.23,1.54,2C43.55,97.86,43.65,99.06,42.56,99.59Z"/><path class="cls-103" d="M51.51,112.13c-1.44-.79-2.61-1.37-2.25-2.94a1,1,0,0,1,1.42-.64C52.12,109.31,51.59,110.66,51.51,112.13Z"/><path class="cls-104" d="M474.13,102.64a1.42,1.42,0,0,1-1.58,1.37c-1,0-1.12-.83-1.06-1.62a1.29,1.29,0,0,1,1.43-1.34C473.91,101.05,474.16,101.67,474.13,102.64Z"/><path class="cls-105" d="M496.47,90c0-1.07-.73-2.44,1-2.77.91-.17,1.34.68,1.41,1.39.17,1.64-1.2,1.4-2.18,1.6Z"/><path class="cls-106" d="M21.58,124.6c1-.66,1.82-.7,2.45.45.13,1.11-.07,2.11-1.44,2C21,126.86,21.36,125.64,21.58,124.6Z"/><path class="cls-107" d="M36.46,104.86a16.8,16.8,0,0,1-2.21.25c-.73,0-1.65,0-1.53-1.14s1.07-1,1.92-1,1.24.77,1.85,1.18Z"/><path class="cls-108" d="M37.06,118.07a1.93,1.93,0,0,1-.83-2.29c.43-1.08,1.44-.72,2.29-.65C38.6,116.39,39,117.79,37.06,118.07Z"/><path class="cls-109" d="M489.06,75c1,0,1.64.15,1.55,1.11a2,2,0,0,1-1.75,1.82c-.69.09-1-.82-1.07-1.46A1.25,1.25,0,0,1,489.06,75Z"/><path class="cls-108" d="M13.55,98.48A1.41,1.41,0,0,1,12,100a1.28,1.28,0,0,1-1.35-1.2,1.53,1.53,0,0,1,1.21-1.67C13,97,13.12,98,13.55,98.48Z"/><path class="cls-39" d="M506.18,74.77c.8.11,1.46.46,1.4,1.37s-.88,1.12-1.62,1.12A1.19,1.19,0,0,1,504.69,76C504.69,75.15,505.34,74.8,506.18,74.77Z"/><path class="cls-60" d="M473.38,77A1.54,1.54,0,0,1,472,75.45,1.24,1.24,0,0,1,473.3,74a1.22,1.22,0,0,1,1.31,1.42A1.47,1.47,0,0,1,473.38,77Z"/><path class="cls-110" d="M502.57,63.6c-2.18.48-1.87-1.09-1.93-2.36.82-.22,1.72-.92,2.45-.05S502.74,62.78,502.57,63.6Z"/><path class="cls-70" d="M485.11,99l-.57.92c-1.37.05-2.58-.15-2.14-2a1.43,1.43,0,0,1,1.11-.83C484.61,97.2,484.83,98.19,485.11,99Z"/><path class="cls-82" d="M63.15,101.06c-.54-.79-1-1.62,0-2.37a1.3,1.3,0,0,1,1.63,0,1.56,1.56,0,0,1,.67,1.75c-.47,1.25-1.53.49-2.35.51Z"/><path class="cls-111" d="M503.4,38.46a1.79,1.79,0,0,1-1.92,1.15c-.9,0-1-.69-1-1.41,0-1,.55-1.28,1.45-1.22S503.22,37.62,503.4,38.46Z"/><path class="cls-82" d="M482.84,72.63c-.15.69-.22,1.45-1.26,1.43-.73,0-1.4-.22-1.33-1s.14-1.79,1.21-1.83C482.25,71.16,482.78,71.74,482.84,72.63Z"/><path class="cls-112" d="M520.46,71c-.8-.15-1.42-.46-1.43-1.39s.21-1.46,1.18-1.52a1.17,1.17,0,0,1,1.4,1.3C521.63,70.14,521.38,70.8,520.46,71Z"/><path class="cls-46" d="M468.26,70.54a1.22,1.22,0,0,1,1.25,1.39A1.29,1.29,0,0,1,468,73.22,1.13,1.13,0,0,1,466.83,72C466.88,71.18,467.2,70.54,468.26,70.54Z"/><path class="cls-113" d="M59.56,105.6c.76.42,1.34,1,1,1.92s-1.25.86-2,1C57.54,107.1,57.67,106.05,59.56,105.6Z"/><path class="cls-114" d="M460.8,65.16a1.63,1.63,0,0,1-1.41-1.6c-.06-1,.77-1.31,1.48-1.35,1,0,1.07.94,1.1,1.63A1.36,1.36,0,0,1,460.8,65.16Z"/><path class="cls-71" d="M482.41,36.52c-.6-.23-1.59-.14-1.49-1.19.07-.69.21-1.58,1.31-1.44.64.07,1.39,0,1.35,1C483.55,35.7,483.51,36.44,482.41,36.52Z"/><path class="cls-115" d="M526.93,88.32c-.63-.16-1.37-.3-1.24-1.18a1.6,1.6,0,0,1,1.57-1.29c.73-.08,1.31.31,1.18,1.15A1.49,1.49,0,0,1,526.93,88.32Z"/><path class="cls-116" d="M482.64,106.07a3.23,3.23,0,0,1,2.91,1c-.43,1-.91,2.09-2.27,1.58S482.57,107,482.64,106.07Z"/><path class="cls-39" d="M45.88,115.54,46,115c1.63-1.65,2.42-.78,2.92,1C47.67,117.47,46.67,117.16,45.88,115.54Z"/><path class="cls-117" d="M460.66,41.63c.07,1-.27,1.53-1.25,1.53s-1.33-.56-1.32-1.42c0-1.08.81-1.37,1.69-1.42C460.86,40.27,460.53,41.17,460.66,41.63Z"/><path class="cls-118" d="M13.59,134.06a1,1,0,0,0-.49-.08,8.82,8.82,0,0,1-1.17-.83c-.58-.56-.4-1.17,0-1.74a1.2,1.2,0,0,1,1.55-.3,1.08,1.08,0,0,1,.7,1.37A16.06,16.06,0,0,1,13.59,134.06Z"/><path class="cls-119" d="M27,85.4a1.45,1.45,0,0,1-1.9.52c-.91-.55-.69-1.49-.47-2.36C26.76,82.41,26.77,84,27,85.4Z"/><path class="cls-52" d="M466.06,78.41a1.74,1.74,0,0,1-1.6,1.61.93.93,0,0,1-1.11-1,1.76,1.76,0,0,1,1.69-1.8C465.69,77.16,466,77.78,466.06,78.41Z"/><path class="cls-120" d="M494.18,40A1,1,0,0,1,495.27,41a1.36,1.36,0,0,1-1.54,1.5c-.8,0-1.13-.55-1.16-1.29C492.53,40.28,493.12,40,494.18,40Z"/><path class="cls-13" d="M453.45,46.23a2.11,2.11,0,0,1,1.31,1.9,1,1,0,0,1-1.26,1.14,1.37,1.37,0,0,1-1.3-1.72A1.46,1.46,0,0,1,453.45,46.23Z"/><path class="cls-121" d="M517.79,52.48a1.51,1.51,0,0,1,1.4,1.49c.11,1-.64,1.34-1.39,1.43-.92.11-1.33-.49-1.31-1.39A1.35,1.35,0,0,1,517.79,52.48Z"/><path class="cls-85" d="M50.57,81.07c-1.42.82-2.53.68-3.11-1C49.46,78.29,49.82,78.41,50.57,81.07Z"/><path class="cls-122" d="M504.87,47.54c1.05,0,1.43.65,1.6,1.53s-.34.94-1,1c-1.1.2-1.54-.5-1.74-1.32S504.14,47.64,504.87,47.54Z"/><path class="cls-123" d="M56.06,138.72l-.61-2.18c.36-.71.81-1.3,1.73-1a1.34,1.34,0,0,1,.92,1.07c.2,1-.45,1.3-1.18,1.59A8.13,8.13,0,0,0,56.06,138.72Z"/><path class="cls-72" d="M492.63,94.69a1.32,1.32,0,0,1-1.51,1.23c-.81,0-1.17-.59-1.05-1.37a1.46,1.46,0,0,1,1.52-1.36C492.41,93.22,492.66,93.86,492.63,94.69Z"/><path class="cls-124" d="M513.11,56c-.89-.26-1-1-.94-1.74s.37-1.28,1.24-1.15a1.31,1.31,0,0,1,1.22,1.54C514.57,55.53,513.88,55.76,513.11,56Z"/><path class="cls-125" d="M448.69,55c.9,0,1.43.33,1.4,1.17s-.4,1.53-1.29,1.53a1.2,1.2,0,0,1-1.31-1.22A1.39,1.39,0,0,1,448.69,55Z"/><path class="cls-126" d="M52.56,135c-.81-.76-1.56-1.6-.49-2.63s1.67.15,2.37.69Z"/><path class="cls-127" d="M510.52,99.13c.69.07,1.37.37,1.46,1.09a1.48,1.48,0,0,1-1.22,1.65c-.92.18-1.33-.53-1.41-1.36S509.78,99.32,510.52,99.13Z"/><path class="cls-126" d="M496.71,90.17c0,.4-.08.81-.15,1.21-.13.66.1,1.58-1,1.65a1.14,1.14,0,0,1-1.24-1,1.39,1.39,0,0,1,.94-1.93,9.69,9.69,0,0,1,1.2-.2Z"/><path class="cls-128" d="M470.88,63.27s-1.11.87-1-.41c.1-.88.33-1.89,1.61-1.8,1,.08,1,.86,1.06,1.65C472.62,63.73,472.12,63.82,470.88,63.27Z"/><path class="cls-129" d="M440.41,65.82c-.21.67-.51,1.24-1.32,1.23a1.17,1.17,0,0,1-1.26-1.43,1.25,1.25,0,0,1,1.22-1.31C440,64.3,440.16,65.13,440.41,65.82Z"/><path class="cls-130" d="M482.36,67c-.66-.07-1.19-.39-1.24-1a1.5,1.5,0,0,1,1.47-1.67c.69-.08,1.05.39,1.05,1.08A1.67,1.67,0,0,1,482.36,67Z"/><path class="cls-131" d="M516.65,89.26c-.07-1.35-.86-2.47.51-3.1.7-.32,1.42-.08,1.63.93C519.16,88.93,517.53,88.38,516.65,89.26Z"/><path class="cls-103" d="M458,87.4c-.12.93-.55,1.59-1.54,1.53-.81,0-1-.76-1-1.42,0-1.09,1.06-1.17,1.76-1.3S457.8,86.9,458,87.4Z"/><path class="cls-60" d="M25.56,123.11a1.56,1.56,0,0,1-1.09-1.18,1.28,1.28,0,0,1,1-1.87c1.09-.29,1.15.67,1.23,1.37a5.77,5.77,0,0,1-.2,1.4Z"/><path class="cls-91" d="M50.51,120a2.57,2.57,0,0,0-.48.11c-1.05.37-2.1.41-2.38-.88s1.09-1.1,1.83-1.42Z"/><path class="cls-132" d="M32.56,84.58c0,.86-.36,1.46-1.24,1.46a1.36,1.36,0,0,1-1.38-1.41c0-.95.76-1.19,1.5-1.27S32.58,83.8,32.56,84.58Z"/><path class="cls-133" d="M507.06,85.53a1.44,1.44,0,0,1-1.45-1.4c-.07-.83.61-1.09,1.29-1.22a1.21,1.21,0,0,1,1.56,1.15C508.52,84.89,507.77,85.26,507.06,85.53Z"/><path class="cls-58" d="M54.52,121.45a2,2,0,0,1-2.46-1.4c.22-1.63,1.53-1.07,2.18-.78A1.25,1.25,0,0,1,54.52,121.45Z"/><path class="cls-134" d="M33.94,89.51c-1.57,1.4-2.56,1-3-1C32.26,87.79,33.55,87.27,33.94,89.51Z"/><path class="cls-135" d="M17,80.13c-.85.09-1.24-.33-1.17-1.15a1.32,1.32,0,0,1,1.44-1.36c.83,0,1,.71,1,1.42S17.78,80.19,17,80.13Z"/><path class="cls-136" d="M457.53,37.85a1.75,1.75,0,0,1-1.77,1.39c-.46,0-1.38,0-1.07-.88a2.13,2.13,0,0,1,1.75-1.54A1,1,0,0,1,457.53,37.85Z"/><path class="cls-137" d="M31.07,142.1c.91-.1,2.1-.61,2.4.71s-1.18,1.2-1.91,1.67C31,143.77,30.07,143.13,31.07,142.1Z"/><path class="cls-34" d="M459.51,79.58c.08-1,.83-1.19,1.58-1.17s1.16.36,1,1.09-.4,1.49-1.32,1.53S459.65,80.29,459.51,79.58Z"/><path class="cls-138" d="M470.49,81.33c0,.89-.67,1.08-1.29,1.14-1,.08-1.21-.64-1.23-1.46s.27-1.26,1.16-1.14A1.4,1.4,0,0,1,470.49,81.33Z"/><path class="cls-139" d="M520.17,98.17a1.43,1.43,0,0,1,2.25.65c.53,1-.42,1.22-.94,1.66C519.55,100.56,519.94,99.32,520.17,98.17Z"/><path class="cls-139" d="M445.66,71.64c-.14.58-.05,1.44-1,1.28-.72-.12-1.48-.5-1.35-1.41.09-.62.46-1.36,1.17-1.39C445.34,70.09,445.65,70.8,445.66,71.64Z"/><path class="cls-140" d="M485.47,85.14c.81.25,1.25.69,1.19,1.47a1.26,1.26,0,0,1-1.52,1.24,1.1,1.1,0,0,1-.93-1.48A1.44,1.44,0,0,1,485.47,85.14Z"/><path class="cls-85" d="M71.58,103.82c-.24.71-.53,1.41-1.52,1.26-.64-.09-1.22-.4-1.1-1.09a1.56,1.56,0,0,1,1.71-1.46C71.38,102.58,71.58,103.15,71.58,103.82Z"/><path class="cls-141" d="M495.07,103.05c1.64-1.66,2.43-1.07,2.64,1C496.15,105.49,495.48,104.62,495.07,103.05Z"/><path class="cls-142" d="M499.55,103.55c-.13-.83-.22-1.75.68-2.14s1.38.51,1.86,1.14C501.61,103.81,501,104.7,499.55,103.55Z"/><path class="cls-143" d="M484.56,100.61c.71.38,1.56.69,1.34,1.74-.12.57-.43,1.12-1.11,1.11-.88,0-1.27-.59-1.34-1.42S484,100.93,484.56,100.61Z"/><path class="cls-106" d="M500.42,95c-1.9.59-2.19-.43-2-2,.37-.74,1-1.39,1.74-.83C501.14,92.93,500.51,94,500.42,95Z"/><path class="cls-109" d="M476.56,92.56c-1.33.23-2-.44-2.05-1.69s.93-.76,1.55-.88C477.19,90.66,477.7,91.45,476.56,92.56Z"/><path class="cls-144" d="M504.74,56.79c-.09.81-.47,1.45-1.33,1.46a1.58,1.58,0,0,1-1.52-1.37c-.2-1.08.87-.93,1.48-1.07A1,1,0,0,1,504.74,56.79Z"/><path class="cls-145" d="M49.51,104.05c0,.85.58,1.87-.57,2.41-.65.31-1-.27-1.46-.67s-.6-.89-.25-1.33c.63-.76,1.52-.41,2.32-.37Z"/><path class="cls-146" d="M483.67,51.42c.1.79-.21,1.23-1,1.28s-1.39-.44-1.31-1.32c.06-.59,0-1.34,1-1.34S483.58,50.61,483.67,51.42Z"/><path class="cls-147" d="M492.8,76.47c-.93,0-1.25-.57-1.27-1.44s.26-1,1-1,1.48.14,1.46,1.14A1.23,1.23,0,0,1,492.8,76.47Z"/><path class="cls-60" d="M462.35,74c.77,0,1.28.27,1.26,1.13a1.26,1.26,0,0,1-1.19,1.33c-.8.1-1.23-.43-1.27-1.18A1.16,1.16,0,0,1,462.35,74Z"/><path class="cls-34" d="M488.36,89.31a1.07,1.07,0,0,1,1.19,1c.07,1-.61,1.51-1.51,1.6-.69.07-1-.43-1.06-1.1C486.94,89.88,487.59,89.54,488.36,89.31Z"/><path class="cls-126" d="M450.68,50.6c.17,1-.52,1.09-1.19,1.12s-1.39-.08-1.4-1a1.51,1.51,0,0,1,1.39-1.71C450.44,49,450.51,49.9,450.68,50.6Z"/><path class="cls-148" d="M501,73.29c-.78-.09-1.25-.49-1.11-1.32.11-.68.42-1.41,1.2-1.33a1.37,1.37,0,0,1,1.32,1.53A1.25,1.25,0,0,1,501,73.29Z"/><path class="cls-149" d="M481.57,82.52c-.06.74.23,1.52-.82,1.56-.87,0-1.15-.49-1.18-1.21,0-.89.28-1.76,1.24-1.77S481.3,82.13,481.57,82.52Z"/><path class="cls-150" d="M515,103.49a1.38,1.38,0,0,1,1.19,1.38c.08.77-.24,1.34-1.06,1.38a1.22,1.22,0,0,1-1.36-1.4A1.41,1.41,0,0,1,515,103.49Z"/><path class="cls-151" d="M38.55,85a2.31,2.31,0,0,1-2.43-.49c.05-.93-.2-2.14,1.35-1.94S38.63,84,38.55,85Z"/><path class="cls-152" d="M509.3,46.15c-.11,1-.84,1.12-1.48,1.1a1,1,0,0,1-1.09-1.33c.15-.62.5-1.27,1.39-1C508.83,45.06,509.31,45.45,509.3,46.15Z"/><path class="cls-153" d="M477.4,84.69a2,2,0,0,1-1.75,1.61c-.69,0-1.07-.33-1-1.09s.42-1.46,1.41-1.32C476.65,84,477.3,83.94,477.4,84.69Z"/><path class="cls-154" d="M479.77,109.32c-.78,0-1.31-.28-1.28-1.14a1.12,1.12,0,0,1,1.25-1.22c.77,0,1.33.23,1.32,1.11S480.48,109.2,479.77,109.32Z"/><path class="cls-155" d="M33.05,125.92a3,3,0,0,1,2.45,1.61c-.74.73-1.44,1.68-2.6.65C32,127.4,32.34,126.64,33.05,125.92Z"/><path class="cls-156" d="M504.54,67c-2.2-.39-.38-2-.88-2.91.71,0,1.52-.11,1.84.72C505.9,65.81,505.24,66.44,504.54,67Z"/><path class="cls-113" d="M18.6,107.64c.73.21,1.27.64,1.13,1.53a1,1,0,0,1-1.18.94,1.19,1.19,0,0,1-1.16-1.51A1,1,0,0,1,18.6,107.64Z"/><path class="cls-157" d="M458.05,58.58a1.11,1.11,0,0,1-1.32,1,1.19,1.19,0,0,1-1.13-1.34c0-.82.51-1.18,1.29-1.06A1.22,1.22,0,0,1,458.05,58.58Z"/><path class="cls-158" d="M5.59,115.05c.07-1.07-.54-2.73,1.63-2.07A1.1,1.1,0,0,1,8,114.32c-.47,1.37-1.62.59-2.5.68Z"/><path class="cls-119" d="M487.61,94.85A1.52,1.52,0,0,1,486.17,96c-.88,0-1.14-.6-1-1.35a1.13,1.13,0,0,1,1.42-1A1.15,1.15,0,0,1,487.61,94.85Z"/><path class="cls-12" d="M32.06,122.16c-.4,0-.81,0-1.21,0-.62-.06-1.42.13-1.69-.62-.18-.52.44-.78.77-1.11.76-.74,1.36-.18,1.87.32a5.68,5.68,0,0,1,.72,1.23Z"/><path class="cls-159" d="M515.41,44c-.18.74-.56,1.3-1.51,1.14-.55-.1-1.29-.06-1.16-.89a1.39,1.39,0,0,1,1.6-1.2C514.93,43,515.54,43,515.41,44Z"/><path class="cls-160" d="M69.53,98a1.88,1.88,0,0,1-1.42-1.52c0-.66.52-1.43,1.18-1.29a1.69,1.69,0,0,1,1.27,1.64A1.07,1.07,0,0,1,69.53,98Z"/><path class="cls-161" d="M525.21,68.9a1.5,1.5,0,0,1-1.64,1.16c-.74,0-1.06-.44-.9-1.1s.66-1.38,1.55-1.21C524.77,67.85,525.3,68.15,525.21,68.9Z"/><path class="cls-47" d="M14.55,108.23c0,1-.53,1.35-1.37,1.38-.6,0-1.22-.1-1.12-.9a1.68,1.68,0,0,1,1.4-1.5C14.1,107.11,14.45,107.64,14.55,108.23Z"/><path class="cls-162" d="M5,139.4c-.17.73-.38,1.25-1.12,1.21a1.19,1.19,0,0,1-1.27-1.43,1.09,1.09,0,0,1,1.32-1.1C4.72,138.19,4.76,138.92,5,139.4Z"/><path class="cls-163" d="M477.52,108.05a1.54,1.54,0,0,1-1.41,1.41c-.82.09-1.11-.52-1.12-1.26a1.09,1.09,0,0,1,1.14-1.28A1.28,1.28,0,0,1,477.52,108.05Z"/><path class="cls-164" d="M501.66,46a1.58,1.58,0,0,1-1.11-1.49c-.05-.75.43-1.06,1.1-1,.84,0,1.11.67,1.1,1.39A1.06,1.06,0,0,1,501.66,46Z"/><path class="cls-104" d="M517.16,94.79a1.67,1.67,0,0,1-1.37,1.51.93.93,0,0,1-1.18-.91,1.22,1.22,0,0,1,1.3-1.42C516.49,93.93,517.1,94,517.16,94.79Z"/><path class="cls-67" d="M22.55,109a2.11,2.11,0,0,1,1.73,1.89,5.14,5.14,0,0,1-2.66.19C21.66,110.21,21.28,109.21,22.55,109Z"/><path class="cls-165" d="M471.08,96c.64,1.34,1.55,2.22.36,3.26a.8.8,0,0,1-1.28-.19C469.33,97.81,470.36,97.12,471.08,96Z"/><path class="cls-166" d="M.54,135.53c.2-.46-.37-1.37.54-1.34a1.47,1.47,0,0,1,1.34,1.53A1.13,1.13,0,0,1,1.25,137C.1,137,.76,136,.54,135.53Z"/><path class="cls-117" d="M3.23,113.09c0,.93-.6,1.13-1.33,1.11S.48,114,.55,112.94c.06-.82.47-.9,1.12-.9C2.47,112,3.16,112.14,3.23,113.09Z"/><path class="cls-167" d="M527.58,82.16A1.57,1.57,0,0,1,526,83c-.68,0-1.12-.44-1-1.15s.51-1.32,1.33-1.14S527.35,81.49,527.58,82.16Z"/><path class="cls-88" d="M38.49,142.07c-.07.86-.22,1.73-1.34,1.65a1.39,1.39,0,0,1-1.23-1.35c-.12-1.2.75-1.25,1.61-1.26Z"/><path class="cls-168" d="M520.51,102.36c0,.74-.33,1.35-1.09,1.39s-1-.71-1.21-1.32a.89.89,0,0,1,.75-1.27A1.35,1.35,0,0,1,520.51,102.36Z"/><path class="cls-169" d="M53.44,137.59a1.5,1.5,0,0,1-2.27.44,1,1,0,0,1-.45-1.27c.34-.85,1.13-.75,1.85-.76Z"/><path class="cls-170" d="M491.82,81.53c-.61-.28-1.23-.57-1.19-1.36a1.11,1.11,0,0,1,1.18-1A1.17,1.17,0,0,1,493,80.41C493,81.06,492.32,81.26,491.82,81.53Z"/><path class="cls-46" d="M503.09,100.43C502,98.65,503,98.14,504.58,98,505.29,99.53,505.36,100.69,503.09,100.43Z"/><path class="cls-171" d="M470.91,47.8c-.74-.19-1.28-.53-1.26-1.32a1.11,1.11,0,0,1,1.25-1.18c.74,0,1.27.36,1.16,1.21A1.32,1.32,0,0,1,470.91,47.8Z"/><path class="cls-95" d="M497.69,74.34a1.49,1.49,0,0,1-1.32,1.48c-.8.18-.87-.5-.91-1.08s.14-1.38.89-1.53S497.53,73.58,497.69,74.34Z"/><path class="cls-172" d="M460.14,48.14a1.28,1.28,0,0,1-1.33-1.4c0-.74.73-.76,1.32-.74s1.43.15,1.26,1.06A1.41,1.41,0,0,1,460.14,48.14Z"/><path class="cls-173" d="M45.53,100.46a.9.9,0,0,1,1,1.07c0,.77-.38,1.31-1.21,1.15-.61-.12-1.48-.28-1.45-1S44.74,100.53,45.53,100.46Z"/><path class="cls-174" d="M15.08,137.14c-2.19-.22-1.65-1.77-1.53-3.12l1.45.55a2.26,2.26,0,0,1,.52,2.46A1,1,0,0,0,15.08,137.14Z"/><path class="cls-175" d="M487.64,55.14c-.07.77-.26,1.63-.92,1.61a1.45,1.45,0,0,1-1.25-1.59c0-.59,0-1.21.88-1.1C487.06,54.15,487.62,54.4,487.64,55.14Z"/><path class="cls-176" d="M508.44,81.25c-.76-.09-.91-.64-.86-1.26.06-.91.73-1,1.44-.93s1,.57.92,1.22C509.85,81.2,509.09,81.15,508.44,81.25Z"/><path class="cls-137" d="M33.56,134.08a2.6,2.6,0,0,1-1.1-2.54,1.45,1.45,0,0,1,2.08.43C35.05,132.91,34.33,133.58,33.56,134.08Z"/><path class="cls-75" d="M480.15,62.31a1.42,1.42,0,0,1-1.44-1.24c-.18-.81.4-1,1-1A1.08,1.08,0,0,1,481,61.19.93.93,0,0,1,480.15,62.31Z"/><path class="cls-177" d="M509,64.63c-.65-.43-1.27-.92-1.24-1.69a1,1,0,0,1,1.23-.87,1.13,1.13,0,0,1,1,1.4C509.87,64,509.65,64.57,509,64.63Z"/><path class="cls-178" d="M66.56,96c0,.68-.4,1.1-1.1,1s-1.09-.71-1.12-1.39.23-1.21,1-1C66,94.83,66.64,95.12,66.56,96Z"/><path class="cls-179" d="M453.22,89.77a2,2,0,0,1-1.29-1.43c-.2-.92.5-1.15,1.16-1.26s1,.4,1,1.07A1.82,1.82,0,0,1,453.22,89.77Z"/><path class="cls-180" d="M447.63,68.54c-.17.48.3,1.37-.62,1.33a1.49,1.49,0,0,1-1.33-1.3,1.25,1.25,0,0,1,1.13-1.41C448,67,447.44,68,447.63,68.54Z"/><path class="cls-181" d="M471.06,109c-.6-.16-1.12-.44-1.1-1.14,0-.86.75-1.09,1.37-1.12s1.22.32,1.08,1A1.34,1.34,0,0,1,471.06,109Z"/><path class="cls-182" d="M450.59,89.12a1.27,1.27,0,0,1-1.16,1.43c-.73.18-1.11-.22-1.08-.92a1.4,1.4,0,0,1,1.12-1.45A1,1,0,0,1,450.59,89.12Z"/><path class="cls-183" d="M58.08,123.72c-.74,0-1.15-.39-1.06-1.1a1.43,1.43,0,0,1,1.41-1.39,1.31,1.31,0,0,1,1.1,1.19C59.57,123.36,58.73,123.52,58.08,123.72Z"/><path class="cls-62" d="M493.26,52.81c-.14.91-.4,1.54-1.18,1.59a1,1,0,0,1-1.12-1A1.38,1.38,0,0,1,492.42,52C493.06,52,493.13,52.56,493.26,52.81Z"/><path class="cls-184" d="M44,97c-1.21-.1-1.14-1.21-1.54-2,.43-.57,1-1,1.66-.49s.59,1.27.42,2Z"/><path class="cls-185" d="M29.89,93c.24-1.39,1.18-1.26,2.18-1,.16.52.74.9.49,1.55l-1.49.61C30.26,94.21,29.88,93.82,29.89,93Z"/><path class="cls-186" d="M448.67,86.76c-.71-.11-1.14-.39-1.15-1.11s.53-1.18,1.23-1.24.9.34.91.92A1.33,1.33,0,0,1,448.67,86.76Z"/><path class="cls-173" d="M10.63,94.81a1.08,1.08,0,0,1-1.09,1.11.92.92,0,0,1-1-1.1c.07-.66.4-1.31,1.23-1.26S10.6,94.21,10.63,94.81Z"/><path class="cls-187" d="M526.51,73.46a1.55,1.55,0,0,1-1.41,1.12.77.77,0,0,1-1-.85,1.38,1.38,0,0,1,1.19-1.38C526,72.25,526.34,72.82,526.51,73.46Z"/><path class="cls-13" d="M497.48,45.48c-.14.47-.25,1.1-1,1.1s-1.06-.62-1-1.35.33-1.15,1.06-1A1,1,0,0,1,497.48,45.48Z"/><path class="cls-131" d="M484.84,28.15c-.62,0-1.22-.22-1.07-1a1.06,1.06,0,0,1,1.22-1c.54.1,1.21.28,1.12,1.07S485.47,28.13,484.84,28.15Z"/><path class="cls-188" d="M473.67,66.35a1,1,0,0,1,.95.94c.1.76-.13,1.33-1,1.33-.48,0-1.09-.06-1-.75A1.85,1.85,0,0,1,473.67,66.35Z"/><path class="cls-189" d="M490.27,85.48a1.31,1.31,0,0,1-1.27,1.1.84.84,0,0,1-.86-1c.07-.6.13-1.46,1-1.41A1.28,1.28,0,0,1,490.27,85.48Z"/><path class="cls-92" d="M62,94c-.95-.07-1.58-.55-1.59-1.52,0-.6.59-.83,1.07-.81,1.28,0,.93,1.08,1,1.85Z"/><path class="cls-190" d="M483.26,93.18a.79.79,0,0,1-1,.84A1.28,1.28,0,0,1,481,92.6c0-.71.61-.65,1.08-.67C482.88,91.89,483.15,92.47,483.26,93.18Z"/><path class="cls-184" d="M5.53,115c0,.79.44,1.68-.27,2.35-.36.33-.75,0-1.09-.27s-.71-.54-.59-1c.28-1,1.24-.89,2-1Z"/><path class="cls-189" d="M468.13,76.34c.07-.57.35-1,.92-1a1.1,1.1,0,0,1,1.19,1c.1.73-.55,1-1.07,1.1C468.44,77.57,468.37,76.81,468.13,76.34Z"/><path class="cls-191" d="M515.64,99.29c0,1-.32,1.46-1.12,1.47a.87.87,0,0,1-1-.89,1.27,1.27,0,0,1,1-1.45A.86.86,0,0,1,515.64,99.29Z"/><path class="cls-93" d="M481.63,42.46c.54,0,1,.23,1,.87a1.34,1.34,0,0,1-1.27,1.3c-1,.15-.77-.63-.79-1.15C480.5,42.76,480.93,42.44,481.63,42.46Z"/><path class="cls-192" d="M528.81,71.19A1.32,1.32,0,0,1,530,72.5a.84.84,0,0,1-.87,1,1.31,1.31,0,0,1-1.23-1.26C527.81,71.67,528.28,71.36,528.81,71.19Z"/><path class="cls-175" d="M501.62,50.7a1,1,0,0,1-1.18,1,1,1,0,0,1-.95-1.19c0-.52.16-1,.82-1A1.32,1.32,0,0,1,501.62,50.7Z"/><path class="cls-193" d="M525.93,98.87c-.88.26-1.76.19-1.9-.84s.84-1,1.55-1.09C526.24,97.49,526.09,98.18,525.93,98.87Z"/><path class="cls-194" d="M451,59.7c.54.17,1,.54.9,1.06a1.16,1.16,0,0,1-1.24,1,.82.82,0,0,1-.85-1A1.32,1.32,0,0,1,451,59.7Z"/><path class="cls-195" d="M15.92,117.08c-.22.57-.49,1.07-1.19,1s-.79-.47-.75-1,.35-1.12,1.08-1A.94.94,0,0,1,15.92,117.08Z"/><path class="cls-196" d="M464.35,95.31c-.77,1.09-1.71.85-2.8.49C462.29,94.09,463.21,94.22,464.35,95.31Z"/><path class="cls-197" d="M1.46,130.5c1.1.07,2-.36,2.63.54.1.15-.13.75-.33.84C2.74,132.33,2.05,131.89,1.46,130.5Z"/><path class="cls-198" d="M494.55,86.49c0,.65-.24,1.09-.79,1.1a1.16,1.16,0,0,1-1.22-1.22.77.77,0,0,1,.91-.86A1.12,1.12,0,0,1,494.55,86.49Z"/><path class="cls-199" d="M487,64.28c0,.63-.29,1.16-.75,1.23a1.18,1.18,0,0,1-1.23-1c-.17-.59.29-.94.75-1A1,1,0,0,1,487,64.28Z"/><path class="cls-200" d="M49.49,138.66c-.16,1-.6,1.48-1.5,1.41a1.44,1.44,0,0,1-1.41-1.66,1.2,1.2,0,0,1,1.4-1.33C49,137.15,49.21,138,49.49,138.66Z"/><path class="cls-43" d="M41.65,117.39l.4-.44c1-.25,2.12-.84,2.88.37a1.08,1.08,0,0,1-.63,1.61C42.82,119.53,42.31,118.3,41.65,117.39Z"/><path class="cls-201" d="M45.76,125c-.17.9-.66,1.28-1.43,1.19-1-.13-1-1-1-1.7a1,1,0,0,1,1.21-.92A1.25,1.25,0,0,1,45.76,125Z"/><path class="cls-202" d="M46.33,128.57a1.25,1.25,0,0,1,1-1.47c.88-.13,1.06.69,1.11,1.31a1.34,1.34,0,0,1-1.17,1.39C46.38,129.93,46.56,129.07,46.33,128.57Z"/><path class="cls-1" d="M29.89,93a2.23,2.23,0,0,0,1.18,1.14c1.3,1.92-.54,2.16-1.53,2.86h0a3.2,3.2,0,0,1-2,.52c-.46.1-.65,0-.5-.53-1-1.47-.15-2.7.5-4-.4-1,.26-1.46.87-2C29.55,91.25,29.38,92.39,29.89,93Z"/><path class="cls-203" d="M27.82,112.05c1.11.6,1.36,1.92,1.78,3.08a.64.64,0,0,1-.8.88,5.82,5.82,0,0,1-3-2.61C25.59,113,26.65,112.1,27.82,112.05Z"/><path class="cls-204" d="M25.42,102.59c-.2,1-.61,1.62-1.67,1.44-.83-.13-1.74-.41-1.81-1.38-.08-1.25,1.08-1.35,1.9-1.51C24.9,100.94,25.22,101.79,25.42,102.59Z"/><path class="cls-113" d="M30.55,117c-.09-1.26.92-1.46,1.76-1.61s1.15.67,1.24,1.43c.11,1-.37,1.43-1.28,1.3C31.57,118,30.47,118.35,30.55,117Z"/><path class="cls-205" d="M57.54,96.55a4,4,0,0,1,0,2.52A5.81,5.81,0,0,1,56.11,99a1.47,1.47,0,0,1-1-2.15C55.72,95.3,56.68,96.24,57.54,96.55Z"/><path class="cls-57" d="M35.8,109.45c0,1-.67,1.33-1.45,1.37a1.35,1.35,0,0,1-1.48-1.57c.09-1.09,1.22-.93,2-1.06C35.86,108,35.59,109,35.8,109.45Z"/><path class="cls-109" d="M29.54,97c1.34-.34,2.43.1,2.69,1.44.2,1-.6,1.63-1.72,1.56l.06,0c-.39-1-1.4-1.77-1-3Z"/><path class="cls-14" d="M28.43,91.09c.33.93-.46,1.36-.87,2-.85.09-1.67,0-2-.94A1.23,1.23,0,0,1,26,90.6C27,90,27.67,90.67,28.43,91.09Z"/><path class="cls-60" d="M25.26,105.49A1.51,1.51,0,0,1,26.54,107c0,.88-.61,1.08-1.34,1s-1.59-.28-1.48-1.21A1.42,1.42,0,0,1,25.26,105.49Z"/><path class="cls-109" d="M30.51,100c.26.87,1.41,1.56.61,2.66a.87.87,0,0,1-1.12.24c-.57-.26-1.37-.34-1.34-1.23.05-1.2,1.11-1.28,1.91-1.64Z"/><path class="cls-206" d="M48.55,89.76c0,.65-.35,1.17-1,1.1a1.47,1.47,0,0,1-1.36-1.49.91.91,0,0,1,1.06-1.05A1.28,1.28,0,0,1,48.55,89.76Z"/><path class="cls-34" d="M22.85,93.5A1.34,1.34,0,0,1,24.28,95a1,1,0,0,1-1.06,1.12,1.58,1.58,0,0,1-1.55-1.37C21.54,93.91,22.18,93.58,22.85,93.5Z"/><path class="cls-207" d="M27.06,97l.5.53c.09.74.69,1.66-.5,2a1.1,1.1,0,0,1-1.32-.84C25.41,97.63,25.86,97,27.06,97Z"/></g></g></svg>