<svg xmlns="http://www.w3.org/2000/svg" viewBox="0 0 3796.95 473.65"><defs><style>.cls-1{fill:#f2eeef;}.cls-2{fill:#f1c9bb;}.cls-3{fill:#e6dfcc;}.cls-4{fill:#e6e1cd;}.cls-5{fill:#e6e0cf;}.cls-6{fill:#e5e0d1;}.cls-7{fill:#f1d9c0;}.cls-8{fill:#324d79;}.cls-9{fill:#1c3b6c;}.cls-10{fill:#cad2d6;}.cls-11{fill:#5a6e92;}</style></defs><title>nav2</title><g id="Laag_2" data-name="Laag 2"><g id="Laag_1-2" data-name="Laag 1"><path class="cls-1" d="M8.75,471C3.2,471,0,471.12,0,469.33Q.3,235.52,0,1.71C0,.28,1.09,0,7.54,0Q1898.47.06,3789.39,0c6.48,0,7.73.28,7.54,1.71V471Z"/><path class="cls-2" d="M2.7,189.24c-.05-3.16,2.57-5.93,11.47-4.88,6,.71,9.5.92,14-.73,2.77-1,8.15-1.59,10.33-.82,12.21,4.28,24.23-.84,36.93-.42,14.84.48,32.54-1.61,48.56-3.35,14.38-1.57,27-4.61,41.87-6a109.42,109.42,0,0,1,46.18,5c14.44,4.86,29.27,9.78,49.05,11.19,6.87.43,8.65,1.86,8.65,4.25a30,30,0,0,0,2.42,17.1c2.28,3.74-.94,6.93-4.6,10.39-9.34,8.9-13.2,18.23-1.58,27.23,14.11,10.25,31.6,19.74,52,28.25,16.95,7.43,29.61,15.42,28.62,26-1.43,14.85-35.35,24.89-71.69,20.59-22.25-2.62-44.1-5.74-66-8.8-5.69-.81-12.71-1.69-15.87-3.43-3.9-2.06-10-3.34-16.57-3.5-14.69-.61-28.11-3.5-37.18-8-11.37-5.52-27.54-9.25-37.08-15.76-4.5-3.14-13.6-7-25.17-7-21.11.17-41.43-2.61-62.39-2.05-9.15.25-12.06-.9-12.06-4.53.29-13.4,0-26.79,0-40.18Q2.56,209.53,2.7,189.24Z"/><path class="cls-3" d="M1297.84,346.28c0,11-.65,11.27-27.3,14.5-1.58.2-3.06.44-4.64.64-27.3,3.5-54.09-1.32-70.06-9.67-12.61-6.58-24.18-13.39-41.58-18.65s-16.42-6.73,1.83-12.05a55.1,55.1,0,0,1,5.58-1.91c11-2.19,20.87-5.88,33.18-6.22,21.7-.58,43.61-.25,65.41-.14,12.41.08,29.57,5.3,32.19,9.44,3.71,5.85,7.56,11.68,5.39,16.62Z"/><path class="cls-4" d="M415.05,246.82c22.55,4.76,43.81,10.45,67.93,14.08,7.12,1.07,18.25,2.68,18.25,4.76-.4,3.35-12.12,2.72-19.29,3.58l-3.51.44c-41.33,4.56-81.92,4.06-120.44-4.32-9-1.95-16.31-4.61-17.65-8.67-3.9-12.87-6.28-14.08,30.71-14.79A217.81,217.81,0,0,1,415.05,246.82Z"/><path class="cls-5" d="M2287.91,156c9.82.11,18.25,2.73,20.62,6.42a6,6,0,0,1,.8,2.74c.21,7.54-15.4,13.71-34.87,13.79-12.29,0-24.56-.43-36.68-1.2-11.16-.68-21-3.22-26.85-6.95-2-1.18-4.94-2.87-.39-3.82,20.22-4.21,36.73-11.63,62.54-11.1Q2280.51,155.8,2287.91,156Z"/><path class="cls-6" d="M1889.51,356.59c1.23,1.11.64,1.8-2.37,2.17-13.8,1.68-23.09,6-34.61,8.95-15.38,4-21.17,3.75-31-2.14-7.12-4.15-10.29-8.69-3.32-13.49,6.2-4.71,18.58-7.72,32.24-7.84C1861.57,343.2,1883.23,351,1889.51,356.59Z"/><path class="cls-4" d="M427,227.67c10-.15,20.46,4.15,20.46,8.53.1,4.9-8.7,7.66-25.51,7.66-9.49,0-14-2.2-14-7.31C407.68,232.13,417,227.82,427,227.67Z"/><path class="cls-7" d="M3381.54,403.16c-2.67-2.19-12.12-1.32-12.56-3.24-1.44-5.72-13.25-9-19.09-13.68-17.55-14-35-27.95-41.78-43.5a14.3,14.3,0,0,0-4.35-2.83c-2-1.9,1.78-2.83,4.95-3.22,13.64-1.62,24-5.1,35.15-8.34,10.53-2.79,19-6.58,24.72-11,5.93-3.63,8.41-7.84,13.8-11.67,13.1-9.29,29.07-18,37.82-28.23,3.76-4.55,9.19-8.87,16.12-12.82,20.54-11.45,36.47-24,47.26-37.35,1.34-1.68,1.34-3.92,8-4.13.84,1.38-1.78,3.25,3.76,4,4.4-4.67,6.87-5,17.45-2.39,5.4,1.18,9.72,3,12.36,5.14,1.78,1.54,4,2.78,9,2.78,8.11-.12,11,2,11.62,4.51.45,3.76,6.12,7.13,14.83,8.8,11.77,1.88,18.1,5.69,26.16,8.65s17.8,5.11,24.72,8.51c25.47,12.81,55.42,24.19,89,33.81,2.76.72,4.33,1.95,4.15,3.23,0,1.28-.5,2.78,2.42,3.58,18.79,5.15,28.09,13.39,42.57,19.67,24.18,10.46,33.08,23.16,42.52,35.46,6.73,8.75,3.12,18.89.35,28.45-1.94,6.27-7.06,12.33-15.08,17.83-6.33,4.56-7.67,10.2-17.8,14.26a64.11,64.11,0,0,0-15.23,9.18,246.21,246.21,0,0,1-29.66,19.13c-7.27,3.83-13.8,7.88-20.33,11.9-1.78,1.11-4.4,2.7,1.78,3.33,2.77.27,7.17-1.53,7.72.74.05,1.64-2.18,3.16-5.84,4-5.68,1.55-11.81,3-13.3,5.93-4.25-.88-8.3-2-9.19-3.69-3.07-6.12-15.48-9.76-25.66-13.58a560.63,560.63,0,0,0-79.11-21.72c-15.43-3.21-31.4-6.81-49.79-6.81-9.89,0-18-.51-25.26-3.57a77,77,0,0,0-21.81-4.17c-25.9-2.07-51.71-4.63-78.61-3.83C3393.15,411.46,3386.92,407.38,3381.54,403.16Z"/><path class="cls-8" d="M3417.87,352.75c-6.57-2.68-13-5.34-19.77-7.9a25.31,25.31,0,0,0-9.35-2.16c-18.34-.25-36.68-2-55.08,0-7.57.76-15.29,1.29-23.08,1.57-14.24.63-28.43,1.87-43,1.24-21.9-1-30.16-6-23.14-14,1.9-2.8,5.69-5.35,11-7.39,16.86-5.41,26.5-12.93,39.95-19.34,14.58-6.94,14.33-7-5.44-11.33-10.48-2.29-11.87-4.4-4.95-8.47,3.39-1.63,5.22-3.65,5.19-5.74-2.22-9.58,13.7-16.57,25.42-23.63,9.79-5.89,10.18-10.84-.79-16.39-5.29-2.66-12.17-4.77-17.85-7.27-10.48-4.69-21.06-9.59-40.15-7.14-.2,0-.64-.28-.94-.28,7-7.66,25.66-10.56,40-15.31,11.47-3.81,24.72-6.56,36.19-10.22a85.91,85.91,0,0,1,22.6-4.24c43.28-2.25,87.11-2.46,130.52-.61,8.95.45,17.8,1.22,26.6,1.91,7.57.57,9.45,4,15.73,5,41.18,6.49,47.91,19.25,41.68,33.71-3.81,8.74-7.17,17.52-10.73,26.3-2.61,1.61-4.3,3.41-4.95,5.28-7.31,11.39-23,21.39-37.33,31.46-9.59,6.73-21,13-27.88,20.35a98.27,98.27,0,0,1-17.06,13.7c-10.53,6.94-22.89,13.49-28.13,21.44-.77,1.05-2.54,2-4.95,2.51C3429.2,357.36,3423.36,355,3417.87,352.75Z"/><path class="cls-9" d="M3423.51,364.29c-14.88,3.5-24,10.27-43.76,11-3.67.3-6.78,1.24-8.45,2.54-50.28-.5-100.66,1-150.65-3-14.14-.87-26.64-4-34.36-8.71-6.48-1.1-11.45-3.23-13.65-5.83a95.68,95.68,0,0,0-7.27-7.65c-7.52-7-8.85-14.66-3.75-21.93a648.21,648.21,0,0,1,58.44-67.8A51.38,51.38,0,0,0,3231.72,250c.78-2.38,3.68-4.57,8.21-6.2a37,37,0,0,1,4.65-6.06c4.75-4.29-1.09-10,11.67-13.2,9.44-2.07,20.22-3.29,28.18,0,11.17,4.63,22.69,9.12,33.77,13.79,9.84,4.17,14.83,11.48,7,14.35-11.92,4.45-12.81,10.92-23.49,15.3-5.9,2.51-8.63,5.9-7.46,9.26,1.26,2.69-.07,5.47-3.76,7.81-9.44,5.12-8.6,6.08,6.68,8.22,17.1,2.41,18.34,4.14,6.92,9.66-1,.5-1.63,1.13-2.72,1.57-13.45,5.19-19.78,12.59-34.61,17.22a59.09,59.09,0,0,0-16.61,8.06c-10.88,7.38-3.61,13.67,16.81,14.44,8.24.16,16.5.08,24.72-.23,28.63-.56,55.77-4.76,85.78-3.08,12.37.65,23.79,2.93,32.34,6.45,8.6,3.15,14.38,7.94,28.37,8.49C3436.21,359.28,3431,362.29,3423.51,364.29Z"/><path class="cls-10" d="M3069.6,367.2c-43.47-4.08-84.94-10.86-122.81-20.07-22-5.21-48.6-9-58.88-19.73a8.65,8.65,0,0,0-4.31-1.62c-13.84-1.76-16.36-6.66-21.31-11a34.32,34.32,0,0,0-8.3-6.91c-18.15-9.09-21.46-19.76-21.46-30.61a76.47,76.47,0,0,1,3.66-28c4.36-11.44,13.5-22.53,27-32.84,5.74-4.39,12-8.65,16.91-13.22,10.06-9.47,26.52-17.71,47.67-23.86a41.31,41.31,0,0,0,13.39-5.51c8.06-6.43,23.19-9.09,39.56-10.25a361.48,361.48,0,0,1,104.91,8c20.32,4.52,33.77,12.59,56.57,15.76,4,.85,7.19,2.2,9,3.83,6.13,4.63,15.63,8.15,23.14,12.28,21.11,11.6,47.57,22.1,52.91,37,1.23,3.5,6.77,3.27,13.1,3.27-5.49,6.45-7.17,13.39-17.06,19.27a207.4,207.4,0,0,1-21-17.68c-6.44-7.07-15.72-13.71-27.49-19.67-13.35-6.27-26.9-12.49-39.56-18.92-17.65-9-40.09-15.8-62.89-22.52-9.54-2.79-21.85-3.61-32.38-5.83-17.75-3.75-36.93-1.91-55.67-1.66-2.82,0-5,1.11-7,1.91-16,6.41-33.48,12.32-47.12,19.53-9.59,5-21.51,9.49-24.72,15.8-1.21,2.82-4.13,5.49-8.51,7.79-10.73,5.88-18.51,12.5-22.94,19.49-10.38,13.87-9.34,28.07-7.71,42.21.34,4.51-1,9.1,5.29,13.58s11.77,9.13,17.65,13.68c6,5.13,16,9.4,28.53,12.24,26.2,5.47,48.75,13.11,74.85,18.52,55.43,11.5,113.08,18.23,176.41,11.14,5.09,4.64,7.81,9.7,17.41,13.52A639.85,639.85,0,0,1,3069.6,367.2Z"/><path class="cls-11" d="M3359.93,243c18.14-4.86,36.29-8.36,58.29-8.69a82.81,82.81,0,0,0,13.94-1.28c21.56-3.85,38,.42,37.92,9.18s-1.73,8.55,22.35,8.4c12.21-.06,20.67,4.36,15.73,8.19-2.62,2.31-3.84,4.82-3.56,7.34-.15,1.53,1.38,3.31-2.67,4.44-5.14,1.53-6.82,4.24-4.06,6.51,6.77,7.44-4,13.22-11.91,19.13-5.15,3.9-9.6,3.63-17.16.25-4.3-1.82-6-4.44-14.19-4.82-18.94-.88-34,1-45.19,7.38-6.15,3.41-14.19,6.24-23.54,8.28a22.22,22.22,0,0,1-11.56,0c-4.26-1.58,1.33-2.62,3.41-3.36,13.25-4.84,13.25-13,28.87-17.22,1.93-.54,2.47-2,3.12-3.06,6.18-10.28-5.49-18.31-22.6-25.41-14.78-6.12-32.63-5.55-53.4-1.59C3338.09,251.12,3347.36,246.28,3359.93,243Z"/></g></g></svg>