<svg xmlns="http://www.w3.org/2000/svg" viewBox="0 0 6719.93 1095"><defs><style>.cls-1{fill:#f2eeef;}.cls-2{fill:#b7c2c9;}.cls-3{fill:#e6dfcc;}.cls-4{fill:#3d3b3c;}.cls-5{fill:#4c4b4b;}.cls-6{fill:#343333;}.cls-7{fill:#4a4848;}.cls-8{fill:#4e4d4d;}.cls-9{fill:#8b8a8a;}.cls-10{fill:#141313;}.cls-11{fill:#5b595a;}.cls-12{fill:#a2a0a0;}.cls-13{fill:#6e7073;}.cls-14{fill:#3d3e43;}.cls-15{fill:#4e4c4d;}.cls-16{fill:#5c5a5b;}.cls-17{fill:#605e5f;}.cls-18{fill:#4c4a4a;}.cls-19{fill:#605e5e;}.cls-20{fill:#4d4b4c;}.cls-21{fill:#5a585b;}.cls-22{fill:#8e8c8d;}.cls-23{fill:#444343;}.cls-24{fill:#323131;}.cls-25{fill:#373535;}.cls-26{fill:#454343;}.cls-27{fill:#393738;}.cls-28{fill:#535152;}.cls-29{fill:#878485;}.cls-30{fill:#3f3d3e;}.cls-31{fill:#4e4d4e;}.cls-32{fill:#716f70;}.cls-33{fill:#5d5c5c;}.cls-34{fill:#494748;}.cls-35{fill:#545253;}.cls-36{fill:#626061;}.cls-37{fill:#4b4849;}.cls-38{fill:#555354;}.cls-39{fill:#363334;}.cls-40{fill:#454344;}.cls-41{fill:#525051;}.cls-42{fill:#4d4c4c;}.cls-43{fill:#3c3b3b;}.cls-44{fill:#5c5b5c;}.cls-45{fill:#565455;}.cls-46{fill:#635f5d;}.cls-47{fill:#696768;}.cls-48{fill:#4d4b4b;}.cls-49{fill:#5f5c5d;}.cls-50{fill:#3f3c3d;}.cls-51{fill:#514f50;}.cls-52{fill:#2f2b2c;}.cls-53{fill:#5a5858;}.cls-54{fill:#3a3839;}.cls-55{fill:#605f5f;}.cls-56{fill:#5b5b63;}.cls-57{fill:#777575;}.cls-58{fill:#686667;}.cls-59{fill:#413f40;}.cls-60{fill:#535252;}.cls-61{fill:#403e3f;}.cls-62{fill:#343233;}.cls-63{fill:#363434;}.cls-64{fill:#4a4949;}.cls-65{fill:#514e4f;}.cls-66{fill:#837f80;}.cls-67{fill:#4b494a;}.cls-68{fill:#2b2728;}.cls-69{fill:#3e3c3c;}.cls-70{fill:#504f4f;}.cls-71{fill:#151314;}.cls-72{fill:#2d2b2c;}.cls-73{fill:#666263;}.cls-74{fill:#4e4f4f;}.cls-75{fill:#141112;}.cls-76{fill:#1f1e1e;}.cls-77{fill:#504e4e;}.cls-78{fill:#262424;}.cls-79{fill:#171516;}.cls-80{fill:#2a2829;}.cls-81{fill:#242627;}.cls-82{fill:#555152;}.cls-83{fill:#141212;}.cls-84{fill:#646263;}.cls-85{fill:#17191e;}.cls-86{fill:#1f2022;}.cls-87{fill:#131213;}.cls-88{fill:#424142;}.cls-89{fill:#121010;}.cls-90{fill:#0a0a0a;}.cls-91{fill:#1e1c1c;}.cls-92{fill:#494f54;}.cls-93{fill:#62656a;}.cls-94{fill:#8a9196;}.cls-95{fill:#555b60;}.cls-96{fill:#2d2f37;}.cls-97{fill:#31333c;}.cls-98{fill:#202329;}.cls-99{fill:#4e575c;}.cls-100{fill:#31363a;}.cls-101{fill:#424a51;}.cls-102{fill:#090e13;}.cls-103{fill:#181f27;}.cls-104{fill:#333c42;}.cls-105{fill:#282d33;}.cls-106{fill:#475156;}.cls-107{fill:#293035;}.cls-108{fill:#0a1016;}.cls-109{fill:#495157;}.cls-110{fill:#181b21;}.cls-111{fill:#444e53;}.cls-112{fill:#313a41;}.cls-113{fill:#e6e0cf;}.cls-114{fill:#e5e0d1;}.cls-115{fill:#f1d9c0;}.cls-116{fill:#324d79;}.cls-117{fill:#1c3b6c;}.cls-118{fill:#cad2d6;}.cls-119{fill:#5a6e92;}</style></defs><title>nav3</title><g id="Laag_2" data-name="Laag 2"><g id="Laag_1-2" data-name="Laag 1"><path class="cls-1" d="M15.48,1095c-9.81,0-15.48.3-15.48-3.87Q.54,547.55,0,4C0,.64,1.94,0,13.35,0Q3360,.15,6706.55,0c11.48,0,13.68.66,13.35,4V1095Z"/><path class="cls-2" d="M187.48,690.56c-3.29,1-1.66,5.52-2.85,8.14-2.33.17-4.4,2-5.37,4.8-2.21,4.18-2.31,9.34-4.89,13.08-4-1.47-7.47-9.74-11.85-4.45-5.1,6.18-9,3.12-13.59.31-4.72,2.81-9.88,5.12-10.19,13.66l-3.4,1.91c-2.91-1.79-6.38-.89-8.55,2.22l-3,2.32c-2.85-3.56-5.13-2.49-6.79,2-1.8-1.29-6.18,3-5.4-3.24,1.39-11.61-3.53-7-7-5.07s-6.86,6.36-10.94,2.18c-7.78-8-17.08-9.66-26.46-11.75A36,36,0,0,1,50,707.73c-8.34-6.65-11.52-20.45-7.37-32,4.25-13.09,11.95-23.75,21.7-30,10.19-6.89,19.33-16.27,23.78-30.33,8.07-24.2,20.79-45.25,36.92-61.11a14.94,14.94,0,0,0,4-10c2.17-21.57-.61-44.21,5.3-64.76,10.9-37.89,16.33-77.43,22.68-116.7,2.35-13.57,3-27.8,13.59-36.48a18.77,18.77,0,0,0,3.87-11.87c.27-18.81,9.89-29,20.38-37.58,25.68-20.91,54.07-27,84-27.31,31.59-.27,33.73,11.78,39.67,42,.27,1.47.24,3,.48,4.45a317,317,0,0,0,25.67,83.79c11.82,23.62,31,36.34,49.18,49.28C437.43,460,477.51,496.38,510.82,544.9c10.26,15,13.25,29.36,6.46,47.68-11,29.84-17.87,61.69-29.28,91.58-14.6,38.16-35.39,59.82-66.6,66.4a120.55,120.55,0,0,1-58.87-2c-24.14-6.85-48.94-10.4-72.71-18.85-6.8-2.54-15.53-4.67-20.38,7.24a6,6,0,0,0-.8-1.64,3.59,3.59,0,0,0-6-.36,9.54,9.54,0,0,0-6.79-2.53c-1.09-.49-2.1-2.89-3.39-1.11-.65.89.23,2.66.44,4,0,.21,0,.42-.07.62-.66,5.06-4.32,8.47-8.19,7.61-2.79-.33-5.47,1.56-6.79,4.8a2.1,2.1,0,0,1-.51-.52,3.22,3.22,0,0,1,.1-3.7c1.33-13.27,9.58-23.48,19.77-24.47a6.05,6.05,0,0,0-3.4-4.71c-10.39-7.83-21.43,1.87-32-2.18h0l-1.7-4.45c.14-2.18,2.69-2,2.69-4.71a10.31,10.31,0,0,0-4,4l-10.63-4.44c0-7.07-2-9.92-6.79-4.14a8.5,8.5,0,0,0-6.55-2.4C192.44,694.92,190.78,689.58,187.48,690.56Z"/><path class="cls-3" d="M325.72,212.22c0,25.48-.25,26.19-10.53,33.71-.61.44-1.18,1-1.79,1.47-10.53,8.14-20.87-3.07-27-22.46-4.87-15.3-9.33-31.14-16.05-43.37s-6.33-15.65.71-28a39.24,39.24,0,0,1,2.15-4.45c4.24-5.07,8.06-13.65,12.8-14.45,8.38-1.33,16.83-.58,25.24-.31,4.79.18,11.41,12.32,12.42,21.93,1.43,13.6,2.92,27.17,2.08,38.65Z"/><path class="cls-4" d="M144.23,900.4a10.56,10.56,0,0,1-2.19,9.34c-2.28,2.4-5.32,0-7-1.69-4.76-4.45-8.7-5.65-14.26-1.2a8,8,0,0,1-10.6,0c-1.9-2.05-.9-5.65.57-8.32a6.21,6.21,0,0,1,.47-.88,7.94,7.94,0,0,1,10.46-2.59c5.13,4.23,9.89,2.45,14.64,1.78C139.85,896.84,143.42,896.09,144.23,900.4Z"/><path class="cls-5" d="M233.34,855.84a37.79,37.79,0,0,0,18.35-6.14c3.23-1.83,8.41-3.12,10,1.64a5.9,5.9,0,0,1,.29,2.73,6.53,6.53,0,0,1-7.37,5.37,11.62,11.62,0,0,0-11.08,6.49c-2.47,3.78-7.41,3.47-11.74,2.58-2.9-.58-3.47-2.84-3.47-5.42C227.73,859.48,229.4,856,233.34,855.84Z"/><path class="cls-6" d="M388.57,765.42c3.42.17,7.55-1.25,9.88,1.69,1.76,2.22-.33,4.93-1.76,7.11-2.61,4-6.7,3.38-10.45,2.09a53.85,53.85,0,0,0-15.07-1.78c-3.33,0-7.51.58-7.13-4.44s4-5.88,8.22-5.48,8.46,1.25,9.75,1.25A62.29,62.29,0,0,1,388.57,765.42Z"/><path class="cls-7" d="M281.25,920.64c.71,3.78-2.43,5.29-5.85,5.29A10.75,10.75,0,0,0,264,931.36c-1.57,2.89-5.18,2.62-8.46,1.55h0a4.15,4.15,0,0,1-3-5.2c.42-3.25,2.42-6.27,5.79-5.92a13.24,13.24,0,0,0,13.22-7c.81-1.07,2.52-1.51,3.71-2.23A10.57,10.57,0,0,1,281.25,920.64Z"/><path class="cls-8" d="M198.17,902c0,4.49-3.37,5.56-7.27,5-5.75-.89-10.22-5.38-17-4.44a6.55,6.55,0,0,1-2-.73,5.75,5.75,0,0,1-2.2-8.17,5,5,0,0,1,.83-1,5.49,5.49,0,0,1,7.39,0c4.19,2.76,7.09,10.59,13.12,1.69C194.65,896.35,198.22,897.47,198.17,902Z"/><path class="cls-9" d="M323.88,1003.76c-3.52,2.36-7.13,4.85-11.88,2.9-2.23-.85-2.19-2.49-1.33-4.45A12.48,12.48,0,0,1,320.84,994a17.15,17.15,0,0,1,12.31,3.07C329.39,999.85,327.4,1001.41,323.88,1003.76Z"/><path class="cls-10" d="M376,821.14a6.88,6.88,0,0,1-.57,3.92c-1.38,1.82-2.38-.4-3.61-.85a19,19,0,0,0-13.36-1.69c-5.46,2.14-7.46-1.06-8.17-4.71-1.1-5.47,3.89-5.16,6.79-5.47C365.9,811.94,369.17,819.9,376,821.14Z"/><path class="cls-11" d="M375.69,796.82c0,5.64-4.8,7.07-9.94,6.93s-8.93-1.51-8.31-7.2,5.79-3.74,9.5-4.23C370.27,793.12,375.69,791.17,375.69,796.82Z"/><path class="cls-12" d="M105,967c-7.37-.4-4.66-8.23-6.18-12.67-1.33-3.78,1.8-6,6.13-6,5.75,0,5,4.45,5.42,8.9C109.15,960.36,111.53,967.25,105,967Z"/><path class="cls-13" d="M169.56,726.14c-4.75-10.63-.67-14.76,14.26-13.65C181.49,719.29,181.63,728.37,169.56,726.14Z"/><path class="cls-14" d="M233.82,698.75c-.81-3.61-7.37-6.85-.81-11a9,9,0,0,1,11.6,0,8.24,8.24,0,0,1,3.13,8.9A24.63,24.63,0,0,1,233.82,698.75Z"/><path class="cls-15" d="M236.57,1034.68c-.19,3.24-1.76,7.82-6,6.18s-10.5-3.12-11.07-8.54c-.33-3.56,3.42-5.16,9.51-4.45C232.06,1028.05,237,1028.8,236.57,1034.68Z"/><path class="cls-16" d="M322.6,794.15c-.1,3.24-2,7.56-7.23,7.2-4.42-.31-9-2.53-9.17-6.85s3.38-6.13,8.13-6.4C317.8,789.21,322.74,790.1,322.6,794.15Z"/><path class="cls-17" d="M186.91,977.92c0-.18,0-.35.05-.53a8.53,8.53,0,0,1,9.69-6.89h.08a6.52,6.52,0,0,1,7.05,5.83c0,5.16-4.8,5.83-8.94,6.5C191.23,982.24,186.57,981.84,186.91,977.92Z"/><path class="cls-18" d="M290.18,1014.08c-.19-5.07,2.48-7.42,7.56-7.42l.44,0a6.92,6.92,0,0,1,7.17,6.64c.52,5.21-2.43,6.27-7.47,5.74C294.08,1019.38,290.37,1019.15,290.18,1014.08Z"/><path class="cls-19" d="M128.4,856.64a6.91,6.91,0,0,1-7.32,6c-4.61,0-8.84-1.92-8.84-6.81-.09-3.82,3.37-5.38,7.6-6C123.08,851.43,128.59,851.48,128.4,856.64Z"/><path class="cls-18" d="M92.9,764.7c-.86-4.27,3.42-6.85,7.32-6.85h.24a7.78,7.78,0,0,1,7.69,7.91,4.35,4.35,0,0,1,0,1.3,5.1,5.1,0,0,1-5.66,4.35C98.27,770.66,93.75,769,92.9,764.7Z"/><path class="cls-20" d="M152.92,914.06a5.74,5.74,0,0,1,0-.93,6.79,6.79,0,0,1,7.57-5.75,7.06,7.06,0,0,1,1.3,0,6.36,6.36,0,0,1,6.07,6.73c.09,4.71-3.66,5.92-7.85,6.85C156.39,919.93,152.59,918.77,152.92,914.06Z"/><path class="cls-21" d="M285.48,712.76c.43,6.31-.14,12.09-9.08,12.09-3.94,0-5.65-2.27-5.27-5.69.95-8.36,7.84-6.4,13.35-6.4a4.74,4.74,0,0,1,1.19,0Z"/><path class="cls-22" d="M138.7,766.73a6.13,6.13,0,0,1,6.57-5.58c3.71-.09,7.18.13,7.18,4.93.05,4-1.28,7.79-5.75,8s-6.51-3.29-8-6.67A5.93,5.93,0,0,1,138.7,766.73Z"/><path class="cls-23" d="M324,822.75c.71,4.4-2.09,5.6-6.28,5.6a7.42,7.42,0,0,1-1.63-.06,6.05,6.05,0,0,1-5.26-6.92c.24-4.32,2.95-6.32,7.7-6.63C324.17,815.05,323.41,819.41,324,822.75Z"/><path class="cls-24" d="M116,925.75c4.95.14,8.46,1.47,8.46,6.94,0,3.29-.57,5.69-5.37,5.07s-9.79-.44-10.17-9.78C108.87,926.29,112.1,925.62,116,925.75Z"/><path class="cls-25" d="M305.25,966c.05,5.11-3.94,5.87-7.94,5.6a6.08,6.08,0,0,1-1.13-.08,6.37,6.37,0,0,1-5.57-7.25c.38-4.63,4.66-5.16,8.27-6.32A8,8,0,0,1,305.25,966Z"/><path class="cls-26" d="M369.17,964.36c3.24.53,7.42.89,7,5.6s-4,6.18-8,6.18-7.08-1-6.56-4.84C361.86,965.92,364.42,963.56,369.17,964.36Z"/><path class="cls-27" d="M348,833a6.08,6.08,0,0,1,0,.61,7,7,0,0,1-7.21,6.77c-5,.18-7.13-3.33-7.7-8.18s3.09-4.14,6.28-3.87C342.94,828.79,347.88,826.88,348,833Z"/><path class="cls-28" d="M290.63,775.07a6.08,6.08,0,0,1,6.78-5.16,6.93,6.93,0,0,1,7.41,6.85c0,.11,0,.22,0,.34a6.23,6.23,0,0,1-6,6.55c-5.42.36-6.8-3.91-8.27-7.6A5.33,5.33,0,0,1,290.63,775.07Z"/><path class="cls-29" d="M404.2,793.79a2.62,2.62,0,0,1,0,.28,7.18,7.18,0,0,1-7.33,7c-4.08.08-6.22-2.54-6.37-6.54s2.29-6.1,6.61-6.45C401,788.23,404.3,790.1,404.2,793.79Z"/><path class="cls-30" d="M302.87,822.26c.1,4.53-3.75,5.87-8.08,5.87a5.87,5.87,0,0,1-1.87-.06,5.16,5.16,0,0,1-4.3-6.08c.28-3.69,1.71-7.21,7.17-7.21A8.57,8.57,0,0,1,302.87,822.26Z"/><path class="cls-31" d="M134.29,851.74c.15-3.73.53-6.18,5.85-6.67s7.08,1.83,7.7,6.36-2.81,5.52-7.27,5.92C137.43,856.81,134.06,856.55,134.29,851.74Z"/><path class="cls-28" d="M212,844.81c3.38-.14,6.8,1.37,6.56,4.93s-1.43,7.79-6.8,7.52c-4.08-.22-6-3.11-6.84-6.54C205,846.23,208.63,844.94,212,844.81Z"/><path class="cls-32" d="M323.17,921.71c4.37.53,8.93,2.75,9.5,6.67s-2.8,5.6-6.79,5.6c-5.37.22-6.32-2.93-6.32-7C319.75,924.51,318.8,921.17,323.17,921.71Z"/><path class="cls-33" d="M196.7,771.24c2.94.89,8.22.89,7.7,5.34-.38,3.25-2.09,7.6-7.51,6.94a7.27,7.27,0,0,1-1.4-.1,6.09,6.09,0,0,1-5.16-7.06C190.66,773.51,192,770.17,196.7,771.24Z"/><path class="cls-34" d="M222.74,897.55c.1-3.06.38-6.8,5.14-7.24s6.55,1.91,6.79,5.64-.19,7.52-6.22,7.52C223.46,904.45,222.65,900.62,222.74,897.55Z"/><path class="cls-35" d="M133.77,868.42c3.95.18,8.7,1,8.7,5.47a8.19,8.19,0,0,1-7.75,7.34c-4.32.09-5.13-3.87-6.27-6.94C128.11,870.56,129.83,868.25,133.77,868.42Z"/><path class="cls-36" d="M323.55,881.68c3.75.31,8.51,1.33,8.51,5.78,0,.12,0,.24,0,.36a6.46,6.46,0,0,1-7,5.82c-3.52-.18-7.27-.76-7.65-5.43C318.42,885.28,318.8,881.23,323.55,881.68Z"/><path class="cls-8" d="M199.83,804.91a4.71,4.71,0,0,1,0,.75,6.8,6.8,0,0,1-7.61,5.7c-3.75-.22-7-1.29-6.7-5.74a6,6,0,0,1,.1-1.4,6.63,6.63,0,0,1,7.74-5C195.89,800.37,200.36,800.2,199.83,804.91Z"/><path class="cls-37" d="M413.68,789a6.24,6.24,0,0,1-6.2-6.29,5.25,5.25,0,0,1-.05-1.81,5.61,5.61,0,0,1,6.42-4.46c.11,0,.23,0,.34,0a7.2,7.2,0,0,1,7.79,6.47c.52,4.32-2.43,5.79-7.46,6.1A7.85,7.85,0,0,1,413.68,789Z"/><path class="cls-38" d="M267.75,1024.05c-6.7,4.22-13.16,6.58-20.25.84C255.73,1017.46,258.29,1017.33,267.75,1024.05Z"/><path class="cls-39" d="M231.49,713.16c-2.52,5.42-7.61,3.6-12,3.6-1-5.87-2.66-12,6.85-13.08C228.87,706.44,234,707.73,231.49,713.16Z"/><path class="cls-18" d="M247.31,999.54c-.19-4,2.67-4.94,6-4.94a6.79,6.79,0,0,1,1.8-.06,6,6,0,0,1,5.62,6.51c.19,4.32-2.76,5.56-7.85,5.16C248.12,1007.06,247.5,1003.59,247.31,999.54Z"/><path class="cls-40" d="M104.68,788.32a4.66,4.66,0,0,1-1-.31,4.34,4.34,0,0,1-2.3-5.92c4.42-6.8,11.13-2.22,18.35-2.89C115.8,786.54,111.43,790.1,104.68,788.32Z"/><path class="cls-41" d="M318.51,982.15c-.09,4.4-2.28,6.85-7.37,6.4h-.24a6.37,6.37,0,0,1-6.36-6.4c-.38-4.72,2.85-5.52,7.89-5.52C314.85,977.17,318.61,977.75,318.51,982.15Z"/><path class="cls-42" d="M214,1022.71c-.52,3.87-3,7.12-7.75,6.58-3.18-.31-6.27-1.11-5.89-5.33s3.18-5.56,7.27-5.83C210.19,1018.93,214.47,1018.84,214,1022.71Z"/><path class="cls-43" d="M261.62,956.84a5.29,5.29,0,0,1-.09.8,5.5,5.5,0,0,1-6.42,4.14,6.25,6.25,0,0,1-1.43-.14,5.33,5.33,0,0,1-4.27-6.4,7.58,7.58,0,0,1,6.41-7A8.88,8.88,0,0,1,261.62,956.84Z"/><path class="cls-17" d="M256.9,797.16a5.63,5.63,0,0,1-4.74-6.57c0-2.94.29-6.54,4.75-6.09s8.89,2.75,8.89,7.2c0,3.25-3.61,5.56-7.79,5.56A6.94,6.94,0,0,1,256.9,797.16Z"/><path class="cls-44" d="M298.17,720.76a4.56,4.56,0,0,1,.64,0,6.15,6.15,0,0,1,5.51,6.69,5.77,5.77,0,0,1-6.44,4.85h-.06a6.48,6.48,0,0,1-6.92-6C291.28,722.1,294.22,720.72,298.17,720.76Z"/><path class="cls-45" d="M123,761.63h-.27a5.63,5.63,0,0,1-5.29-6,7,7,0,0,1,7-6.23c.23,0,.47,0,.7,0a5.56,5.56,0,0,1,5.62,5.5C129,757.72,127.92,761.9,123,761.63Z"/><path class="cls-46" d="M224.69,734.06a5.58,5.58,0,0,1,0-1.08,6.59,6.59,0,0,1,7.07-6c4,0,5.95,4.36,6.28,7.74s-2.95,4.67-6.18,5.24A6.79,6.79,0,0,1,224.69,734.06Z"/><path class="cls-34" d="M199.64,755.76c0,.1,0,.2,0,.3a7.21,7.21,0,0,1-8.37,5.49c-4.61-.23-5.37-3-5.42-7s3.33-4.45,6.56-4.45C196.51,750.07,199.83,752.47,199.64,755.76Z"/><path class="cls-47" d="M221.46,833.73a4.59,4.59,0,0,1,0-1,5.32,5.32,0,0,1,5.82-4.67,7.23,7.23,0,0,1,1.8-.07,6.17,6.17,0,0,1,5.8,6.61c0,3.65-2.75,4.94-6.41,4.94C224.22,839.6,221.51,837.73,221.46,833.73Z"/><path class="cls-48" d="M331.11,793c-4.14.26-6.75-2-6.9-5.43s1.62-6,5.18-5.6,8,.66,9.08,5.11A7.71,7.71,0,0,1,331.11,793Z"/><path class="cls-49" d="M114.76,979.61a6.53,6.53,0,0,1,13,0c-.09,3.34-2.18,6-5.84,5.52a7,7,0,0,1-7.18-5.65Z"/><path class="cls-20" d="M321.31,765.5a6.2,6.2,0,0,1,1.22,0,5,5,0,0,1,4.44,5.53,5.38,5.38,0,0,1,0,1.33,5.83,5.83,0,0,1-6.63,4.72c-4.38-.09-6.28-2.53-6.28-6.36C314.38,766.44,317.27,765.46,321.31,765.5Z"/><path class="cls-50" d="M46.65,812.92c.38-3,2.66-5.83,6.61-4.45,8.22,2.93,3.33,9,4.32,14.36C51.26,821.23,46,819.54,46.65,812.92Z"/><path class="cls-51" d="M212.74,1006.16a5.74,5.74,0,0,1-5.59-5.95,5.3,5.3,0,0,1,0-1.59,5.59,5.59,0,0,1,6.35-4.55,5.5,5.5,0,0,1,6,5.38c.14,3.65-1,6.49-6.08,6.72A5.3,5.3,0,0,1,212.74,1006.16Z"/><path class="cls-52" d="M431.1,915.57c4.9-1.47,7.32,2,7.85,5.56s-1.72,5.07-5.47,5.38c-.21,0-.42.06-.64.07a6.89,6.89,0,0,1-7.53-6.08C424.31,916,428.73,916.28,431.1,915.57Z"/><path class="cls-53" d="M340.18,930.07a3.6,3.6,0,0,1,.17-1.75,4.15,4.15,0,0,1,5.16-2.43c4.23.8,8.46,2.71,9,7.16.28,2.62-2.9,3.82-5.85,4.44C344.94,935.94,340.23,935.18,340.18,930.07Z"/><path class="cls-54" d="M283.67,864.64c3.23.67,7,2.36,6.75,6.5v0a5.84,5.84,0,0,1-5.94,5.74c-4.66.13-5.42-3.38-6.23-7.52C279.16,867.44,279.49,863.75,283.67,864.64Z"/><path class="cls-55" d="M84.91,871.85c.71,3.78-2.71,4.67-5.94,5.11a5.89,5.89,0,0,1-1.78.24,5.36,5.36,0,0,1-5.44-5.31c-.38-4.09,3.18-5.29,6.6-6.49A7.06,7.06,0,0,1,84.91,871.85Z"/><path class="cls-56" d="M256.91,699.28c.19-3.34,0-7.25,4.47-7.78a10.93,10.93,0,0,1,7.37,2.53c4.23,3.78-1.14,6.27-2.14,9.39Z"/><path class="cls-57" d="M163.19,761.28c4.23,0,6.65,1.33,6.32,5.78a4.17,4.17,0,0,1,0,.79,5.28,5.28,0,0,1-5.83,4.55c-4.14,0-6.61-1.74-6.09-6.18C157.49,762.84,159,761.23,163.19,761.28Z"/><path class="cls-58" d="M369.69,895.41a5.84,5.84,0,0,1,6.61-4.75c3.47-.09,4.76,1.82,4.76,4.89.14,3.92-1.76,6.72-5.71,7s-5.37-2.36-5.7-6A4.86,4.86,0,0,1,369.69,895.41Z"/><path class="cls-59" d="M284.15,901.91a5.16,5.16,0,0,1,2.28-.07,4.47,4.47,0,0,1,3.66,5.28c-.24,2.93-1.57,6.09-5.8,5.47a9.69,9.69,0,0,1-7.56-6.41C277.87,902.8,281.25,902.18,284.15,901.91Z"/><path class="cls-60" d="M110.77,805.89c.09-4.8,3.8-4.63,7.65-4.8S124,803,124,806.65s-2.19,5-5.23,5C114.62,810.74,110.67,810.69,110.77,805.89Z"/><path class="cls-61" d="M288.81,850.77a4,4,0,0,1,.11-1,5.37,5.37,0,0,1,6.35-3.9,6,6,0,0,1,.85.11,5.17,5.17,0,0,1,4.19,6.16c-.34,3.69-3.14,5.56-6.75,6.72A7.66,7.66,0,0,1,288.81,850.77Z"/><path class="cls-62" d="M370.46,870.11a5.19,5.19,0,0,1,2.15-.05,4.47,4.47,0,0,1,3.69,5.26,4.91,4.91,0,0,1,0,1.38,5.75,5.75,0,0,1-6.54,4.62c-3.66-.18-5.33-2.58-5.33-6C364.42,871.67,366.85,870.16,370.46,870.11Z"/><path class="cls-63" d="M147.93,804c4.95.05,5.37,2.8,5.33,6.76s-2.76,4.72-6.28,4.45c-4.61-.36-4.8-4.05-5.94-7C141.42,804.15,144.56,803.93,147.93,804Z"/><path class="cls-64" d="M333.15,799.75c3,.49,7.75,0,7.32,4.94-.29,2.93-1.71,5.82-5.47,5.69s-7.08-.84-7.08-5.29C328,801.84,329,799,333.15,799.75Z"/><path class="cls-65" d="M399.78,836.49c-.14-3.74,2.19-4,5.09-4.45,4.23-.58,6.75.85,7.08,4.8s-2.42,4.9-6,5.48C402.06,842.27,399.93,840.22,399.78,836.49Z"/><path class="cls-66" d="M413.47,921.75c4.33-.4,6.27,2.89,6.89,6.14s-.62,6.14-4.37,6.62c-6.32.85-4-4.09-4.75-6.09C410.71,925.35,409.15,922.15,413.47,921.75Z"/><path class="cls-67" d="M358.86,780.14c.29,3.64-2.57,4.89-6.08,4.89a5.41,5.41,0,0,1-.9,0,5.1,5.1,0,0,1-4.9-5.35c-.24-3.47.9-5.65,5.18-5.07C356.72,773.91,358.58,776.49,358.86,780.14Z"/><path class="cls-68" d="M405.49,948.44c3.51.35,6.13,2,6.13,5.38a4.54,4.54,0,0,1-.05,1,5.23,5.23,0,0,1-6,4.16c-4-.18-6.75-1.64-5.84-6.09C399.31,948.75,402,948.08,405.49,948.44Z"/><path class="cls-69" d="M71.51,753.94c.38-4.27,2.85-6.8,7.6-6.23,2.66.45,5.8,1.2,4.76,4.45s-1.57,7.43-6.8,7.43C73.17,759.5,71.13,758.21,71.51,753.94Z"/><path class="cls-6" d="M219.22,769.46c-.23,3.61-2.28,5.12-6.13,5.38s-6-1.33-6.13-4.93,2.38-5.12,6.23-5.43C215.66,765.46,219.51,765.15,219.22,769.46Z"/><path class="cls-70" d="M348.74,863.26c3.23-.35,6.75.54,7,4.1s-2.09,5.51-5.84,5.51h-.1a5.79,5.79,0,0,1-6.36-5C343.18,864.15,345.51,863.62,348.74,863.26Z"/><path class="cls-71" d="M392.89,914.9c3.38.45,6.18,1.6,5.23,5.69-.52,2.36,0,5.52-4,5.52a6.85,6.85,0,0,1-7.22-5.92C387.52,917.08,388.76,914.37,392.89,914.9Z"/><path class="cls-72" d="M120.89,823c2.76.35,7-.31,7.51,3.56a5.1,5.1,0,0,1,0,1.7,5.51,5.51,0,0,1-6.28,4.43c-3.18.05-6.32-.31-6.94-4C115.76,825.41,116.85,822.48,120.89,823Z"/><path class="cls-73" d="M438.23,827.33c0,3.51-1.28,5.65-5.61,5.6s-5.08-3.07-5.08-6.14,1.23-5.87,5.56-5.56C437.19,821.68,438.28,823.81,438.23,827.33Z"/><path class="cls-74" d="M152.83,730.28c-.71-3.6-.57-6.89,3.56-8,5-1.38,6.37,2.89,8.42,5.83C162.38,737.08,157.15,732.28,152.83,730.28Z"/><path class="cls-75" d="M382.86,743.49c.05-4,2.95-4.58,6.32-4.45s6.09.58,6,4.85-3,4.45-6.27,4.67C385.24,748.65,382.82,747.49,382.86,743.49Z"/><path class="cls-9" d="M151.69,991.31a7.78,7.78,0,0,1-7.56,5.83,6.64,6.64,0,0,1-.77,0,4.5,4.5,0,0,1-4-5.07c.38-3.42,3.52-4.4,6.94-4.76C148.79,987.71,152.5,988,151.69,991.31Z"/><path class="cls-62" d="M147.79,884.79c-.24-3.6,2.33-4.18,5.42-4.18s6.8.84,6.84,4.45-2.85,4.89-6.46,5.33A6,6,0,0,1,147.79,884.79Z"/><path class="cls-76" d="M145.15,866.13a5.66,5.66,0,0,1,6.68-4.11c2.85.35,5.56,2.18,5.56,4.8-.24,4-5.18,4.94-7.89,5.29s-4-2.84-4.42-5.6C145.1,866.38,145.12,866.26,145.15,866.13Z"/><path class="cls-77" d="M262.14,870.82a6.49,6.49,0,0,1,.77,0,4.51,4.51,0,0,1,4,5.07c-.24,3.11-1.62,6-5.61,5.29a7.84,7.84,0,0,1-6.18-6.4A6.91,6.91,0,0,1,262.14,870.82Z"/><path class="cls-16" d="M384.67,863.35c-.24-3.64,1-6.31,5.37-6.85s5.42,1.43,5.32,5.16-1.8,6.41-6.13,6.41C385.43,868.47,384.86,866.07,384.67,863.35Z"/><path class="cls-78" d="M63.38,873.23c4.28-.4,3.57,2.89,3.66,5.42s-.05,5.61-3.71,5.47-6.08-1.73-6.08-5.33C57.2,874.92,60.24,873.54,63.38,873.23Z"/><path class="cls-79" d="M275.31,996.29c2.75.27,5.8,1.25,5.13,4.72a6.81,6.81,0,0,1-6.18,5.82c-3,.27-5.42-.75-5.42-4.71C269.37,999.14,270.84,996,275.31,996.29Z"/><path class="cls-80" d="M247.88,799.53a5.13,5.13,0,0,1-5.89,4.05c-4.37,0-5-3.65-4.75-6.1s.71-5.29,5.46-4.84C245.08,793.92,248.12,795.61,247.88,799.53Z"/><path class="cls-81" d="M138.71,734.55c0-3.87-3.7-9.56,3.62-10.28,5.22-.57,6.65,3.87,6.08,8.32C145.79,735.75,142,734.1,138.71,734.55Z"/><path class="cls-37" d="M387.45,813.65a4.77,4.77,0,0,1,5.68-3.36c3.52.36,6.75,2.09,6.42,5.38s-4.19,3.83-7.47,3.83l-.5,0a4.54,4.54,0,0,1-4.25-4.87A4,4,0,0,1,387.45,813.65Z"/><path class="cls-82" d="M436.3,852.57a4.78,4.78,0,0,1-4-5.58c.14-2.41.71-5.56,4.09-5.43s6.18,1.16,6.46,4.94c0,.15.05.3.07.45a5.64,5.64,0,0,1-6.61,5.62Z"/><path class="cls-83" d="M236.86,772a6.65,6.65,0,0,1,.89,0,6,6,0,0,1,5.67,6.3c0,2.67-.34,5.38-4.38,4.85-3.28-.4-5.94-1.52-5.94-5.43C233.48,775.24,233.15,771.86,236.86,772Z"/><path class="cls-84" d="M209,937a6.2,6.2,0,0,1,6.13,5.52,3.66,3.66,0,0,1,0,.66,4.61,4.61,0,0,1-4.79,4.41c-3.85.26-5.33-2.18-5.66-5.43C204.82,939.36,205.44,936.87,209,937Z"/><path class="cls-85" d="M281.34,708c-.38-3.6-1.28-7.6,3.14-8.89s7.22,2,9.51,5.33a16.06,16.06,0,0,1-10.7,4A4.23,4.23,0,0,0,281.34,708Z"/><path class="cls-86" d="M328.63,735.17c-3.89-1.15-7.13-3.16-7.13-7.38.1-2.63,3.43-2.63,5.47-2.63,4.71.09,7,2.67,5.89,7.12Z"/><path class="cls-87" d="M300.07,752.16l-.11,0a4.63,4.63,0,0,1-3-6c2.19-4.67,6.56-2.14,10.12-2.14l.57,4.23C306.63,752,304.11,753.85,300.07,752.16Z"/><path class="cls-88" d="M342.56,734.73c.09-3.56-.67-8,5.51-7.16s4.76,5.29,4,9.16A11.18,11.18,0,0,1,342.56,734.73Z"/><path class="cls-15" d="M342.57,882a4.31,4.31,0,0,1,4.69,3.86,7.82,7.82,0,0,1-5.89,7.39c-2.23.75-3-2.58-3.61-4.72-.9-3.65,1.33-5.38,4.42-6.49A2.58,2.58,0,0,1,342.57,882Z"/><path class="cls-89" d="M74.84,929.8a5,5,0,0,1,1.39,0,4.13,4.13,0,0,1,3.64,4.68,3.48,3.48,0,0,1,0,.79,4.68,4.68,0,0,1-5.21,4c-3.14,0-5-1.6-5.42-5.16A6.73,6.73,0,0,1,74.84,929.8Z"/><path class="cls-79" d="M189.62,960.85a4.53,4.53,0,0,1-4-4.72c.19-3.25,2.13-5.6,5.89-5.25a3.91,3.91,0,0,1,.48,0,4.09,4.09,0,0,1,3.61,4.62C194.46,958,193.32,961.25,189.62,960.85Z"/><path class="cls-71" d="M301.83,869.18c3.52,0,5.18,2.8,5.46,5.78a2.9,2.9,0,0,1,0,.51A4,4,0,0,1,303,879.1c-3.81.09-4.9-2.72-5.52-5.74A4.6,4.6,0,0,1,301.83,869.18Z"/><path class="cls-90" d="M89.57,776.18c-.81,2.53-.43,6.36-5.18,5.29-2-.44-5.09-2.49-5.09-3.47.43-3.38,3.85-4.85,6.66-6.18C89.14,772.31,90.38,773.64,89.57,776.18Z"/><path class="cls-91" d="M104.83,797c0,.2,0,.41,0,.61a4.71,4.71,0,0,1-5.33,3.84c-2.67-.23-6.18-1-5.57-3.78s4-4.27,6.8-4.81C104.35,792.72,105.11,794.55,104.83,797Z"/><path class="cls-92" d="M306.44,682.42a9,9,0,0,1-9.51-3c-4.23-5.11,1.52-7.11,4.33-9.56,4.37-3.78,2.8-5.38-1.62-7.78s-1.66-5.7.67-8.32a4.59,4.59,0,0,1,.33-.44,8.3,8.3,0,0,1,11.12-1.43c3.71,2.23,2.95,4.94.62,7.38-3.61,3.61-3,8-2.66,13.35C308.39,675.22,312.47,680.42,306.44,682.42Z"/><path class="cls-93" d="M205.16,693a81.41,81.41,0,0,1,5.94-17.79c1.28-2.53,6.94-1.24,6.32,0-3.9,7.39,1.52,14.24.28,21.13-.42,2.18-3.47,2.76-6.36,2.76C207.58,698.83,204.44,696.7,205.16,693Z"/><path class="cls-94" d="M300.07,641a10.29,10.29,0,0,1-6.7,5.7c-4.33,1.42-9.84,3-11.84-2.09s.19-9,6.85-10.19A36.37,36.37,0,0,0,297.6,630C301,633.28,303.16,636.61,300.07,641Z"/><path class="cls-95" d="M123,708.35c5,.09,5.85,4.18,5.85,8,.23,4.81-3.14,5.34-6.94,5.07-4.61-.31-7.08-2.67-7.42-7.65A7.9,7.9,0,0,1,123,708.35Z"/><path class="cls-96" d="M286.38,684.56c.71,4.85-3.14,6.58-7,6.8s-7.23-1.55-7.08-5.56,3.37-6.31,7.36-7.74A8,8,0,0,1,286.38,684.56Z"/><path class="cls-97" d="M258,667.21c4.75.13,5.13,4.18,5.13,7.25.15,4.4-3.18,5.2-7.27,4.89s-5.94-2.8-6.89-6.62A10.13,10.13,0,0,1,258,667.21Z"/><path class="cls-98" d="M229.11,672.37c.38-3.91,4.09-5.43,7.46-5s7.46.22,6.85,5.25c-.53,4-3.62,5.2-7.32,5.56C232.34,677.4,228.73,676.28,229.11,672.37Z"/><path class="cls-99" d="M385.62,694.83a30.45,30.45,0,0,1,.33-8.63,6.59,6.59,0,0,1,7.7-3.51c3.19.62,4.09,4,4.37,7a4.51,4.51,0,0,1-4.46,5.16c-2.71.08-5.42-.27-8.13-.27Z"/><path class="cls-100" d="M277.64,651.51c4.84-1.24,3.75,2.58,3.47,4.8-.38,3.21-.95,7.52-5.71,6.63a9.35,9.35,0,0,1-8.69-6.58C268.7,651.69,273.79,652.49,277.64,651.51Z"/><path class="cls-101" d="M258.48,616.82A7.06,7.06,0,0,1,266,622.6c.86,3.56-1.66,5.34-5.37,5.65a4.1,4.1,0,0,1-.49.06,6.41,6.41,0,0,1-7.07-5.53C253.25,619.62,254.82,617,258.48,616.82Z"/><path class="cls-102" d="M354.87,663.34c3.47,0,6.51,1.25,6.13,4.89-.48,4.45-4.61,4.45-8.08,4.45a5.13,5.13,0,0,1-2.1.11,4.49,4.49,0,0,1-3.89-5.13C347.6,662.94,351.4,663.34,354.87,663.34Z"/><path class="cls-103" d="M385.43,694.61c1.05,5.83-1.9,8.49-7.79,7.78a6,6,0,0,1-1.83-.32,5.17,5.17,0,0,1-3.31-6.75c2.43-5.51,7-2.31,10.89-1.07l2.23.58Z"/><path class="cls-104" d="M278.54,632.61c-2.9.53-7.08-.76-6.75-4.45.67-6.54,6.8-7,13.17-8.23C283.63,624.87,285.15,630.56,278.54,632.61Z"/><path class="cls-105" d="M387.2,710.27a5.49,5.49,0,0,1,5.41,5.6,5.3,5.3,0,0,1,0,.69,7.35,7.35,0,0,1-7.48,4.77,4.79,4.79,0,0,1-4.35-5.28c.1-3.38,2.76-4.94,6.23-5.79Z"/><path class="cls-106" d="M349.17,687.27c0,.15,0,.3-.05.46a5.6,5.6,0,0,1-6.37,4.52,6,6,0,0,1-1-.12,4.94,4.94,0,0,1-3.95-5.93c.38-3.42,3.09-4.89,7-4.89C348.41,681.53,349.5,684.29,349.17,687.27Z"/><path class="cls-107" d="M321.88,644.75c3.38-.09,6.23,1.42,6.23,5-.24,2.54-.33,5.92-4.75,5.92a5.57,5.57,0,0,1-1,0,5.07,5.07,0,0,1-4.71-5.5C317.56,647.42,318.51,644.84,321.88,644.75Z"/><path class="cls-108" d="M307.72,634.25c.67,4.36-1.66,7.83-7.65,6.59-.19-3.74-3.85-6.81-2.47-10.86C303.06,627.18,306.91,629.14,307.72,634.25Z"/><path class="cls-109" d="M324.07,681.4c3.71-.8,4.85,1.47,4.75,4.18s.86,6.27-3.61,6.67a5.42,5.42,0,0,1-1.21.16,4.86,4.86,0,0,1-5.06-4.61A5.94,5.94,0,0,1,324.07,681.4Z"/><path class="cls-110" d="M343,648a5.81,5.81,0,0,1-5.33,6.18c-4.08.58-4.51-2.22-4.75-4.89s.33-5.11,4.09-5.42C339.42,644.66,342.7,644.62,343,648Z"/><path class="cls-111" d="M373.93,653.82a4.49,4.49,0,0,1-5.14,4.81l-.6,0a4.61,4.61,0,0,1-4.72-4.48c-.38-3.16,2-4.23,5-4.45C371.5,649.87,373.93,650.93,373.93,653.82Z"/><path class="cls-112" d="M358,640.7c-.38,2.45-1,5.43-4.75,4.85a4.88,4.88,0,0,1-4.76-5,6,6,0,0,1,5-5.21C356.34,636.17,358.34,638.26,358,640.7Z"/><path class="cls-3" d="M5271.93,667.89c0,25.48-.33,26.19-14,33.71-.81.44-1.57,1-2.38,1.47-14,8.14-27.72-3.07-35.9-22.46-6.46-15.3-12.39-31.14-21.31-43.37s-8.42-15.65.93-28a36.6,36.6,0,0,1,2.87-4.45c5.62-5.07,10.69-13.65,17-14.45,11.12-1.33,22.35-.58,33.52-.31,6.36.18,15.16,12.32,16.5,21.93,1.9,13.6,3.88,27.17,2.76,38.65Z"/><path class="cls-113" d="M5779.35,225.52c5,.26,9.35,6.37,10.57,14.95a56,56,0,0,1,.4,6.37c.11,17.51-7.89,31.86-17.86,32.06a69.38,69.38,0,0,1-18.8-2.81c-5.72-1.56-10.75-7.47-13.76-16.14-1-2.76-2.54-6.67-.21-8.9,10.37-9.78,18.83-27,32.06-25.79A42.94,42.94,0,0,1,5779.35,225.52Z"/><path class="cls-114" d="M5575.17,691.86c.63,2.58.33,4.18-1.22,5-7.07,3.91-11.83,13.87-17.74,20.81-7.88,9.3-10.84,8.72-15.91-5-3.65-9.65-5.27-20.19-1.7-31.36,3.18-11,9.52-18,16.52-18.23C5560.85,660.73,5572,678.78,5575.17,691.86Z"/><path class="cls-115" d="M6339.84,800.11c-1.37-5.07-6.21-3.07-6.44-7.52-.74-13.3-6.79-21-9.78-31.8-9-32.51-18-65-21.41-101.14a29.24,29.24,0,0,0-2.23-6.58c-1-4.41.91-6.58,2.53-7.47,7-3.78,12.29-11.88,18-19.4,5.39-6.49,9.75-15.29,12.67-25.57,3-8.45,4.3-18.24,7.07-27.13,6.71-21.62,14.9-41.94,19.38-65.65a165.46,165.46,0,0,1,8.26-29.8,454.18,454.18,0,0,0,24.23-86.82c.68-3.91.68-9.11,4.1-9.6.43,3.2-.91,7.56,1.93,9.34,2.25-10.85,3.52-11.52,8.94-5.56,2.77,2.74,5,6.92,6.34,12,.91,3.56,2.05,6.45,4.58,6.45,4.16-.27,5.65,4.72,6,10.5.22,8.74,3.13,16.57,7.6,20.46,6,4.36,9.27,13.21,13.4,20.1s9.13,11.88,12.67,19.79c13.06,29.78,28.41,56.23,45.61,78.59a11.46,11.46,0,0,1,2.13,7.52c0,3-.25,6.45,1.24,8.32,9.63,12,14.4,31.13,21.82,45.72,12.39,24.33,16.95,53.86,21.79,82.46,3.45,20.32,1.6,43.9.18,66.13a175.19,175.19,0,0,1-7.73,41.46c-3.24,10.58-3.93,23.7-9.12,33.13a114,114,0,0,0-7.81,21.35c-4.47,15.43-9.55,30.29-15.2,44.48-3.72,8.89-7.07,18.32-10.41,27.66-.92,2.58-2.26,6.27.91,7.74,1.42.62,3.67-3.56,4,1.73,0,3.81-1.11,7.34-3,9.26-2.91,3.6-6.05,6.89-6.81,13.78a13.54,13.54,0,0,1-4.72-8.58c-1.57-14.23-7.93-22.68-13.15-31.58-12.15-20-25.79-36.94-40.54-50.48-7.91-7.47-16.09-15.83-25.52-15.83-5.07,0-9.25-1.2-12.95-8.32-3.06-5.19-7-8.58-11.17-9.7-13.28-4.8-26.51-10.76-40.29-8.89C6345.79,819.41,6342.6,809.94,6339.84,800.11Z"/><path class="cls-116" d="M6358.46,682.93c-3.37-6.23-6.69-12.41-10.14-18.37-1.17-2.68-2.88-4.48-4.79-5-9.4-.58-18.8-4.71-28.22,0a47,47,0,0,1-11.84,3.65c-7.29,1.47-14.57,4.36-22,2.89-11.22-2.31-15.45-13.92-11.86-32.51a50,50,0,0,1,5.63-17.17c8.64-12.59,13.58-30.07,20.47-45,7.48-16.14,7.35-16.19-2.78-26.33-5.38-5.33-6.08-10.23-2.54-19.7a32.19,32.19,0,0,0,2.66-13.34c-1.14-22.29,7-38.52,13-54.93,5-13.7,5.22-25.22-.41-38.12-2.71-6.18-6.23-11.07-9.15-16.9-5.37-10.9-10.79-22.28-20.57-16.59-.1.09-.33-.67-.48-.67,3.57-17.79,13.15-24.55,20.5-35.58,5.88-8.85,12.67-15.25,18.55-23.75,3.23-5.19,7.25-8.62,11.58-9.87a158.53,158.53,0,0,1,66.89-1.42,127.36,127.36,0,0,1,13.63,4.44c3.88,1.34,4.84,9.39,8.06,11.7,21.11,15.08,24.56,44.74,21.36,78.37-2,20.32-3.67,40.74-5.5,61.15a47.53,47.53,0,0,0-2.53,12.28c-3.75,26.46-11.81,49.72-19.13,73.12-4.92,15.65-10.74,30.29-14.29,47.32a285.89,285.89,0,0,1-8.74,31.85c-5.4,16.14-11.74,31.35-14.42,49.85a11.19,11.19,0,0,1-2.54,5.83C6364.26,693.64,6361.27,688.17,6358.46,682.93Z"/><path class="cls-117" d="M6361.35,709.74c-7.63,8.14-12.29,23.89-22.43,25.67-1.88.71-3.47,2.89-4.33,5.91-25.77-1.15-51.59,2.32-77.21-7-7.25-2-13.65-9.39-17.61-20.24-3.32-2.58-5.86-7.51-7-13.57s-2.31-12-3.73-17.79a134.75,134.75,0,0,1-1.92-51c8.79-53.24,18.65-105.85,29.95-157.62a235.26,235.26,0,0,0,6-30.07,32.47,32.47,0,0,1,4.2-14.41q1-7.17,2.39-14.1c2.43-10-.56-23.21,6-30.69,4.84-4.8,10.36-7.65,14.44,0,5.73,10.77,11.63,21.22,17.31,32.07,5,9.7,7.6,26.69,3.59,33.36-6.1,10.36-6.56,25.4-12,35.58-3,5.83-4.43,13.71-3.83,21.53a43.07,43.07,0,0,1-1.92,18.14c-4.84,11.92-4.41,14.15,3.42,19.13,8.76,5.6,9.4,9.6,3.54,22.46-.53,1.16-.83,2.62-1.39,3.65-6.89,12-10.14,29.26-17.74,40a69.06,69.06,0,0,0-8.51,18.73c-5.58,17.17-1.85,31.8,8.61,33.58a50.3,50.3,0,0,0,12.67-.53c14.67-1.29,28.59-11.08,44-7.17,6.34,1.51,12.19,6.81,16.57,15,4.41,7.34,7.37,18.46,14.54,19.75C6367.85,698.09,6365.17,705.09,6361.35,709.74Z"/><path class="cls-118" d="M6180,716.51c-22.28-9.49-43.54-25.24-62.94-46.66-11.28-12.1-24.91-20.9-30.18-45.86a6.42,6.42,0,0,0-2.21-3.78c-7.09-4.09-8.38-15.47-10.92-25.53a105.88,105.88,0,0,0-4.25-16c-9.3-21.13-11-46-11-71.16-.29-21.79.34-43.58,1.87-65.21a395,395,0,0,1,13.86-76.36c2.94-10.19,6.14-20.11,8.67-30.74,5.15-22,13.59-41.16,24.43-55.46a35.48,35.48,0,0,0,6.86-12.81c4.13-14.94,11.89-21.12,20.28-23.84,19.2-6.18,36.94,1.83,53.77,18.73,10.41,10.49,17.3,29.26,29,36.65a18.22,18.22,0,0,1,4.61,8.89c3.15,10.77,8,18.95,11.86,28.56,10.82,26.95,24.38,51.37,27.12,86.1.63,8.14,3.47,7.61,6.71,7.61-2.81,15-3.67,31.13-8.74,44.79q-6-20.06-10.77-41.1a226.12,226.12,0,0,0-14.09-45.72c-6.84-14.59-13.78-29.05-20.27-44-9.05-20.95-20.55-36.74-32.23-52.35-4.89-6.49-11.2-8.4-16.6-13.56-9.1-8.72-18.93-4.45-28.53-3.87-1.44,0-2.53,2.58-3.57,4.44-8.21,14.9-17.16,28.65-24.15,45.41-4.92,11.52-11,22.07-12.67,36.74a62.14,62.14,0,0,1-4.36,18.1,194.25,194.25,0,0,0-11.76,45.33c-5.32,32.24-4.79,65.24-3.95,98.11.18,10.5-.53,21.17,2.71,31.58s6,21.21,9.05,31.8c3.07,11.92,8.18,21.87,14.62,28.46,13.43,12.72,25,30.47,38.36,43.06,28.41,26.73,57.95,42.38,90.41,25.88,2.61,10.81,4,22.55,8.92,31.45C6220.29,723.22,6199.76,724,6180,716.51Z"/><path class="cls-119" d="M6328.76,427.85c9.3-11.29,18.6-19.43,29.88-20.19a12,12,0,0,0,7.14-3c11.05-8.94,19.46,1,19.44,21.35s-.89,19.88,11.45,19.52c6.26-.13,10.59,10.15,8.06,19a64.87,64.87,0,0,0-1.83,17.08c-.07,3.56.71,7.69-1.36,10.32-2.63,3.56-3.5,9.85-2.08,15.12,3.47,17.3-2.08,30.73-6.11,44.48-2.63,9.07-4.91,8.45-8.79.57-2.21-4.22-3.07-10.31-7.27-11.2-9.71-2.05-17.41,2.35-23.16,17.16-3.16,7.92-7.28,14.5-12.07,19.26-1.74,2.36-4.18,2.36-5.92,0-2.18-3.69.68-6.09,1.74-7.83,6.79-11.25,6.79-30.15,14.8-40,1-1.25,1.27-4.63,1.6-7.12,3.17-23.88-2.81-42.56-11.58-59.06-7.58-14.24-16.73-12.9-27.37-3.7C6317.57,446.64,6322.32,435.4,6328.76,427.85Z"/></g></g></svg>