<svg xmlns="http://www.w3.org/2000/svg" viewBox="0 0 6719.93 471"><defs><style>.cls-1{fill:#f2eeef;}.cls-2{fill:#b7c2c9;}.cls-3{fill:#e6dfcc;}.cls-4{fill:#3d3b3c;}.cls-5{fill:#4c4b4b;}.cls-6{fill:#343333;}.cls-7{fill:#4a4848;}.cls-8{fill:#4e4d4d;}.cls-9{fill:#8b8a8a;}.cls-10{fill:#141313;}.cls-11{fill:#5b595a;}.cls-12{fill:#a2a0a0;}.cls-13{fill:#6e7073;}.cls-14{fill:#3d3e43;}.cls-15{fill:#4e4c4d;}.cls-16{fill:#5c5a5b;}.cls-17{fill:#605e5f;}.cls-18{fill:#4c4a4a;}.cls-19{fill:#605e5e;}.cls-20{fill:#4d4b4c;}.cls-21{fill:#5a585b;}.cls-22{fill:#8e8c8d;}.cls-23{fill:#444343;}.cls-24{fill:#323131;}.cls-25{fill:#373535;}.cls-26{fill:#454343;}.cls-27{fill:#393738;}.cls-28{fill:#535152;}.cls-29{fill:#878485;}.cls-30{fill:#3f3d3e;}.cls-31{fill:#4e4d4e;}.cls-32{fill:#716f70;}.cls-33{fill:#5d5c5c;}.cls-34{fill:#494748;}.cls-35{fill:#545253;}.cls-36{fill:#626061;}.cls-37{fill:#4b4849;}.cls-38{fill:#555354;}.cls-39{fill:#363334;}.cls-40{fill:#454344;}.cls-41{fill:#525051;}.cls-42{fill:#4d4c4c;}.cls-43{fill:#3c3b3b;}.cls-44{fill:#5c5b5c;}.cls-45{fill:#565455;}.cls-46{fill:#635f5d;}.cls-47{fill:#696768;}.cls-48{fill:#4d4b4b;}.cls-49{fill:#5f5c5d;}.cls-50{fill:#3f3c3d;}.cls-51{fill:#514f50;}.cls-52{fill:#2f2b2c;}.cls-53{fill:#5a5858;}.cls-54{fill:#3a3839;}.cls-55{fill:#605f5f;}.cls-56{fill:#5b5b63;}.cls-57{fill:#777575;}.cls-58{fill:#686667;}.cls-59{fill:#413f40;}.cls-60{fill:#535252;}.cls-61{fill:#403e3f;}.cls-62{fill:#343233;}.cls-63{fill:#363434;}.cls-64{fill:#4a4949;}.cls-65{fill:#514e4f;}.cls-66{fill:#837f80;}.cls-67{fill:#4b494a;}.cls-68{fill:#2b2728;}.cls-69{fill:#3e3c3c;}.cls-70{fill:#504f4f;}.cls-71{fill:#151314;}.cls-72{fill:#2d2b2c;}.cls-73{fill:#666263;}.cls-74{fill:#4e4f4f;}.cls-75{fill:#141112;}.cls-76{fill:#1f1e1e;}.cls-77{fill:#504e4e;}.cls-78{fill:#262424;}.cls-79{fill:#171516;}.cls-80{fill:#2a2829;}.cls-81{fill:#242627;}.cls-82{fill:#555152;}.cls-83{fill:#141212;}.cls-84{fill:#646263;}.cls-85{fill:#17191e;}.cls-86{fill:#1f2022;}.cls-87{fill:#131213;}.cls-88{fill:#424142;}.cls-89{fill:#121010;}.cls-90{fill:#0a0a0a;}.cls-91{fill:#1e1c1c;}.cls-92{fill:#494f54;}.cls-93{fill:#62656a;}.cls-94{fill:#8a9196;}.cls-95{fill:#555b60;}.cls-96{fill:#2d2f37;}.cls-97{fill:#31333c;}.cls-98{fill:#202329;}.cls-99{fill:#4e575c;}.cls-100{fill:#31363a;}.cls-101{fill:#424a51;}.cls-102{fill:#090e13;}.cls-103{fill:#181f27;}.cls-104{fill:#333c42;}.cls-105{fill:#282d33;}.cls-106{fill:#475156;}.cls-107{fill:#293035;}.cls-108{fill:#0a1016;}.cls-109{fill:#495157;}.cls-110{fill:#181b21;}.cls-111{fill:#444e53;}.cls-112{fill:#313a41;}.cls-113{fill:#e6e0cf;}.cls-114{fill:#e5e0d1;}.cls-115{fill:#f1d9c0;}.cls-116{fill:#324d79;}.cls-117{fill:#1c3b6c;}.cls-118{fill:#cad2d6;}.cls-119{fill:#5a6e92;}</style></defs><title>navi</title><g id="Laag_2" data-name="Laag 2"><g id="Laag_1-2" data-name="Laag 1"><path class="cls-1" d="M15.48,471C5.67,471,0,471.12,0,469.33Q.54,235.52,0,1.71C0,.28,1.94,0,13.35,0Q3360,.06,6706.55,0c11.48,0,13.68.28,13.35,1.71V471Z"/><path class="cls-2" d="M123.17,297c-1.85.42-.93,2.37-1.6,3.5a3.52,3.52,0,0,0-3,2.06c-1.24,1.8-1.3,4-2.75,5.63-2.25-.63-4.2-4.19-6.66-1.92-2.86,2.66-5.07,1.34-7.63.14-2.65,1.2-5.55,2.2-5.72,5.87l-1.91.82a4.15,4.15,0,0,0-4.81,1l-1.69,1c-1.61-1.53-2.89-1.08-3.82.84-1-.56-3.47,1.28-3-1.4.78-5-2-3-4-2.18s-3.85,2.74-6.14.94c-4.37-3.47-9.6-4.15-14.86-5.05a22.94,22.94,0,0,1-9.66-3.83,10.8,10.8,0,0,1-4.14-13.77A25.54,25.54,0,0,1,54,277.73c5.73-3,10.86-7,13.36-13A65.81,65.81,0,0,1,88.07,238.4a5.73,5.73,0,0,0,2.27-4.32c1.22-9.28-.34-19,3-27.86,6.12-16.3,9.17-33.31,12.74-50.2,1.32-5.83,1.7-12,7.63-15.69a7,7,0,0,0,2.18-5.1c.15-8.1,5.55-12.5,11.44-16.17,14.42-9,30.37-11.63,47.2-11.75,17.74-.11,18.94,5.07,22.28,18.08.15.63.13,1.3.26,1.92a114.48,114.48,0,0,0,14.42,36c6.64,10.16,17.4,15.63,27.63,21.2,24.45,13.29,47,29,65.67,49.83,5.77,6.43,7.44,12.63,3.63,20.51-6.2,12.84-10,26.54-16.44,39.39-8.21,16.42-19.88,25.73-37.41,28.56a87.76,87.76,0,0,1-33.06-.84c-13.56-2.94-27.49-4.47-40.84-8.11-3.82-1.09-8.72-2-11.45,3.12a2.48,2.48,0,0,0-.44-.71,2.39,2.39,0,0,0-3.37-.15,6.4,6.4,0,0,0-3.82-1.09c-.61-.21-1.18-1.25-1.91-.48-.36.38.14,1.15.25,1.72l0,.27a4,4,0,0,1-4.6,3.27,3.93,3.93,0,0,0-3.82,2.07,1,1,0,0,1-.28-.23,1.12,1.12,0,0,1,0-1.59,12.1,12.1,0,0,1,11.1-10.52,2.79,2.79,0,0,0-1.9-2c-5.84-3.37-12,.8-18-.94h0l-1-1.91c.08-.94,1.51-.88,1.51-2a5.3,5.3,0,0,0-2.23,1.74l-6-1.91c0-3-1.13-4.27-3.82-1.78a5.68,5.68,0,0,0-3.68-1C126,298.91,125,296.62,123.17,297Z"/><path class="cls-3" d="M325.72,91.28c0,11-.25,11.27-10.53,14.5-.61.19-1.18.44-1.79.63-10.53,3.51-20.87-1.32-27-9.66C281.5,90.17,277,83.36,270.32,78.1s-6.33-6.73.71-12a16.88,16.88,0,0,1,2.15-1.91c4.24-2.19,8.06-5.88,12.8-6.22,8.38-.58,16.83-.25,25.24-.14,4.79.08,11.41,5.3,12.42,9.44,1.43,5.85,2.92,11.68,2.08,16.62Z"/><path class="cls-4" d="M85.78,387.3a4.76,4.76,0,0,1-.87,4c-.92,1-2.14,0-2.83-.72-1.91-1.92-3.49-2.43-5.72-.52a3.07,3.07,0,0,1-4.25,0c-.77-.88-.37-2.43.22-3.58.06-.13.12-.26.19-.38a3.07,3.07,0,0,1,4.2-1.11c2.06,1.82,4,1.05,5.88.77C84,385.77,85.46,385.44,85.78,387.3Z"/><path class="cls-5" d="M121.55,368.13a14.46,14.46,0,0,0,7.36-2.64c1.3-.79,3.38-1.34,4,.7a2.62,2.62,0,0,1,.12,1.18,2.66,2.66,0,0,1-3,2.31,4.64,4.64,0,0,0-4.45,2.79c-1,1.63-3,1.49-4.71,1.11-1.16-.25-1.39-1.23-1.39-2.34C119.3,369.7,120,368.18,121.55,368.13Z"/><path class="cls-6" d="M183.85,329.23c1.38.08,3-.53,4,.73.71,1-.13,2.12-.71,3.06-1,1.72-2.69,1.46-4.19.9a20,20,0,0,0-6-.76c-1.33,0-3,.24-2.86-1.92s1.6-2.52,3.3-2.35,3.39.53,3.91.53A25.63,25.63,0,0,1,183.85,329.23Z"/><path class="cls-7" d="M140.78,396c.29,1.63-1,2.28-2.35,2.28a4.21,4.21,0,0,0-4.59,2.33c-.63,1.24-2.08,1.13-3.4.67h0a1.81,1.81,0,0,1-1.21-2.24c.17-1.39,1-2.7,2.33-2.54a5.24,5.24,0,0,0,5.3-3c.32-.46,1-.66,1.49-1A4.51,4.51,0,0,1,140.78,396Z"/><path class="cls-8" d="M107.43,388c0,1.93-1.35,2.39-2.91,2.16-2.31-.39-4.11-2.32-6.83-1.92a2.38,2.38,0,0,1-.8-.31,2.56,2.56,0,0,1-.88-3.51,2,2,0,0,1,.33-.43,2.09,2.09,0,0,1,3,0c1.68,1.18,2.84,4.55,5.26.72C106,385.55,107.45,386,107.43,388Z"/><path class="cls-9" d="M157.89,431.76c-1.41,1-2.86,2.08-4.77,1.24-.9-.36-.88-1.07-.53-1.91a5.08,5.08,0,0,1,4.08-3.52,6.46,6.46,0,0,1,4.94,1.32C160.1,430.07,159.3,430.74,157.89,431.76Z"/><path class="cls-10" d="M178.82,353.2a3.15,3.15,0,0,1-.23,1.69c-.56.78-1-.17-1.45-.37a7.17,7.17,0,0,0-5.36-.72c-2.2.92-3-.46-3.28-2-.44-2.35,1.56-2.22,2.72-2.35C174.75,349.24,176.07,352.67,178.82,353.2Z"/><path class="cls-11" d="M178.68,342.74c0,2.43-1.92,3-4,3s-3.59-.65-3.34-3.09,2.32-1.61,3.81-1.82C176.51,341.15,178.68,340.31,178.68,342.74Z"/><path class="cls-12" d="M70.05,415.93c-3-.17-1.87-3.53-2.48-5.45-.54-1.62.72-2.58,2.46-2.58,2.3,0,2,1.91,2.17,3.83C71.71,413.08,72.66,416.05,70.05,415.93Z"/><path class="cls-13" d="M96,312.34c-1.91-4.57-.27-6.35,5.72-5.87C100.74,309.39,100.8,313.3,96,312.34Z"/><path class="cls-14" d="M121.74,300.56c-.32-1.55-3-2.95-.32-4.71a3.41,3.41,0,0,1,4.65,0,3.68,3.68,0,0,1,1.26,3.83A9.39,9.39,0,0,1,121.74,300.56Z"/><path class="cls-15" d="M122.85,445.05c-.08,1.4-.71,3.37-2.41,2.66s-4.21-1.34-4.44-3.67c-.13-1.53,1.37-2.22,3.81-1.91C121,442.2,123,442.53,122.85,445.05Z"/><path class="cls-16" d="M157.38,341.59c0,1.4-.81,3.25-2.9,3.1-1.78-.13-3.61-1.09-3.69-2.95s1.36-2.64,3.27-2.75C155.45,339.47,157.43,339.85,157.38,341.59Z"/><path class="cls-17" d="M102.91,420.64l0-.23a3.44,3.44,0,0,1,3.88-3h0a2.69,2.69,0,0,1,2.83,2.51c0,2.22-1.93,2.51-3.59,2.8C104.65,422.5,102.78,422.32,102.91,420.64Z"/><path class="cls-18" d="M144.37,436.19c-.08-2.18,1-3.19,3-3.19h.18a2.87,2.87,0,0,1,2.87,2.86c.21,2.24-1,2.7-3,2.47C145.93,438.47,144.44,438.38,144.37,436.19Z"/><path class="cls-19" d="M79.43,368.47A2.82,2.82,0,0,1,76.49,371c-1.85,0-3.54-.82-3.54-2.92,0-1.65,1.35-2.32,3-2.59C77.29,366.23,79.51,366.25,79.43,368.47Z"/><path class="cls-18" d="M65.18,328.93c-.34-1.84,1.37-2.95,2.94-2.95h.1a3.25,3.25,0,0,1,3.08,3.41,1.7,1.7,0,0,1,0,.55,2.08,2.08,0,0,1-2.27,1.88C67.34,331.49,65.52,330.76,65.18,328.93Z"/><path class="cls-20" d="M89.27,393.17a2.68,2.68,0,0,1,0-.4,2.77,2.77,0,0,1,3-2.47,3,3,0,0,1,.52,0,2.67,2.67,0,0,1,2.43,2.9c0,2-1.47,2.54-3.14,2.94C90.67,395.69,89.14,395.2,89.27,393.17Z"/><path class="cls-21" d="M142.48,306.58c.17,2.72-.06,5.21-3.65,5.21a2,2,0,0,1-2.11-2.45c.38-3.6,3.14-2.76,5.36-2.76a1.85,1.85,0,0,1,.47,0Z"/><path class="cls-22" d="M83.57,329.8a2.5,2.5,0,0,1,2.63-2.4c1.49,0,2.88.05,2.88,2.12,0,1.72-.51,3.35-2.3,3.46s-2.62-1.41-3.21-2.87A1.61,1.61,0,0,1,83.57,329.8Z"/><path class="cls-23" d="M157.93,353.89c.28,1.9-.84,2.41-2.52,2.41a2.92,2.92,0,0,1-.66,0,2.59,2.59,0,0,1-2.11-3c.1-1.86,1.19-2.72,3.09-2.85C158,350.58,157.7,352.46,157.93,353.89Z"/><path class="cls-24" d="M74.47,398.2c2,.06,3.4.63,3.4,3,0,1.42-.23,2.45-2.16,2.19s-3.93-.2-4.08-4.21C71.59,398.43,72.89,398.14,74.47,398.2Z"/><path class="cls-25" d="M150.41,415.49c0,2.2-1.58,2.53-3.18,2.42a3.42,3.42,0,0,1-.46,0,2.7,2.7,0,0,1-2.23-3.12c.15-2,1.87-2.22,3.32-2.72A3.38,3.38,0,0,1,150.41,415.49Z"/><path class="cls-26" d="M176.07,414.81c1.3.23,3,.38,2.8,2.41s-1.62,2.66-3.2,2.66-2.84-.44-2.63-2.09C173.13,415.48,174.16,414.46,176.07,414.81Z"/><path class="cls-27" d="M167.56,358.31a2.35,2.35,0,0,1,0,.26,2.9,2.9,0,0,1-2.89,2.92c-2,.07-2.86-1.44-3.09-3.52s1.24-1.78,2.52-1.67S167.52,355.67,167.56,358.31Z"/><path class="cls-28" d="M144.54,333.39a2.48,2.48,0,0,1,2.72-2.22h.32a2.81,2.81,0,0,1,2.66,2.95c0,.05,0,.1,0,.15a2.63,2.63,0,0,1-2.4,2.82c-2.18.15-2.73-1.69-3.32-3.27A2.94,2.94,0,0,1,144.54,333.39Z"/><path class="cls-29" d="M190.13,341.44v.12a3,3,0,0,1-2.94,3c-1.64,0-2.5-1.09-2.56-2.82s.92-2.62,2.66-2.77C188.85,339.05,190.17,339.85,190.13,341.44Z"/><path class="cls-30" d="M149.46,353.68c0,1.95-1.51,2.53-3.24,2.53a2.42,2.42,0,0,1-.76,0,2.21,2.21,0,0,1-1.72-2.62c.11-1.59.68-3.1,2.88-3.1A3.59,3.59,0,0,1,149.46,353.68Z"/><path class="cls-31" d="M81.8,366.37c0-1.61.21-2.66,2.34-2.87s2.85.78,3.09,2.73-1.12,2.37-2.92,2.55C83.06,368.55,81.7,368.43,81.8,366.37Z"/><path class="cls-28" d="M113,363.38c1.35-.06,2.72.6,2.63,2.13s-.57,3.34-2.73,3.23c-1.64-.1-2.4-1.34-2.75-2.81C110.16,364,111.63,363.44,113,363.38Z"/><path class="cls-32" d="M157.6,396.46c1.76.23,3.59,1.19,3.82,2.87s-1.13,2.41-2.73,2.41c-2.15.1-2.54-1.26-2.54-3C156.23,397.66,155.85,396.23,157.6,396.46Z"/><path class="cls-33" d="M106.84,331.74c1.19.38,3.3.38,3.09,2.3-.15,1.39-.84,3.27-3,3a2.58,2.58,0,0,1-2.63-3.08C104.42,332.72,105,331.28,106.84,331.74Z"/><path class="cls-34" d="M117.3,386.07c0-1.32.15-2.93,2.06-3.12s2.63.83,2.72,2.43-.07,3.24-2.49,3.24C117.58,389,117.26,387.39,117.3,386.07Z"/><path class="cls-35" d="M81.59,373.54c1.58.08,3.49.44,3.49,2.35A3.41,3.41,0,0,1,82,379.05c-1.74,0-2.06-1.66-2.52-3C79.32,374.46,80,373.46,81.59,373.54Z"/><path class="cls-36" d="M157.76,379.24c1.5.14,3.41.58,3.41,2.49v.16a2.67,2.67,0,0,1-2.8,2.5c-1.41-.08-2.92-.33-3.07-2.34C155.7,380.79,155.85,379.05,157.76,379.24Z"/><path class="cls-8" d="M108.1,346.22a1.67,1.67,0,0,1,0,.32,2.77,2.77,0,0,1-3,2.46c-1.51-.1-2.82-.56-2.69-2.47a3,3,0,0,1,0-.6,2.68,2.68,0,0,1,3.11-2.16C106.52,344.27,108.31,344.19,108.1,346.22Z"/><path class="cls-37" d="M193.93,339.38a2.61,2.61,0,0,1-2.49-2.7,2.55,2.55,0,0,1,0-.78A2.28,2.28,0,0,1,194,334h.14a3,3,0,0,1,3.12,2.78c.21,1.86-1,2.49-3,2.62A1.93,1.93,0,0,1,193.93,339.38Z"/><path class="cls-38" d="M135.36,440.48c-2.69,1.82-5.28,2.83-8.12.36C130.54,437.65,131.57,437.59,135.36,440.48Z"/><path class="cls-39" d="M120.81,306.75c-1,2.34-3.06,1.55-4.83,1.55-.4-2.52-1.07-5.16,2.75-5.62C119.76,303.87,121.82,304.42,120.81,306.75Z"/><path class="cls-18" d="M127.16,429.94c-.08-1.74,1.07-2.12,2.4-2.12a2.23,2.23,0,0,1,.73,0,2.54,2.54,0,0,1,2.25,2.8c.07,1.85-1.11,2.39-3.15,2.22C127.48,433.17,127.24,431.68,127.16,429.94Z"/><path class="cls-40" d="M69.91,339.09a1.82,1.82,0,0,1-.39-.14,1.91,1.91,0,0,1-.92-2.54c1.77-2.93,4.46-1,7.36-1.25C74.38,338.32,72.62,339.85,69.91,339.09Z"/><path class="cls-41" d="M155.73,422.46c0,1.89-.91,2.94-2.95,2.75h-.1a2.64,2.64,0,0,1-2.55-2.75c-.16-2,1.14-2.37,3.16-2.37C154.27,420.32,155.77,420.56,155.73,422.46Z"/><path class="cls-42" d="M113.77,439.91c-.21,1.66-1.2,3.06-3.11,2.83-1.28-.14-2.52-.48-2.37-2.3s1.28-2.39,2.92-2.5C112.26,438.28,114,438.24,113.77,439.91Z"/><path class="cls-43" d="M132.9,411.57a1.39,1.39,0,0,1,0,.35,2.21,2.21,0,0,1-2.57,1.78,2.78,2.78,0,0,1-.58-.06,2.3,2.3,0,0,1-1.71-2.76,3.2,3.2,0,0,1,2.57-3A3.83,3.83,0,0,1,132.9,411.57Z"/><path class="cls-17" d="M131,342.89a2.42,2.42,0,0,1-1.91-2.83c0-1.26.12-2.81,1.91-2.62s3.57,1.19,3.57,3.1c0,1.4-1.45,2.39-3.13,2.39A2.12,2.12,0,0,1,131,342.89Z"/><path class="cls-44" d="M147.57,310a1.13,1.13,0,0,1,.26,0,2.25,2.25,0,0,1,2.2,2.3,2.18,2.18,0,0,1,0,.57,2.35,2.35,0,0,1-2.58,2.09h0a2.67,2.67,0,0,1-2.78-2.56C144.8,310.6,146,310,147.57,310Z"/><path class="cls-45" d="M77.28,327.61h-.11A2.38,2.38,0,0,1,75,325a2.88,2.88,0,0,1,2.83-2.68,1.29,1.29,0,0,1,.28,0,2.3,2.3,0,0,1,2.25,2.36C79.68,325.92,79.24,327.72,77.28,327.61Z"/><path class="cls-46" d="M118.08,315.75a2.47,2.47,0,0,1,0-.47,2.72,2.72,0,0,1,2.84-2.58c1.62,0,2.39,1.88,2.52,3.33s-1.18,2-2.48,2.26A2.78,2.78,0,0,1,118.08,315.75Z"/><path class="cls-34" d="M108,325.08a.59.59,0,0,0,0,.13,2.9,2.9,0,0,1-3.36,2.36c-1.85-.1-2.16-1.3-2.18-3s1.34-1.92,2.64-1.92C106.77,322.63,108.1,323.67,108,325.08Z"/><path class="cls-47" d="M116.78,358.62a3,3,0,0,1,0-.42,3,3,0,0,1,3.06-2,2.59,2.59,0,0,1,2.33,2.84c0,1.57-1.11,2.12-2.57,2.12C117.89,361.14,116.8,360.34,116.78,358.62Z"/><path class="cls-48" d="M160.79,341.08a2.36,2.36,0,0,1-2.77-2.34c-.05-1.49.65-2.58,2.08-2.41s3.21.29,3.65,2.2A3.17,3.17,0,0,1,160.79,341.08Z"/><path class="cls-49" d="M74,421.37a2.61,2.61,0,1,1,5.22,0c0,1.43-.87,2.56-2.34,2.37A2.84,2.84,0,0,1,74,421.31Z"/><path class="cls-20" d="M156.86,329.27a2.68,2.68,0,0,1,.49,0,2.11,2.11,0,0,1,1.78,2.38,2.18,2.18,0,0,1,0,.57,2.36,2.36,0,0,1-2.66,2c-1.76,0-2.52-1.09-2.52-2.73C154.07,329.67,155.24,329.25,156.86,329.27Z"/><path class="cls-50" d="M46.62,349.67c.15-1.29,1.07-2.51,2.65-1.92,3.3,1.26,1.34,3.89,1.74,6.18C48.47,353.24,46.35,352.52,46.62,349.67Z"/><path class="cls-51" d="M113.28,432.79a2.41,2.41,0,0,1-2.24-2.56,2.28,2.28,0,0,1,2.54-2.64,1.61,1.61,0,0,1,.31,0A2.21,2.21,0,0,1,116,429.9c.06,1.57-.4,2.79-2.44,2.89Z"/><path class="cls-52" d="M200.93,393.82c2-.63,2.93.88,3.14,2.39s-.68,2.18-2.19,2.32l-.26,0a2.83,2.83,0,0,1-3-2.62C198.2,394,200,394.13,200.93,393.82Z"/><path class="cls-53" d="M164.43,400.06a1.72,1.72,0,0,1,.07-.75,1.63,1.63,0,0,1,2.07-1.05c1.7.34,3.4,1.16,3.6,3.08.12,1.13-1.16,1.64-2.34,1.91C166.34,402.58,164.45,402.26,164.43,400.06Z"/><path class="cls-54" d="M141.75,371.91c1.3.29,2.83,1,2.71,2.8v0a2.42,2.42,0,0,1-2.38,2.46c-1.87.06-2.18-1.45-2.5-3.23C139.94,373.12,140.07,371.53,141.75,371.91Z"/><path class="cls-55" d="M62,375c.28,1.63-1.09,2-2.39,2.2a2.15,2.15,0,0,1-.71.11A2.25,2.25,0,0,1,56.69,375c-.15-1.76,1.28-2.27,2.65-2.79A3,3,0,0,1,62,375Z"/><path class="cls-56" d="M131,300.79c.08-1.44,0-3.12,1.8-3.35a4.19,4.19,0,0,1,2.95,1.09c1.7,1.62-.46,2.7-.86,4Z"/><path class="cls-57" d="M93.39,327.45c1.7,0,2.68.58,2.54,2.49a1.93,1.93,0,0,1,0,.34,2.16,2.16,0,0,1-2.34,2c-1.66,0-2.66-.75-2.45-2.66C91.11,328.12,91.7,327.44,93.39,327.45Z"/><path class="cls-58" d="M176.28,385.15a2.36,2.36,0,0,1,2.65-2c1.39,0,1.91.78,1.91,2.1.06,1.68-.71,2.89-2.29,3s-2.16-1-2.29-2.6A2.36,2.36,0,0,1,176.28,385.15Z"/><path class="cls-59" d="M141.94,388a1.79,1.79,0,0,1,.92,0,1.91,1.91,0,0,1,1.47,2.26c-.1,1.27-.63,2.63-2.33,2.36a4,4,0,0,1-3-2.76C139.42,388.33,140.78,388.06,141.94,388Z"/><path class="cls-60" d="M72.35,346.64c0-2.06,1.53-2,3.07-2.06s2.24.82,2.24,2.39a1.89,1.89,0,0,1-2.1,2.14C73.9,348.73,72.32,348.71,72.35,346.64Z"/><path class="cls-61" d="M143.81,366a2.3,2.3,0,0,1,.05-.45,2.16,2.16,0,0,1,2.55-1.68l.34.05a2.23,2.23,0,0,1,1.68,2.65c-.14,1.59-1.26,2.39-2.71,2.89A3.33,3.33,0,0,1,143.81,366Z"/><path class="cls-62" d="M176.58,374.27a1.83,1.83,0,0,1,.87,0,1.91,1.91,0,0,1,1.48,2.26,2.34,2.34,0,0,1-2.63,2.58c-1.47-.08-2.14-1.11-2.14-2.56S175.13,374.29,176.58,374.27Z"/><path class="cls-63" d="M87.27,345.84c2,0,2.16,1.2,2.14,2.91s-1.11,2-2.52,1.91c-1.85-.15-1.93-1.74-2.38-3C84.66,345.9,85.92,345.8,87.27,345.84Z"/><path class="cls-64" d="M161.61,344c1.18.21,3.11,0,2.94,2.13-.12,1.26-.69,2.5-2.2,2.44s-2.84-.36-2.84-2.27C159.53,344.9,160,343.68,161.61,344Z"/><path class="cls-65" d="M188.35,359.8c0-1.6.88-1.72,2.05-1.91,1.69-.25,2.7.37,2.84,2.07s-1,2.1-2.42,2.35A2.31,2.31,0,0,1,188.35,359.8Z"/><path class="cls-66" d="M193.85,396.48c1.73-.17,2.52,1.24,2.76,2.64s-.24,2.64-1.75,2.85c-2.54.36-1.6-1.76-1.91-2.62C192.74,398,192.11,396.65,193.85,396.48Z"/><path class="cls-67" d="M171.93,335.57c.11,1.56-1,2.1-2.44,2.1h-.36a2.14,2.14,0,0,1-2-2.3c-.09-1.49.36-2.43,2.08-2.18C171.07,332.89,171.82,334,171.93,335.57Z"/><path class="cls-68" d="M190.64,408c1.42.15,2.46.88,2.46,2.31a2.26,2.26,0,0,1,0,.45,2.13,2.13,0,0,1-2.41,1.79c-1.62-.08-2.71-.71-2.34-2.62C188.16,408.09,189.23,407.8,190.64,408Z"/><path class="cls-69" d="M56.6,324.3c.15-1.84,1.14-2.93,3-2.68,1.07.19,2.33.52,1.91,1.91s-.63,3.2-2.73,3.2C57.26,326.69,56.44,326.13,56.6,324.3Z"/><path class="cls-6" d="M115.88,331c-.09,1.55-.91,2.2-2.46,2.32s-2.42-.57-2.46-2.12,1-2.2,2.5-2.34C114.45,329.25,116,329.12,115.88,331Z"/><path class="cls-70" d="M167.87,371.32c1.29-.15,2.71.23,2.8,1.76a2.09,2.09,0,0,1-2.35,2.37h0a2.37,2.37,0,0,1-2.56-2.17C165.64,371.7,166.57,371.47,167.87,371.32Z"/><path class="cls-71" d="M185.59,393.53c1.35.19,2.48.69,2.1,2.45-.21,1,0,2.37-1.62,2.37a2.8,2.8,0,0,1-2.9-2.54C183.43,394.47,183.93,393.3,185.59,393.53Z"/><path class="cls-72" d="M76.42,354c1.1.15,2.82-.14,3,1.53a2.24,2.24,0,0,1-2.5,2.64c-1.28,0-2.54-.13-2.78-1.74C74.36,355,74.8,353.78,76.42,354Z"/><path class="cls-73" d="M203.79,355.86c0,1.52-.52,2.43-2.25,2.41s-2-1.32-2-2.64.5-2.52,2.24-2.39S203.81,354.35,203.79,355.86Z"/><path class="cls-74" d="M89.24,314.12c-.29-1.55-.23-3,1.43-3.46,2-.6,2.55,1.24,3.37,2.5C93.07,317.05,91,315,89.24,314.12Z"/><path class="cls-75" d="M181.56,319.8c0-1.72,1.19-2,2.54-1.91s2.44.25,2.4,2.08-1.22,1.92-2.51,2C182.52,322,181.54,321.52,181.56,319.8Z"/><path class="cls-9" d="M88.78,426.4a3.18,3.18,0,0,1-3,2.51l-.3,0a1.9,1.9,0,0,1-1.6-2.17c.15-1.48,1.41-1.9,2.78-2C87.61,424.85,89.1,425,88.78,426.4Z"/><path class="cls-62" d="M87.21,380.58c-.09-1.55.94-1.8,2.18-1.8s2.73.37,2.75,1.92S91,382.8,89.54,383A2.49,2.49,0,0,1,87.21,380.58Z"/><path class="cls-76" d="M86.15,372.56a2.27,2.27,0,0,1,2.69-1.77,2.33,2.33,0,0,1,2.23,2.06C91,374.57,89,375,87.9,375.13s-1.6-1.23-1.77-2.41A.78.78,0,0,1,86.15,372.56Z"/><path class="cls-77" d="M133.11,374.57a1.63,1.63,0,0,1,.31,0,1.9,1.9,0,0,1,1.6,2.17c-.1,1.34-.65,2.59-2.25,2.28a3.27,3.27,0,0,1-2.48-2.75A2.74,2.74,0,0,1,133.11,374.57Z"/><path class="cls-16" d="M182.29,371.36c-.1-1.57.4-2.72,2.15-2.95s2.18.62,2.14,2.22-.72,2.76-2.46,2.76C182.59,373.56,182.36,372.53,182.29,371.36Z"/><path class="cls-78" d="M53.34,375.61c1.71-.18,1.43,1.24,1.46,2.33s0,2.41-1.48,2.35-2.45-.74-2.45-2.29S52.08,375.74,53.34,375.61Z"/><path class="cls-79" d="M138.39,428.54c1.11.12,2.33.54,2.06,2a2.84,2.84,0,0,1-2.48,2.51c-1.2.11-2.17-.33-2.17-2C136,429.77,136.6,428.43,138.39,428.54Z"/><path class="cls-80" d="M127.39,343.91a2.09,2.09,0,0,1-2.37,1.74c-1.75,0-2-1.57-1.91-2.62s.29-2.28,2.2-2.09C126.26,341.5,127.48,342.22,127.39,343.91Z"/><path class="cls-81" d="M83.57,316c0-1.67-1.49-4.12,1.45-4.42,2.1-.25,2.67,1.66,2.44,3.57C86.41,316.47,84.89,315.77,83.57,316Z"/><path class="cls-37" d="M183.4,350a1.91,1.91,0,0,1,2.28-1.44c1.42.15,2.71.9,2.58,2.31s-1.68,1.65-3,1.65h-.2A2.14,2.14,0,0,1,183.4,350Z"/><path class="cls-82" d="M203,366.72a2.05,2.05,0,0,1-1.61-2.4c.06-1,.29-2.39,1.64-2.33s2.48.49,2.6,2.12a1.23,1.23,0,0,1,0,.19,2.26,2.26,0,0,1-2,2.45A2.07,2.07,0,0,1,203,366.72Z"/><path class="cls-83" d="M123,332.05h.36a2.5,2.5,0,0,1,2.27,2.71c0,1.15-.13,2.32-1.75,2.09-1.32-.17-2.38-.65-2.38-2.34C121.61,333.46,121.47,332,123,332.05Z"/><path class="cls-84" d="M111.78,403a2.55,2.55,0,0,1,2.46,2.37,1.42,1.42,0,0,1,0,.29,1.9,1.9,0,0,1-1.92,1.89c-1.55.12-2.14-.93-2.27-2.33C110.1,404.05,110.35,403,111.78,403Z"/><path class="cls-85" d="M140.82,304.52c-.16-1.55-.52-3.28,1.26-3.83s2.9.88,3.81,2.3a6.21,6.21,0,0,1-4.29,1.72A1.53,1.53,0,0,0,140.82,304.52Z"/><path class="cls-86" d="M159.8,316.22c-1.57-.49-2.86-1.35-2.86-3.17,0-1.13,1.37-1.13,2.19-1.13,1.89,0,2.82,1.15,2.37,3.06Z"/><path class="cls-87" d="M148.33,323.53h0a2,2,0,0,1-1.2-2.61c.88-2,2.64-.92,4.07-.92l.23,1.82C151,323.46,150,324.26,148.33,323.53Z"/><path class="cls-88" d="M165.39,316c0-1.53-.27-3.42,2.21-3.08s1.91,2.28,1.6,3.94A4.24,4.24,0,0,1,165.39,316Z"/><path class="cls-15" d="M165.39,379.4a1.78,1.78,0,0,1,1.89,1.66,3.33,3.33,0,0,1-2.37,3.17c-.9.33-1.22-1.1-1.45-2-.36-1.57.53-2.32,1.77-2.8Z"/><path class="cls-89" d="M57.93,399.94a1.76,1.76,0,0,1,2,2A1.89,1.89,0,0,1,57.86,404c-1.26,0-2-.69-2.18-2.22A2.73,2.73,0,0,1,57.93,399.94Z"/><path class="cls-79" d="M104,413.29a1.9,1.9,0,0,1-1.62-2c.08-1.4.86-2.41,2.36-2.26l.2,0a1.75,1.75,0,0,1,1.45,2C106,412.09,105.49,413.47,104,413.29Z"/><path class="cls-71" d="M149,373.87c1.41,0,2.08,1.2,2.19,2.48a1.7,1.7,0,0,1,0,.22,1.64,1.64,0,0,1-1.72,1.56c-1.53,0-2-1.16-2.22-2.47A1.92,1.92,0,0,1,149,373.87Z"/><path class="cls-90" d="M63.85,333.86c-.33,1.09-.18,2.74-2.08,2.28-.8-.19-2-1.07-2-1.49.17-1.46,1.54-2.09,2.67-2.66C63.67,332.2,64.17,332.77,63.85,333.86Z"/><path class="cls-91" d="M70,342.84a2.46,2.46,0,0,1,0,.26,1.9,1.9,0,0,1-2.14,1.65c-1.06-.1-2.48-.44-2.23-1.63s1.59-1.83,2.73-2.06C69.78,341,70.08,341.76,70,342.84Z"/><path class="cls-92" d="M150.89,293.53a3.46,3.46,0,0,1-3.82-1.28c-1.69-2.2.61-3.06,1.74-4.11,1.75-1.63,1.13-2.31-.65-3.35s-.67-2.45.27-3.58c0-.06.09-.12.13-.19a3.19,3.19,0,0,1,4.47-.61c1.48,1,1.18,2.12.24,3.18-1.45,1.55-1.22,3.44-1.06,5.74C151.67,290.44,153.31,292.67,150.89,293.53Z"/><path class="cls-93" d="M110.24,298.07a36.49,36.49,0,0,1,2.38-7.65c.52-1.09,2.79-.54,2.54,0-1.56,3.17.61,6.12.11,9.08-.17.94-1.39,1.19-2.55,1.19C111.21,300.59,110,299.68,110.24,298.07Z"/><path class="cls-94" d="M148.33,275.72a4.18,4.18,0,0,1-2.69,2.45c-1.73.61-3.95,1.3-4.75-.9s.08-3.88,2.75-4.38a14,14,0,0,0,3.7-1.91C148.71,272.4,149.57,273.83,148.33,275.72Z"/><path class="cls-95" d="M77.26,304.69c2,0,2.34,1.8,2.34,3.46.1,2.07-1.26,2.3-2.78,2.18-1.85-.13-2.84-1.15-3-3.29A3.17,3.17,0,0,1,77.26,304.69Z"/><path class="cls-96" d="M142.84,294.45c.29,2.09-1.26,2.83-2.82,2.93s-2.9-.67-2.85-2.39,1.36-2.72,3-3.33A3.33,3.33,0,0,1,142.84,294.45Z"/><path class="cls-97" d="M131.43,287c1.91.06,2.06,1.8,2.06,3.12.06,1.89-1.28,2.24-2.92,2.1s-2.38-1.2-2.76-2.85A4.05,4.05,0,0,1,131.43,287Z"/><path class="cls-98" d="M119.85,289.21a2.46,2.46,0,0,1,3-2.14c1.35.19,3,.09,2.74,2.26-.21,1.72-1.45,2.23-2.93,2.39C121.15,291.37,119.7,290.89,119.85,289.21Z"/><path class="cls-99" d="M182.67,298.87a14.41,14.41,0,0,1,.13-3.71,2.6,2.6,0,0,1,3.09-1.51c1.28.27,1.64,1.74,1.76,3a1.91,1.91,0,0,1-1.79,2.22c-1.09,0-2.18-.11-3.27-.11Z"/><path class="cls-100" d="M139.33,280.24c1.95-.54,1.51,1.11,1.39,2.07-.15,1.37-.38,3.23-2.29,2.85a3.83,3.83,0,0,1-3.49-2.84C135.74,280.32,137.78,280.66,139.33,280.24Z"/><path class="cls-101" d="M131.64,265.32a2.88,2.88,0,0,1,3,2.48c.34,1.53-.67,2.3-2.16,2.43l-.2,0a2.61,2.61,0,0,1-2.83-2.38C129.54,266.52,130.17,265.39,131.64,265.32Z"/><path class="cls-102" d="M170.33,285.33c1.39,0,2.61.53,2.46,2.1-.19,1.92-1.85,1.92-3.24,1.92a2,2,0,0,1-.85,0,1.91,1.91,0,0,1-1.56-2.21C167.41,285.16,168.94,285.33,170.33,285.33Z"/><path class="cls-103" d="M182.59,298.78c.42,2.5-.76,3.65-3.12,3.34a2.07,2.07,0,0,1-.74-.14,2.26,2.26,0,0,1-1.33-2.9c1-2.37,2.81-1,4.37-.46l.9.25Z"/><path class="cls-104" d="M139.69,272.11c-1.16.23-2.84-.33-2.71-1.91.27-2.82,2.73-3,5.29-3.54C141.73,268.78,142.34,271.23,139.69,272.11Z"/><path class="cls-105" d="M183.3,305.51a2.29,2.29,0,0,1,2.17,2.41,1.5,1.5,0,0,1,0,.3,2.22,2.22,0,0,1-2.38,2,2.15,2.15,0,0,1-.62,0,2,2,0,0,1-1.75-2.27c0-1.46,1.11-2.13,2.5-2.49Z"/><path class="cls-106" d="M168,295.62a1.36,1.36,0,0,1,0,.2,2.27,2.27,0,0,1-2.56,1.94,1.84,1.84,0,0,1-.41-.05,2.14,2.14,0,0,1-1.59-2.55c.15-1.47,1.24-2.1,2.8-2.1S168.17,294.34,168,295.62Z"/><path class="cls-107" d="M157.09,277.33c1.35,0,2.5.61,2.5,2.14-.1,1.09-.14,2.55-1.91,2.55a1.79,1.79,0,0,1-.4,0,2.14,2.14,0,0,1-1.89-2.36C155.35,278.48,155.73,277.37,157.09,277.33Z"/><path class="cls-108" d="M151.4,272.82c.27,1.87-.66,3.36-3.07,2.83-.07-1.61-1.54-2.93-1-4.67C149.53,269.77,151.08,270.62,151.4,272.82Z"/><path class="cls-109" d="M158,293.09c1.48-.34,1.94.64,1.9,1.8s.35,2.7-1.45,2.87a1.55,1.55,0,0,1-.48.07,2,2,0,0,1-2-2A2.53,2.53,0,0,1,158,293.09Z"/><path class="cls-110" d="M165.56,278.75a2.46,2.46,0,0,1-2.14,2.66c-1.64.24-1.81-1-1.91-2.11s.14-2.2,1.65-2.33C164.13,277.29,165.44,277.27,165.56,278.75Z"/><path class="cls-111" d="M178,281.23a1.71,1.71,0,0,1,0,.32,1.91,1.91,0,0,1-2.06,1.75h-.25a1.9,1.9,0,0,1-1.89-1.92c-.15-1.36.8-1.82,2-1.92C177,279.53,178,280,178,281.23Z"/><path class="cls-112" d="M171.57,275.59c-.16,1.05-.42,2.33-1.91,2.09a2.06,2.06,0,0,1-1.91-2.17,2.5,2.5,0,0,1,2-2.23A2.24,2.24,0,0,1,171.57,275.59Z"/><path class="cls-3" d="M5271.93,287.28c0,11-.33,11.27-14,14.5-.81.2-1.57.44-2.38.64-14,3.5-27.72-1.32-35.9-9.67-6.46-6.58-12.39-13.39-21.31-18.65s-8.42-6.73.93-12.05a22,22,0,0,1,2.87-1.91c5.62-2.18,10.69-5.88,17-6.22,11.12-.58,22.35-.25,33.52-.14,6.36.08,15.16,5.3,16.5,9.44,1.9,5.85,3.88,11.69,2.76,16.62Z"/><path class="cls-113" d="M5779.35,97c5,.11,9.35,2.73,10.57,6.42a10.68,10.68,0,0,1,.4,2.74c.11,7.54-7.89,13.71-17.86,13.79a157,157,0,0,1-18.8-1.2c-5.72-.68-10.75-3.22-13.76-7-1-1.18-2.54-2.87-.21-3.82,10.37-4.21,18.83-11.63,32.06-11.1C5774.28,96.83,5776.82,96.87,5779.35,97Z"/><path class="cls-114" d="M5575.17,297.59c.63,1.11.33,1.8-1.22,2.17-7.07,1.68-11.83,6-17.74,8.95-7.88,4-10.84,3.75-15.91-2.14-3.65-4.15-5.27-8.69-1.7-13.49,3.18-4.71,9.52-7.72,16.52-7.84C5560.85,284.2,5572,292,5575.17,297.59Z"/><path class="cls-115" d="M6339.84,344.16c-1.37-2.19-6.21-1.32-6.44-3.24-.74-5.72-6.79-9-9.78-13.68-9-14-18-27.95-21.41-43.5a9.58,9.58,0,0,0-2.23-2.83c-1-1.9.91-2.83,2.53-3.22,7-1.62,12.29-5.1,18-8.34a33.42,33.42,0,0,0,12.67-11c3-3.63,4.3-7.84,7.07-11.67,6.71-9.29,14.9-18,19.38-28.23a46.26,46.26,0,0,1,8.26-12.82,127.82,127.82,0,0,0,24.23-37.35c.68-1.68.68-3.92,4.1-4.13.43,1.38-.91,3.25,1.93,4,2.25-4.67,3.52-4.95,8.94-2.39a13.75,13.75,0,0,1,6.34,5.14,4.82,4.82,0,0,0,4.58,2.78c4.16-.12,5.65,2,6,4.51.22,3.76,3.13,7.13,7.6,8.8,6,1.88,9.27,5.69,13.4,8.65s9.13,5.11,12.67,8.51A214.56,214.56,0,0,0,6503.27,238a3.45,3.45,0,0,1,2.13,3.23c0,1.28-.25,2.78,1.24,3.58,9.63,5.15,14.4,13.39,21.82,19.67,12.39,10.46,16.95,23.16,21.79,35.47,3.45,8.74,1.6,18.88.18,28.44a40.3,40.3,0,0,1-7.73,17.83c-3.24,4.56-3.93,10.2-9.12,14.26a39.34,39.34,0,0,0-7.81,9.18,159,159,0,0,1-15.2,19.13c-3.72,3.83-7.07,7.88-10.41,11.9-.92,1.11-2.26,2.7.91,3.33,1.42.27,3.67-1.53,4,.74a4.45,4.45,0,0,1-3,4c-2.91,1.55-6.05,3-6.81,5.93-2.18-.88-4.26-2-4.72-3.69-1.57-6.12-7.93-9.76-13.15-13.58a193.25,193.25,0,0,0-40.54-21.72c-7.91-3.21-16.09-6.81-25.52-6.81-5.07,0-9.25-.51-12.95-3.57a23.57,23.57,0,0,0-11.17-4.17c-13.28-2.07-26.51-4.63-40.29-3.83C6345.79,352.46,6342.6,348.38,6339.84,344.16Z"/><path class="cls-116" d="M6358.46,293.75c-3.37-2.68-6.69-5.34-10.14-7.9a8.25,8.25,0,0,0-4.79-2.16c-9.4-.25-18.8-2-28.22,0a97.07,97.07,0,0,1-11.84,1.57c-7.29.63-14.57,1.87-22,1.24-11.22-1-15.45-6-11.86-14a16,16,0,0,1,5.63-7.39c8.64-5.41,13.58-12.93,20.47-19.34,7.48-6.94,7.35-7-2.78-11.33-5.38-2.29-6.08-4.4-2.54-8.47a7.78,7.78,0,0,0,2.66-5.74c-1.14-9.58,7-16.57,13-23.63,5-5.89,5.22-10.84-.41-16.39-2.71-2.66-6.23-4.77-9.15-7.27-5.37-4.69-10.79-9.59-20.57-7.14-.1,0-.33-.28-.48-.28,3.57-7.66,13.15-10.56,20.5-15.31,5.88-3.81,12.67-6.56,18.55-10.21a26,26,0,0,1,11.58-4.25,364.52,364.52,0,0,1,66.89-.61c4.59.45,9.12,1.22,13.63,1.91,3.88.57,4.84,4,8.06,5,21.11,6.49,24.56,19.25,21.36,33.71-2,8.74-3.67,17.52-5.5,26.3a11.45,11.45,0,0,0-2.53,5.28c-3.75,11.39-11.81,21.39-19.13,31.46-4.92,6.73-10.74,13-14.29,20.35a79.37,79.37,0,0,1-8.74,13.7c-5.4,6.94-11.74,13.49-14.42,21.44a4.69,4.69,0,0,1-2.54,2.51C6364.26,298.36,6361.27,296,6358.46,293.75Z"/><path class="cls-117" d="M6361.35,305.29c-7.63,3.5-12.29,10.27-22.43,11a6.33,6.33,0,0,0-4.33,2.54c-25.77-.5-51.59,1-77.21-3-7.25-.87-13.65-4-17.61-8.71a11.25,11.25,0,0,1-7-5.83c-1.19-2.57-2.31-5.17-3.73-7.65a26.17,26.17,0,0,1-1.92-21.93,718.46,718.46,0,0,1,29.95-67.8,55.11,55.11,0,0,0,6-12.93,9.62,9.62,0,0,1,4.2-6.2,43.8,43.8,0,0,1,2.39-6.06c2.43-4.29-.56-10,6-13.2,4.84-2.07,10.36-3.29,14.44,0,5.73,4.63,11.63,9.12,17.31,13.79,5,4.17,7.6,11.48,3.59,14.35-6.1,4.46-6.56,10.92-12,15.3-3,2.51-4.43,5.9-3.83,9.26a9,9,0,0,1-1.92,7.81c-4.84,5.12-4.41,6.08,3.42,8.22,8.76,2.41,9.4,4.14,3.54,9.66-.53.5-.83,1.13-1.39,1.57-6.89,5.19-10.14,12.59-17.74,17.22a29.78,29.78,0,0,0-8.51,8.06c-5.58,7.38-1.85,13.67,8.61,14.44a113.91,113.91,0,0,0,12.67-.23c14.67-.56,28.59-4.76,44-3.08a31.73,31.73,0,0,1,16.57,6.45c4.41,3.15,7.37,7.94,14.54,8.49A14.54,14.54,0,0,1,6361.35,305.29Z"/><path class="cls-118" d="M6180,308.2A253.49,253.49,0,0,1,6117,288.13c-11.28-5.21-24.91-9-30.18-19.73a3.71,3.71,0,0,0-2.21-1.62c-7.09-1.76-8.38-6.66-10.92-11a28.56,28.56,0,0,0-4.25-6.91c-9.3-9.09-11-19.76-11-30.61a145.09,145.09,0,0,1,1.87-28.05,89.67,89.67,0,0,1,13.86-32.84c2.94-4.38,6.14-8.65,8.67-13.22,5.15-9.47,13.59-17.71,24.43-23.86a18.4,18.4,0,0,0,6.86-5.51c4.13-6.43,11.89-9.09,20.28-10.25,19.2-2.66,36.94.78,53.77,8,10.41,4.52,17.3,12.59,29,15.76a9.2,9.2,0,0,1,4.61,3.83c3.15,4.63,8,8.15,11.86,12.28,10.82,11.6,24.38,22.1,27.12,37,.63,3.5,3.47,3.27,6.71,3.27-2.81,6.45-3.67,13.39-8.74,19.27A172.5,172.5,0,0,1,6248,186.37a68.41,68.41,0,0,0-14.09-19.67c-6.84-6.27-13.78-12.49-20.27-18.92-9.05-9-20.55-15.8-32.23-22.51-4.89-2.8-11.2-3.62-16.6-5.84-9.1-3.75-18.93-1.91-28.53-1.66-1.44,0-2.53,1.11-3.57,1.91-8.21,6.41-17.16,12.32-24.15,19.53-4.92,5-11,9.49-12.67,15.8a16.15,16.15,0,0,1-4.36,7.79,52.4,52.4,0,0,0-11.76,19.49c-5.32,13.87-4.79,28.07-3.95,42.21.18,4.51-.53,9.1,2.71,13.58s6,9.13,9.05,13.68c3.07,5.13,8.18,9.4,14.62,12.24,13.43,5.47,25,13.11,38.36,18.52,28.41,11.5,57.95,18.23,90.41,11.14,2.61,4.64,4,9.7,8.92,13.52A169.07,169.07,0,0,1,6180,308.2Z"/><path class="cls-119" d="M6328.76,184c9.3-4.86,18.6-8.36,29.88-8.69a22.66,22.66,0,0,0,7.14-1.28c11.05-3.85,19.46.42,19.44,9.18s-.89,8.55,11.45,8.4c6.26-.06,10.59,4.36,8.06,8.19a13.1,13.1,0,0,0-1.83,7.34c-.07,1.53.71,3.31-1.36,4.44-2.63,1.53-3.5,4.24-2.08,6.51,3.47,7.44-2.08,13.22-6.11,19.13-2.63,3.9-4.91,3.63-8.79.25-2.21-1.82-3.07-4.44-7.27-4.82-9.71-.88-17.41,1-23.16,7.38a35.16,35.16,0,0,1-12.07,8.28,6.11,6.11,0,0,1-5.92,0c-2.18-1.58.68-2.62,1.74-3.36,6.79-4.84,6.79-13,14.8-17.22,1-.54,1.27-2,1.6-3.06,3.17-10.28-2.81-18.31-11.58-25.41-7.58-6.12-16.73-5.55-27.37-1.59C6317.57,192.12,6322.32,187.28,6328.76,184Z"/></g></g></svg>